<svg width="772" height="308" viewBox="0 0 772 308" fill="none" xmlns="http://www.w3.org/2000/svg"><path d="M418.971 291.101c194.941 0 352.972-5.619 352.972-12.55 0-6.932-158.031-12.551-352.972-12.551C224.031 266 66 271.619 66 278.551c0 6.931 158.031 12.55 352.971 12.55z" fill="#E6E7E8"/><path d="M491.727 162.689c0 118.982-66.636 108.762-148.838 108.762-82.203 0-148.838 5.918-148.838-108.762 0-82.271 66.635-128.99 148.838-128.99 82.202 0 148.838 46.719 148.838 128.99z" fill="#1A272E"/><path opacity=".28" d="M351.765 45.046S227.939 33.696 218.33 184.411c0 0-9.684 89.787 124.565 87.04 0 0 114.697 4.395 120.325-70.128 5.211-69.005-.454-148.963-111.455-156.277z" fill="#8D8DB1"/><path d="M419.727 230.716c42.437-42.474 42.437-111.337 0-153.81-42.436-42.474-111.238-42.474-153.675 0-42.436 42.473-42.436 111.336 0 153.81 42.437 42.473 111.239 42.474 153.675 0z" fill="#A7A9AC"/><path d="M413.66 224.643c39.085-39.12 39.085-102.545 0-141.665-39.085-39.119-102.454-39.119-141.539 0-39.085 39.12-39.085 102.545 0 141.665 39.085 39.119 102.454 39.119 141.539 0z" fill="#D1D3D4"/><path d="M342.776 67.742h17.849c2.654 0 4.482 2.667 3.524 5.145l-9.693 25.082-8.155 21.105c-1.246 3.222-5.803 3.222-7.046 0L331.1 97.969l-9.69-25.081c-.957-2.479.87-5.146 3.525-5.146h17.841zM342.775 239.115h-17.848c-2.654 0-4.482-2.667-3.525-5.145l9.691-25.081 8.154-21.106c1.247-3.222 5.803-3.222 7.046 0l8.155 21.106 9.69 25.081c.958 2.478-.87 5.145-3.524 5.145h-17.839zM403.309 92.84l12.62 12.632c1.878 1.88 1.283 5.058-1.143 6.13l-24.571 10.876-20.678 9.154c-3.158 1.399-6.38-1.826-4.983-4.987l9.146-20.696 10.866-24.593c1.072-2.428 4.251-3.023 6.126-1.144l12.617 12.628zM282.236 214.018l-12.62-12.632c-1.878-1.879-1.284-5.057 1.142-6.13l24.572-10.876 20.677-9.154c3.159-1.399 6.381 1.826 4.983 4.987l-9.146 20.696-10.866 24.593c-1.075 2.428-4.25 3.024-6.125 1.144l-12.617-12.628zM428.381 153.427v17.864c0 2.657-2.665 4.487-5.141 3.528l-25.059-9.699-21.087-8.161c-3.219-1.248-3.219-5.808 0-7.053l21.087-8.162 25.059-9.698c2.476-.959 5.141.871 5.141 3.527v17.854zM257.16 153.427v-17.864c0-2.657 2.665-4.486 5.141-3.528l25.059 9.699 21.087 8.162c3.219 1.248 3.219 5.808 0 7.052l-21.087 8.162-25.059 9.699c-2.476.958-5.141-.871-5.141-3.528v-17.854zM403.308 214.018l-12.62 12.631c-1.878 1.88-5.054 1.285-6.125-1.143l-10.867-24.594-9.146-20.695c-1.397-3.161 1.825-6.387 4.983-4.988l20.678 9.154 24.571 10.876c2.426 1.073 3.021 4.254 1.143 6.131l-12.617 12.628zM282.236 92.84l12.621-12.631c1.878-1.88 5.053-1.285 6.125 1.143l10.866 24.594 9.146 20.695c1.398 3.162-1.824 6.387-4.983 4.988l-20.677-9.154-24.572-10.876c-2.426-1.076-3.021-4.254-1.142-6.131l12.616-12.628zM363.798 158.784c2.725-11.552-4.422-23.128-15.964-25.856-11.542-2.728-23.108 4.426-25.833 15.978-2.725 11.552 4.422 23.128 15.964 25.855 11.541 2.728 23.107-4.425 25.833-15.977z" fill="#1A272E"/><path d="M342.894 162.689c4.899 0 8.87-3.975 8.87-8.878 0-4.903-3.971-8.878-8.87-8.878-4.899 0-8.871 3.975-8.871 8.878 0 4.903 3.972 8.878 8.871 8.878z" fill="#fff"/><path opacity=".28" d="M260.683 64.39s-62.936 48.749-51.512 116.466c0 0-24.377-69.052 51.512-116.466zM455.477 89.323s23.335 38.516 21.695 105.711c.003-.003 11.464-70.474-21.695-105.711z" fill="#8D8DB1"/><path d="M591.7 228.882h-86.688a7.118 7.118 0 01-7.114-7.119v-41.432c0-1.547.504-3.05 1.432-4.284l100.803-133.94a7.109 7.109 0 015.682-2.835h39.372a7.117 7.117 0 017.113 7.119v123.414a7.118 7.118 0 007.114 7.119h20.351a7.117 7.117 0 017.113 7.12v37.719a7.117 7.117 0 01-7.113 7.119h-20.351a7.118 7.118 0 00-7.114 7.119v34.128a7.117 7.117 0 01-7.113 7.119h-39.265a7.117 7.117 0 01-7.113-7.119v-34.128a7.111 7.111 0 00-7.109-7.119zm-5.729-88.12l-18.255 24.826c-3.458 4.701-.104 11.34 5.729 11.34H591.7a7.118 7.118 0 007.113-7.12v-24.825c0-6.874-8.77-9.756-12.842-4.221zM92.741 228.882H7.115c-4.318 0-7.64-3.82-7.046-8.101l5.709-41.005a7.11 7.11 0 011.364-3.299L108.268 42.11a7.11 7.11 0 015.682-2.835h32.279a7.117 7.117 0 017.113 7.12v123.413a7.117 7.117 0 007.113 7.12h20.352a7.117 7.117 0 017.113 7.119v37.719a7.117 7.117 0 01-7.113 7.119h-20.352c-3.928 0-7.113 3.189-7.113 7.12v34.127a7.117 7.117 0 01-7.113 7.12h-39.262c-3.927 0-7.113-3.188-7.113-7.12v-34.127c0-3.935-3.185-7.123-7.113-7.123zm-5.729-88.12l-18.255 24.826c-3.457 4.701-.104 11.34 5.73 11.34H92.74a7.117 7.117 0 007.113-7.12v-24.825c0-6.874-8.77-9.756-12.842-4.221z" fill="#B53133"/><path d="M740.916 82.035h-6.021v60.308h6.021V82.035z" fill="#BDBDD8"/><path d="M769.403 76.553h-63.864v5.482h63.864v-5.482z" fill="#1A272E"/><path d="M707.15 83.562h-1.744a.65.65 0 01-.648-.65v-7.23c0-.36.292-.649.648-.649h1.744a.65.65 0 01.649.65v7.23a.65.65 0 01-.649.649zM770.271 83.562h-1.744a.65.65 0 01-.648-.65v-7.23c0-.36.292-.649.648-.649h1.744a.65.65 0 01.649.65v7.23a.647.647 0 01-.649.649z" fill="#1A272E"/><path d="M744.899 75.595h-14.196V83h14.196v-7.405z" fill="#BDBDD8"/><path opacity=".33" d="M734.895 83h6.024l-6.024 3.353V83z" fill="#1A272E"/><path d="M750.796 265.837h-25.784V140.641a7.02 7.02 0 017.019-7.025h11.746a7.02 7.02 0 017.019 7.025v125.196z" fill="#D13133"/><path d="M755.538 129.802h-17.741v141.016h17.741V129.802z" fill="#B53133"/><path d="M760.143 276.364H716.16c0-6.128 4.963-11.092 11.081-11.092h21.817c6.122-.003 11.085 4.964 11.085 11.092z" fill="#1A272E"/><path d="M762.672 278.822h-49.173a.631.631 0 01-.632-.632v-1.833a.63.63 0 01.632-.632h49.173a.63.63 0 01.632.632v1.833a.631.631 0 01-.632.632zM744.426 135.092h-13.037a1.62 1.62 0 01-1.619-1.621v-2.048a1.62 1.62 0 011.619-1.621h13.037a1.62 1.62 0 011.619 1.621v2.048a1.62 1.62 0 01-1.619 1.621z" fill="#1A272E"/><path opacity=".32" d="M731.2 206.828a2.566 2.566 0 01-2.563-2.566v-17.447a2.566 2.566 0 012.563-2.566 2.566 2.566 0 012.564 2.566v17.447a2.565 2.565 0 01-2.564 2.566zM731.2 215.209a2.566 2.566 0 01-2.563-2.566v-1.783a2.567 2.567 0 012.563-2.566 2.567 2.567 0 012.564 2.566v1.783a2.565 2.565 0 01-2.564 2.566z" fill="#fff"/><path d="M759.492 165.458c1.933-11.924-6.157-23.159-18.071-25.095-11.914-1.935-23.139 6.163-25.072 18.087-1.934 11.924 6.157 23.159 18.07 25.095 11.914 1.935 23.139-6.163 25.073-18.087z" fill="#1A272E"/><path d="M745.257 179.672c9.778-4.054 14.421-15.273 10.371-25.059-4.05-9.787-15.26-14.434-25.037-10.38-9.778 4.054-14.421 15.273-10.371 25.059 4.05 9.786 15.26 14.434 25.037 10.38z" fill="#fff"/><path d="M749.668 145.309s.702 25.804-23.164 33.562c0 0 17.122 10.994 30.559-3.739 13.437-14.737-7.395-29.823-7.395-29.823z" fill="#BDBDD8"/><path d="M738.088 164.979a3.019 3.019 0 003.017-3.02 3.019 3.019 0 10-6.035 0 3.019 3.019 0 003.018 3.02zM738.632 145.309h-1.085v5.189h1.085v-5.189zM738.632 173.683h-1.085v5.189h1.085v-5.189zM754.859 162.633v-1.086h-5.184v1.086h5.184zM726.508 162.634v-1.087h-5.185v1.087h5.185zM750.326 150.598l-.767-.768-3.666 3.669.767.768 3.666-3.669zM730.279 170.662l-.767-.768-3.666 3.669.767.768 3.666-3.669zM749.572 174.337l.768-.768-3.666-3.669-.768.768 3.666 3.669zM729.526 154.273l.767-.768-3.666-3.669-.767.768 3.666 3.669z" fill="#1A272E"/><path d="M745.085 155.088l-6.542 5.146-.453 1.856 1.855-.457 5.14-6.545z" fill="#F1BF46"/><path d="M351.775 253.59h-8.33v8.337h8.33v-8.337z" fill="#1A272E"/><path d="M607.544 266.228c-16.901 0-32.867-4.688-48.811-14.33-14.102-8.528-26.443-19.636-39.506-31.396-25.231-22.714-51.321-46.201-90.67-48.992-21.272-1.51-38.677 3.841-51.731 15.9-25.64 23.686-26.325 65.78-26.329 66.204l-5.782-.051c.003-.457.134-11.36 3.625-25.491 3.243-13.126 10.131-31.565 24.542-44.892 14.276-13.203 33.143-19.072 56.085-17.444 41.328 2.932 68.171 27.095 94.127 50.461 25.274 22.751 49.147 44.24 84.45 44.24 41.032 0 59.465-8.407 74.28-15.164 11.377-5.189 21.205-9.671 37.191-8.42l-.45 5.77c-14.505-1.136-23.258 2.859-34.346 7.917-15.321 6.991-34.389 15.688-76.675 15.688z" fill="#D13133"/><path d="M724.915 233.611h-12.251v12.261h12.251v-12.261z" fill="#1A272E"/></svg>
