<svg width="10" height="9" viewBox="0 0 10 9" fill="none" xmlns="http://www.w3.org/2000/svg">
<path d="M8.48073 0H1.32525C0.594343 0 0 0.583917 0 1.302V5.80689C0 6.52478 0.594541 7.1087 1.32525 7.1087H5.97906L8.37841 8.6905C8.42155 8.71889 8.47103 8.73328 8.52111 8.73328C8.56247 8.73328 8.60364 8.72356 8.64144 8.70372C8.72476 8.65997 8.77681 8.57481 8.77681 8.48206V6.98386C9.2431 6.78981 9.80598 6.36961 9.80598 5.80708V1.302C9.80598 0.583917 9.21144 0 8.48073 0ZM9.29436 5.80689C9.29436 6.10147 8.84628 6.44525 8.44431 6.5695C8.33764 6.60236 8.265 6.69958 8.265 6.80925V8.01072L6.19934 6.64903C6.15719 6.62103 6.10771 6.60625 6.05684 6.60625H1.32525C0.876572 6.60625 0.511614 6.24769 0.511614 5.80708V1.302C0.511614 0.861195 0.876572 0.502639 1.32525 0.502639H8.48073C8.9296 0.502639 9.29456 0.861389 9.29456 1.302V5.80689H9.29436Z" fill="url(#paint0_linear_144_1053)"/>
<path d="M7.91287 1.67554H1.8776C1.6124 1.67554 1.39667 1.88748 1.39667 2.14804C1.39667 2.40859 1.6124 2.62054 1.8776 2.62054H7.91268C8.17788 2.62054 8.39361 2.40859 8.39361 2.14804C8.39381 1.88748 8.17808 1.67554 7.91287 1.67554ZM7.91287 2.31895H1.8776C1.78181 2.31895 1.70364 2.24234 1.70364 2.14804C1.70364 2.05373 1.78181 1.97712 1.8776 1.97712H7.91268C8.00847 1.97712 8.08665 2.05373 8.08665 2.14804C8.08684 2.24234 8.00867 2.31895 7.91287 2.31895Z" fill="url(#paint1_linear_144_1053)"/>
<path d="M7.91287 3.06152H1.8776C1.6124 3.06152 1.39667 3.27347 1.39667 3.53402C1.39667 3.79458 1.6124 4.00633 1.8776 4.00633H7.91268C8.17788 4.00633 8.39361 3.79458 8.39361 3.53402C8.39381 3.27347 8.17808 3.06152 7.91287 3.06152ZM7.91287 3.70475H1.8776C1.78181 3.70475 1.70364 3.62833 1.70364 3.53402C1.70364 3.43972 1.78181 3.36311 1.8776 3.36311H7.91268C8.00847 3.36311 8.08665 3.43972 8.08665 3.53402C8.08684 3.62833 8.00867 3.70475 7.91287 3.70475Z" fill="url(#paint2_linear_144_1053)"/>
<path d="M7.91287 4.3999H1.8776C1.6124 4.3999 1.39667 4.61165 1.39667 4.87221C1.39667 5.13276 1.6124 5.3449 1.8776 5.3449H7.91268C8.17788 5.3449 8.39361 5.13276 8.39361 4.87221C8.39381 4.61165 8.17808 4.3999 7.91287 4.3999ZM7.91287 5.04312H1.8776C1.78181 5.04312 1.70364 4.96651 1.70364 4.87221C1.70364 4.7779 1.78181 4.70148 1.8776 4.70148H7.91268C8.00847 4.70148 8.08665 4.7779 8.08665 4.87221C8.08684 4.96651 8.00867 5.04312 7.91287 5.04312Z" fill="url(#paint3_linear_144_1053)"/>
<defs>
<linearGradient id="paint0_linear_144_1053" x1="-5.9375e-06" y1="4.36664" x2="9.80598" y2="4.36664" gradientUnits="userSpaceOnUse">
<stop stop-color="#B53133"/>
<stop offset="1" stop-color="#912829"/>
</linearGradient>
<linearGradient id="paint1_linear_144_1053" x1="1.39666" y1="2.14801" x2="8.39376" y2="2.14801" gradientUnits="userSpaceOnUse">
<stop stop-color="#B53133"/>
<stop offset="1" stop-color="#912829"/>
</linearGradient>
<linearGradient id="paint2_linear_144_1053" x1="1.39666" y1="3.53391" x2="8.39376" y2="3.53391" gradientUnits="userSpaceOnUse">
<stop stop-color="#B53133"/>
<stop offset="1" stop-color="#912829"/>
</linearGradient>
<linearGradient id="paint3_linear_144_1053" x1="1.39666" y1="4.87237" x2="8.39376" y2="4.87237" gradientUnits="userSpaceOnUse">
<stop stop-color="#B53133"/>
<stop offset="1" stop-color="#912829"/>
</linearGradient>
</defs>
</svg>
