<svg width="14" height="10" viewBox="0 0 14 10" fill="currentColor" xmlns="http://www.w3.org/2000/svg"><path fill-rule="evenodd" clip-rule="evenodd" d="M4.966 10c-.06-.005-.076-.004-.136-.015a1.003 1.003 0 01-.537-.278l-4-4C.25 5.663.24 5.653.203 5.604a1.002 1.002 0 01.043-1.261 1.003 1.003 0 011.358-.14c.049.037.059.048.103.09L5 7.586 12.293.293l.05-.047c.047-.038.058-.049.108-.082a1.003 1.003 0 01.719-.15 1.008 1.008 0 01.816.816 1.005 1.005 0 01-.19.774c-.036.049-.047.059-.089.103l-8 8c-.044.041-.054.053-.103.09a1.002 1.002 0 01-.57.202h-.068z" /></svg>
