<svg width="43" height="43" viewBox="0 0 43 43" fill="none" xmlns="http://www.w3.org/2000/svg"><path d="M36.458 36.46c8.262-8.262 8.262-21.658 0-29.92-8.262-8.261-21.657-8.261-29.919 0-8.261 8.262-8.261 21.658 0 29.92 8.262 8.261 21.657 8.261 29.92 0z" fill="#6BC43C"/><path d="M17.242 31.889l10.122 9.933c8.824-2.537 15.291-10.673 15.291-20.322 0-.189-.008-.37-.017-.559l-9.606-9.606-15.79 20.554z" fill="url(#paint0_linear_760_1780)"/><path d="M18.549 32.241a2.63 2.63 0 01-2.064-.997l-6.94-8.755a2.63 2.63 0 01.43-3.698 2.63 2.63 0 013.698.43l6.94 8.755a2.63 2.63 0 01-2.064 4.265z" fill="#fff"/><path d="M18.54 32.242a2.64 2.64 0 01-1.634-.568 2.636 2.636 0 01-.43-3.698l12.857-16.211a2.636 2.636 0 013.698-.43 2.636 2.636 0 01.43 3.698L20.604 31.244a2.63 2.63 0 01-2.064.998z" fill="#fff"/><defs><linearGradient id="paint0_linear_760_1780" x1="23.643" y1="20.12" x2="38.055" y2="34.532" gradientUnits="userSpaceOnUse"><stop stop-color="#41A029"/><stop offset="1" stop-color="#6BC43C"/></linearGradient></defs></svg>