<svg width="175" height="174" viewBox="0 0 175 174" fill="none" xmlns="http://www.w3.org/2000/svg"><path d="M128.929 99.438c-29.423-16.989-76.975-16.987-106.208 0-29.234 16.989-29.078 44.532.345 61.521 29.426 16.988 76.975 16.988 106.21 0 29.235-16.989 29.081-44.532-.347-61.52Z" fill="#F5F5F5"/><path d="M97.563 96.095c4.916 2.838 4.942 7.44.058 10.279-4.885 2.838-12.83 2.838-17.747 0-4.916-2.839-4.942-7.44-.058-10.279 4.883-2.838 12.83-2.838 17.747 0Z" fill="#E7E7E7"/><path d="M89.85 62.104h-2.262c0 9.729.353 41.748.353 41.748 0 .115.078.229.23.318.305.176.797.176 1.1 0 .152-.089.228-.203.226-.318 0 0 .353-32.02.353-41.748ZM85.285 57.719h-2.262c-1.943 10.062-3.207 41.747-3.207 41.747 0 .115.078.23.23.319.306.175.797.175 1.1 0 .152-.089.228-.204.226-.319-.002 0 2.145-31.826 3.913-41.747ZM92.15 57.719h2.262c1.944 10.062 3.207 41.747 3.207 41.747 0 .115-.078.23-.23.319-.305.175-.797.175-1.1 0-.152-.089-.228-.204-.226-.319.002 0-2.142-31.826-3.913-41.747Z" fill="#E7E7E7"/><g opacity=".1" fill="#000"><path d="M89.85 62.104h-2.262c0 9.729.353 41.748.353 41.748 0 .115.078.229.23.318.305.176.797.176 1.1 0 .152-.089.228-.203.226-.318 0 0 .353-32.02.353-41.748ZM85.285 57.719h-2.262c-1.943 10.062-3.207 41.747-3.207 41.747 0 .115.078.23.23.319.306.175.797.175 1.1 0 .152-.089.228-.204.226-.319-.002 0 2.145-31.826 3.913-41.747ZM92.15 57.719h2.262c1.944 10.062 3.207 41.747 3.207 41.747 0 .115-.078.23-.23.319-.305.175-.797.175-1.1 0-.152-.089-.228-.204-.226-.319.002 0-2.142-31.826-3.913-41.747Z"/></g><path d="M100.89 57.43h-.241c-.459-1.323-1.575-2.586-3.354-3.613-4.769-2.754-12.473-2.754-17.212 0-1.766 1.027-2.869 2.29-3.313 3.614h-.225v1.371c.01 1.805 1.209 3.608 3.592 4.986 4.77 2.754 12.474 2.754 17.212 0 2.368-1.376 3.547-3.18 3.536-4.986v-1.371h.005Z" fill="#E0E0E0"/><path d="M97.297 52.445c4.769 2.754 4.793 7.218.056 9.97-4.738 2.753-12.443 2.753-17.212 0-4.768-2.755-4.792-7.218-.056-9.97 4.737-2.754 12.443-2.754 17.212 0Z" fill="#EBEBEB"/><path d="M94.689 48.372H82.747c0 3.924 1.832 7.25 2.395 8.238.022.045.05.089.076.134.009.013.02.032.026.045h.002c.182.278.464.538.85.761 1.458.84 3.813.84 5.26 0 .486-.282.802-.622.962-.984.588-1.035 2.37-4.32 2.37-8.194Z" fill="#E0E0E0"/><path d="M92.925 45.928c2.34 1.352 2.353 3.54.028 4.892-2.325 1.352-6.105 1.352-8.445 0-2.34-1.35-2.353-3.54-.029-4.892 2.325-1.352 6.106-1.352 8.446 0Z" fill="#EBEBEB"/><path d="M88.07 46.83a17.147 17.147 0 0 0-1.722-7.374c-.35-.721-.76-1.445-.814-2.245-.054-.799.385-1.705 1.172-1.863.617-.126 1.248.254 1.608.77.36.515.504 1.148.634 1.763.592 2.765 1.082 5.605.711 8.407-.039.3-.067.67-.193.947-.125.277-.377.517-.68.546a.66.66 0 0 1-.54-.213c-.134-.15-.173-.537-.175-.739Z" fill="#EBEBEB"/><path d="M88.728 47.057h-.009a.098.098 0 0 1-.088-.106 21.379 21.379 0 0 0-1.775-10.472.1.1 0 0 1 .05-.13c.05-.021.108 0 .13.05a21.562 21.562 0 0 1 1.792 10.567.1.1 0 0 1-.1.09Z" fill="#fff"/><path d="M82.257 42.67c-.526-.326-1.126-.677-1.285-1.275-.143-.533.146-1.122.607-1.425.462-.301 1.06-.345 1.595-.215.537.13 1.02.418 1.47.737a9.857 9.857 0 0 1 2.025 1.937c.69.877 1.239 1.865 1.618 2.914.245.674.47 1.38.583 2.1.089.567.258 1.505-.33 1.878-.253.16-.598.134-.86-.013-.262-.147-.45-.4-.583-.672-.132-.27-.212-.563-.307-.849-.384-1.142-.999-2.11-1.818-2.98-.79-.842-1.735-1.533-2.715-2.138Z" fill="#F5F5F5"/><path d="M88.286 48.636a.12.12 0 0 1-.14-.09c-.711-3.37-3.075-6.403-6.167-7.92a.119.119 0 0 1-.054-.16.12.12 0 0 1 .16-.054c3.155 1.547 5.569 4.645 6.294 8.084a.124.124 0 0 1-.093.14Z" fill="#fff"/><path d="M93.947 41.452c.427-.449.919-.938.921-1.558.002-.553-.424-1.051-.949-1.227-.524-.175-1.111-.065-1.597.195-.485.263-.882.663-1.237 1.086a9.935 9.935 0 0 0-1.469 2.386 10.489 10.489 0 0 0-.828 3.23c-.064.715-.106 1.454-.032 2.178.058.57.132 1.523.795 1.733.286.09.613-.022.828-.232.216-.21.334-.503.394-.797.059-.295.063-.598.083-.9.08-1.2.433-2.296 1.005-3.343.554-1.01 1.291-1.917 2.086-2.751Z" fill="#F5F5F5"/><path d="M89.626 48.751a.116.116 0 0 0 .113-.125c-.165-3.439 1.352-6.973 3.959-9.222a.12.12 0 0 0 .013-.169.122.122 0 0 0-.17-.013c-2.66 2.297-4.21 5.902-4.042 9.414.006.067.062.12.127.115Z" fill="#fff"/><path d="m154.404 24.758-.037 12.937-1.568.912.041-14.753 1.564.904Z" fill="#F0F0F0"/><path d="m171.296 47.468-.005 1.814-18.492-10.675 1.568-.912 16.929 9.773Z" fill="#F5F5F5"/><path d="m150.898 39.69 22.282 12.864.055-19.104-22.282-12.863-.055 19.103Zm1.901-1.083.041-14.753 1.562.901 16.928 9.774-.037 12.937-.004 1.814-18.49-10.673Z" fill="#E0E0E0"/><path d="m150.953 20.587 1.567-.913 22.282 12.864-1.569.912-22.28-12.863Z" fill="#F5F5F5"/><path d="m174.801 32.538-.055 19.104-1.568.912.054-19.104 1.569-.912Z" fill="#F0F0F0"/><path d="m159.782 29.67-4.617 3.635-.009 3.551 15.355 8.864.009-3.551-2.925-5.811-2.628 2.039.929 2.886-1.347-2.561-4.767-9.053Z" fill="#E0E0E0"/><path d="M164.827 31.459c-.724-.418-1.311-.082-1.313.747-.002.83.583 1.842 1.304 2.26.724.419 1.311.083 1.313-.747.002-.832-.581-1.842-1.304-2.26Z" fill="#E0E0E0"/><path d="m126.859 8.93-.037 12.937-1.566.912.041-14.753 1.562.904Z" fill="#F0F0F0"/><path d="m143.751 31.641-.005 1.814-18.49-10.676 1.566-.912 16.929 9.774Z" fill="#F5F5F5"/><path d="m123.354 23.863 22.282 12.863.054-19.103-22.282-12.864-.054 19.104Zm1.902-1.084.041-14.753 1.562.902 16.928 9.774-.037 12.937-.004 1.813-18.49-10.673Z" fill="#E0E0E0"/><path d="m123.408 4.76 1.569-.913 22.28 12.863-1.567.913-22.282-12.864Z" fill="#F5F5F5"/><path d="m147.255 16.71-.054 19.104-1.566.912.054-19.103 1.566-.913Z" fill="#F0F0F0"/><path d="m132.239 13.842-4.617 3.635-.011 3.552 15.355 8.863.011-3.55-2.927-5.812-2.626 2.04.928 2.885-1.348-2.563-4.765-9.05Z" fill="#E0E0E0"/><path d="M137.282 15.632c-.724-.419-1.311-.083-1.313.747-.002.83.583 1.842 1.304 2.26.724.418 1.311.082 1.313-.748.004-.832-.581-1.843-1.304-2.26Z" fill="#E0E0E0"/><path d="M91.708 149.276c.769.806 1.932 1.148 3.046 1.12 1.114-.028 2.193-.39 3.222-.812 1.031-.425 2.325-1.61 3.438-1.589 1.029.02 2.245-.112 3.259-.223.1-2.249-.464-4.413-.464-4.413l-5.202-.137c-1.404 1.924-4.136 3.523-6.2 4.123a1.822 1.822 0 0 0-1.284 1.368c.003.01.003.021.005.032.073.334.18.531.18.531Z" fill="#37474F"/><path d="M101.414 147.995c-1.114-.021-2.408 1.164-3.439 1.588-1.031.425-2.108.785-3.222.813-1.114.028-2.277-.314-3.046-1.12 0 0-.106-.197-.18-.531l-.004-.033c-.046.224-.048.458.004.694.074.333.18.531.18.531.769.806 1.933 1.148 3.046 1.12 1.114-.028 2.193-.39 3.222-.813 1.031-.422 2.325-1.61 3.439-1.588 1.146.024 2.134-.069 3.208-.186.026-.232.042-.466.052-.698-1.016.111-2.231.245-3.26.223ZM117.44 152.173a8.2 8.2 0 0 1-.166 1.692c-.215.973-.715 1.922-1.547 2.468-.718.472-1.604.602-2.46.654-.758.046-1.538.037-2.249-.232-.539-.203-1.035-.58-1.317-1.074l.004.028c.169.741.804 1.308 1.517 1.577.711.269 1.491.277 2.249.232.856-.052 1.742-.182 2.459-.654.832-.549 1.333-1.498 1.547-2.468a8 8 0 0 0 .167-1.692 2.866 2.866 0 0 1 .908-2.07c.141-.13.273-.266.396-.407.178-.204.263-.47.243-.739a7.376 7.376 0 0 0-.032-.31c-.204.241-.687.811-.809.926a2.857 2.857 0 0 0-.91 2.069Z" fill="#1A2E35"/><path d="M113.172 146.275c.215 1.148.007 2.349-.435 3.432-.44 1.083-1.105 2.061-1.816 2.988-.342.444-.7.884-.951 1.387-.247.494-.383 1.061-.269 1.601.282.494.778.871 1.318 1.074.71.269 1.49.278 2.249.232.856-.052 1.742-.182 2.459-.654.832-.548 1.332-1.497 1.547-2.468a8.126 8.126 0 0 0 .167-1.692 2.855 2.855 0 0 1 .908-2.069c.121-.115.604-.685.808-.925a6.287 6.287 0 0 0-.834-2.395l-5.151-.511Z" fill="#37474F"/><path d="M98.791 97.614s-1.315 17.281-1.202 22.087c.115 4.805.598 23.803.598 23.803 2.693 1.573 6.584.401 6.584.401.315-15.163 1.745-18.426.772-23.975.687-4.118 1.633-13.721 1.633-13.721 1.344 11.546 2.314 17.498 2.314 17.498l3.205 23.116c2.632 1.374 5.952 0 5.952 0 0-13.175.286-18.75-1.088-27.447-.074-13.39-.75-21.524-.75-21.524l-18.018-.238Z" fill="#1A2E35"/><path opacity=".2" d="M101.973 102.075c.918 2.251 3.798 2.251 3.798 2.251l.515 2.559-.19 9.102c.552-4.426 1.081-9.78 1.081-9.78l-.355-2.739c-2.423.096-4.184-.858-4.849-1.393Z" fill="#000"/><path d="m90.082 78.317-2.062 1.849-5.71-6.123a4.694 4.694 0 0 1-1.13-2.11l-.325-1.361a3.72 3.72 0 0 0-.406-1.012c-.277-.479-.576-.962-.831-1.437-.08-.15-.172-.307-.323-.377-.178-.08-.401-.01-.533.133-.133.142-.184.348-.182.543.002.195.054.388.104.577l.236.88c.032.12.065.246.058.372-.006.126-.06.256-.169.323-.245.147-3.767-3.12-4.355-4.617-.158-.403-1.421-.17-.656 1.467-.295.201-.384.567-.403.925l-.072 1.334c-.023.438-.045.884.048 1.311.14.64.535 1.196.964 1.69.793.917 1.79 1.569 2.869 2.052.823.368 1.53.951 2.028 1.703l5.46 8.236a3.915 3.915 0 0 0 5.726.88l2.886-2.334-3.222-4.904Z" fill="#FFAAA8"/><path d="M99.975 70.641c-2.803-.16-3.536 1.306-5.308 2.955a586.37 586.37 0 0 0-5.103 4.858c.55 3.941 3.697 5.226 3.697 5.226l6.173-4.552.541-8.487Z" fill="#1A2E35"/><path d="M117.274 98.922s-10.45 3.825-18.936-.942c0 0 .515-6.082.667-9.627.154-3.544-1.07-10.389-1.252-12.222-.185-1.833.06-5.011 2.223-5.492 4.01-.847 11.55 0 11.55 0l4.5 4.972c1.894 9.718 1.569 19.92 1.248 23.311Z" fill="#D268CC"/><path d="M117.274 98.922s-10.45 3.825-18.936-.942c0 0 .515-6.082.667-9.627.154-3.544-1.07-10.389-1.252-12.222-.185-1.833.06-5.011 2.223-5.492 4.01-.847 11.55 0 11.55 0l4.5 4.972c1.894 9.718 1.569 19.92 1.248 23.311Z" fill="#B53133"/><path d="M90.785 96.663v-.011c0-.005 0-.009-.002-.013l-.004-.022-.007-.022c-.002-.006-.004-.015-.008-.021l-.009-.022a.104.104 0 0 0-.01-.022c-.005-.006-.007-.015-.012-.021v-.002l-4.157-7.952a.1.1 0 0 1-.011-.022l-.013-.023a.151.151 0 0 0-.016-.024c-.004-.009-.01-.018-.015-.024l-.017-.026c-.007-.009-.01-.018-.017-.026l-.02-.026a.226.226 0 0 0-.02-.024c-.006-.009-.012-.015-.017-.024-.006-.006-.01-.015-.017-.022l-.015-.017-.015-.017a.089.089 0 0 1-.013-.015l-.011-.013-.011-.013c-.004-.005-.009-.009-.01-.013-.003-.005-.007-.007-.01-.011l-.008-.009-.009-.008-.009-.01c-.002-.004-.006-.006-.008-.008l-.009-.009a.03.03 0 0 1-.006-.008c-.002-.002-.005-.007-.009-.009l-.009-.008a.545.545 0 0 0-.008-.01l-.009-.008a.71.71 0 0 0-.009-.008l-.008-.01-.009-.008-.009-.008-.008-.01-.009-.008-.013-.013-.015-.015a2.171 2.171 0 0 0-.015-.015c-.02-.02-.041-.037-.061-.056a.057.057 0 0 0-.013-.011.059.059 0 0 0-.013-.011c-.004-.004-.009-.009-.013-.011l-.013-.01c-.002-.003-.007-.005-.009-.007l-.008-.007-.009-.006-.009-.007-.008-.006-.009-.007-.009-.006-.008-.007-.009-.006-.009-.007-.008-.006-.009-.007-.009-.006c-.004-.002-.006-.005-.01-.009-.005-.002-.007-.004-.011-.009-.005-.002-.007-.004-.011-.008-.005-.002-.007-.005-.011-.009-.004-.002-.006-.004-.01-.009l-.016-.01c-.004-.005-.009-.007-.015-.011-.004-.005-.009-.007-.015-.011l-.016-.011-.019-.015-.02-.013c-.008-.004-.015-.011-.023-.015-.009-.007-.018-.011-.026-.018-.009-.006-.018-.01-.026-.017-.009-.007-.02-.01-.029-.017l-.015-.009-4.849-2.8a.045.045 0 0 1-.01-.006c-.01-.004-.02-.01-.029-.015l-.028-.015-.026-.013-.026-.013c-.008-.005-.017-.009-.026-.011l-.026-.01a.122.122 0 0 0-.026-.01l-.026-.008c-.008-.002-.017-.007-.026-.007-.006-.002-.013-.002-.017-.004h-.002l-.009-.002c-.01-.002-.02-.004-.028-.004-.013-.003-.024-.003-.035-.003-.032.003-.058.011-.073.029l-.59.66c.004-.004.015 0 .02-.002-.05.035-.052.115.015.245l4.158 7.952c.15.286.56.687.925.899l4.849 2.8c.251.144.4.149.424.045-.004.015 0 .034-.01.045l.589-.66c.009-.01.013-.02.017-.031.002-.009.005-.017.005-.026l-.005-.03Zm-10.88-11.258c.012 0 .017-.009.034-.005h.002c.004 0 .013.007.017.007-.023-.004-.034 0-.054-.002Zm5.561 3.213c.046.039.091.076.132.117-.04-.041-.088-.078-.132-.117Zm.301.301c.018.022.041.043.059.063-.017-.02-.04-.041-.059-.063Zm4.425 8.409a.381.381 0 0 0-.05-.158c.03.058.047.106.052.145v.002c.002.004-.002.007-.002.01Z" fill="#455A64"/><path opacity=".15" d="M90.785 96.663v-.011c0-.005 0-.009-.002-.013l-.004-.022a.28.28 0 0 1-.007-.022c-.002-.006-.004-.015-.008-.021l-.009-.022a.1.1 0 0 0-.01-.022c-.005-.006-.007-.015-.011-.021v-.002l-4.158-7.952-.59.66 4.158 7.953a.44.44 0 0 1 .052.145v.002c.005.039-.002.07-.02.089l.59-.661c.009-.009.013-.02.017-.03a.108.108 0 0 0 .005-.026c0-.007 0-.016-.002-.024Z" fill="#fff"/><path d="m86.563 88.535-.013-.023a.151.151 0 0 0-.015-.024c-.004-.009-.01-.017-.015-.024l-.017-.026-.018-.026-.02-.026a.226.226 0 0 0-.019-.024c-.006-.008-.013-.015-.017-.024-.007-.006-.01-.015-.017-.021l-.016-.018c-.004-.006-.01-.013-.015-.017a.089.089 0 0 1-.013-.015l-.01-.013-.011-.013c-.005-.004-.009-.009-.011-.013l-.009-.011-.008-.009-.01-.008-.008-.009c-.002-.004-.006-.007-.008-.009l-.01-.008-.006-.009c-.002-.002-.004-.007-.008-.009l-.009-.008a.545.545 0 0 0-.009-.009l-.008-.009-.009-.008-.009-.009-.008-.009-.009-.008-.009-.009-.008-.009-.013-.013-.016-.015a2.171 2.171 0 0 0-.015-.015l-.06-.056a.057.057 0 0 0-.013-.011.059.059 0 0 0-.013-.011.056.056 0 0 0-.013-.01l-.013-.012-.009-.006-.009-.007-.008-.006c-.002-.002-.007-.004-.009-.007l-.009-.006-.008-.007-.009-.006-.009-.007-.008-.006c-.002-.002-.007-.004-.009-.007l-.009-.006-.008-.007-.009-.006a.037.037 0 0 1-.01-.009c-.005-.002-.007-.004-.012-.008l-.01-.01c-.005-.001-.007-.004-.011-.008-.005-.002-.007-.004-.011-.008-.004-.005-.009-.007-.015-.011-.005-.005-.009-.007-.015-.011-.005-.005-.01-.007-.016-.011-.004-.004-.01-.007-.015-.01l-.02-.016-.019-.013-.024-.015c-.008-.007-.017-.011-.026-.017-.008-.007-.017-.011-.026-.018-.008-.006-.02-.01-.028-.017l-.015-.009-4.849-2.8a.045.045 0 0 1-.01-.006c-.01-.004-.02-.01-.029-.015l-.028-.015-.026-.013-.026-.013c-.009-.004-.017-.009-.026-.01l-.026-.012a.122.122 0 0 0-.026-.008c-.009-.002-.017-.007-.026-.009-.009-.002-.017-.007-.026-.007-.007-.002-.013-.002-.017-.004h-.003l-.008-.002c-.011-.002-.02-.004-.028-.004-.014-.002-.024-.002-.035-.002-.033.002-.059.01-.074.028l-.59.66c.027-.028.077-.036.146-.021h.002a.95.95 0 0 1 .267.115l4.849 2.799a2.69 2.69 0 0 1 .541.418c.085.082.16.165.228.247.065.082.121.163.158.234l.59-.66-.014-.025Z" fill="#1A2E35"/><path d="M86.844 96.624c-1.64-1.03-2.862-3.038-2.615-4.958 0 0 3.064 1.61 4.437.75l-.704-1.348c1.874 0 3.911.65 5.33 1.877 2.858-.436 5.83-1.39 8.513-2.468.808-.325 1.612-.68 2.461-.88.85-.2 1.762-.236 2.577.072.816.307 1.516 1.003 1.668 1.863.158.89-.288 1.81-.953 2.422-.666.616-1.521.975-2.375 1.28-3.53 1.264-16.699 2.419-18.339 1.39Z" fill="#FFAAA8"/><path d="M96.676 62.7a4.288 4.288 0 0 1-1.677-2.572 4.293 4.293 0 0 1 .494-3.03c-.462-.222-.908-.59-1.118-1.056a1.27 1.27 0 0 1 .24-1.37 1.266 1.266 0 0 1 1.363-.277c-.284-.697.044-1.644.691-2.023.648-.382 1.567-.21 2.035.377-.03-.48.301-.94.756-1.09.455-.15.958-.067 1.411.089.452.156.881.381 1.339.526.771.245 1.596.25 2.405.308.808.056 1.642.18 2.322.62.681.44 1.281 1.468.915 2.355.229-.29.595-.499.964-.512.37-.013.741.145.99.42-.505.315-.995.65-1.502.965.51-.23 1.268.13 1.543.615.275.486.288 1.073.273 1.63a21.826 21.826 0 0 1-1.118 6.237c-.347 1.04-.845 2.143-1.831 2.622L96.676 62.7Z" fill="#1A2E35"/><path d="m102.039 67.707.223 2.488a.925.925 0 0 1-.141.548c-.279.487-.192 1.265.219 1.625.299.262.713.349 1.112.377 1.534.11 3.098-.55 4.11-1.586.221-.226.334-.535.325-.852l-.163-6.305-5.685 3.705Z" fill="#FFAAA8"/><path opacity=".3" d="m107.222 64.327-5.183 3.38.197 2.206c1.205-.282 2.418-.63 3.372-1.406 1.211-.986 1.841-2.635 1.614-4.18Z" fill="#000"/><path d="M96.388 57.576a22.187 22.187 0 0 0 .56 8.625c.164.614.357 1.227.684 1.773.327.544.804 1.018 1.398 1.241.732.273 1.544.141 2.314.007 1.406-.247 2.851-.51 4.073-1.25 1.222-.74 2.19-2.076 2.073-3.5.713.41 1.612.516 2.336.13a2.48 2.48 0 0 0 1.281-1.98c.054-.797-.408-1.685-1.19-1.844-.479-.097-.979.096-1.363.399-.383.303-.669.709-.949 1.107-.134.19-.273.386-.472.507-.199.12-.477.143-.652-.008-.193-.165-.197-.458-.187-.711l.083-1.805a.72.72 0 0 0-.401-.672c-.368-.186-.648-.53-.808-.93a3.605 3.605 0 0 1-.228-1.085.445.445 0 0 0-.609-.379c-2.424.973-5.444 1.016-7.943.375Z" fill="#FFAAA8"/><path d="m102.536 65.991-1.472.715c.215.334.754.48 1.116.317.362-.163.464-.65.356-1.032Z" fill="#FF9090"/><path d="m106.124 83.979-2.505 6.454 2.763 4.303c4.021-1.826 3.195-1.308 5.975-8.03l-6.233-2.727Z" fill="#FFAAA8"/><path d="M111.525 70.641c-3.018 3.566-4.147 9.694-5.707 13.635 1.742 3.3 6.6 2.979 6.6 2.979 4.446-9.258 6.325-16.241-.893-16.614Z" fill="#1A2E35"/><path d="m12.196 128.844 3.307 1.788a2.15 2.15 0 0 0 2.097-.031l46.598-27.027c.726-.42.711-1.473-.028-1.872l-4.366-2.36-47.636 27.628c-.726.42-.71 1.473.028 1.874Z" fill="#E7E7E7"/><path d="m63.479 3.778.004-.002C63.164 2.66 60.9.538 58.647.583c-.082 0-.487.041-.633.124L14.228 25.615a4.168 4.168 0 0 0-1.683 1.803 4.182 4.182 0 0 0-.434 1.838v94.707c0 2.413 2.782 4.714 5.393 3.607.007-.002.011-.008.017-.013.057-.019.113-.037.167-.067l43.786-24.951a4.192 4.192 0 0 0 2.115-3.638V4.233c0-.167-.043-.319-.11-.455Z" fill="#D268CC"/><path d="m63.479 3.778.004-.002C63.164 2.66 60.9.538 58.647.583c-.082 0-.487.041-.633.124L14.228 25.615a4.168 4.168 0 0 0-1.683 1.803 4.182 4.182 0 0 0-.434 1.838v94.707c0 2.413 2.782 4.714 5.393 3.607.007-.002.011-.008.017-.013.057-.019.113-.037.167-.067l43.786-24.951a4.192 4.192 0 0 0 2.115-3.638V4.233c0-.167-.043-.319-.11-.455Z" fill="#B53133"/><path d="M18.219 39.266c0-.755.405-1.448 1.06-1.82l40.652-23.13a1.047 1.047 0 0 1 1.565.91v76.369c0 .75-.405 1.447-1.058 1.82L19.783 116.58a1.046 1.046 0 0 1-1.564-.91V39.265Z" fill="#1A2E35"/><path opacity=".3" d="M12.111 29.256v94.707c0 2.413 2.782 4.714 5.393 3.607.007-.002.011-.008.017-.013a1.04 1.04 0 0 1-1.397-.977V31.873c0-.839.258-1.638.706-2.312l-4.285-2.14a4.173 4.173 0 0 0-.434 1.835Z" fill="#000"/><path opacity=".1" d="M58.645.582c-.082 0-.487.041-.633.123l-43.784 24.91a4.169 4.169 0 0 0-1.683 1.803l4.286 2.14c.357-.537.83-.996 1.41-1.327L62.025 3.323a1.043 1.043 0 0 1 1.454.453l.004-.003C63.165 2.658 60.898.536 58.645.582Z" fill="#fff"/><path d="M45.253 18.962c.307-.178.563-.04.563.314 0 .353-.251.793-.559.968l-8.59 4.96c-.309.177-.556.028-.558-.325 0-.353.245-.78.553-.958l8.59-4.96ZM34.456 25.195c.307-.178.554-.037.556.317 0 .353-.245.788-.552.966-.308.177-.563.032-.563-.32 0-.354.25-.785.559-.963ZM39.954 18.24c.615-.355 1.11-.071 1.111.633.003.706-.49 1.575-1.105 1.928-.615.356-1.124.065-1.124-.641-.002-.704.505-1.564 1.118-1.92ZM39.959 107.401c1.252-.722 2.262-.148 2.264 1.291.005 1.439-.999 3.207-2.251 3.928-1.25.722-2.288.132-2.292-1.306-.002-1.439 1.027-3.192 2.279-3.913Z" fill="#1A2E35"/><path d="m70.915 19.924.008-.005-2.578-1.365v.011a1.125 1.125 0 0 0-1.24-.084L22.837 43.668a2.278 2.278 0 0 0-1.152 1.983v83.2c0 .504.316.892.728 1.055l-.007.006 2.596 1.393.01.007.042.017c.325.169.726.191 1.09-.015l44.269-25.226a2.29 2.29 0 0 0 1.153-1.983V20.944a1.127 1.127 0 0 0-.65-1.02Z" fill="#D268CC"/><path opacity=".3" d="M71.562 23.848v-2.904c0-.472-.277-.84-.65-1.02l.01-.005-2.58-1.365v.011a1.125 1.125 0 0 0-1.239-.084L22.836 43.668a2.278 2.278 0 0 0-1.152 1.983v3.815l2.753 1.59 47.125-27.208Z" fill="#fff"/><path d="m70.915 19.924.008-.005-2.578-1.365v.011a1.125 1.125 0 0 0-1.24-.084L22.837 43.668a2.278 2.278 0 0 0-1.152 1.983v83.2c0 .504.316.892.728 1.055l-.007.006 2.596 1.393.01.007.042.017c.325.169.726.191 1.09-.015l44.269-25.226a2.29 2.29 0 0 0 1.153-1.983v-83.16a1.127 1.127 0 0 0-.65-1.021Z" fill="#B53133"/><path d="M21.684 45.648v83.2c0 .505.316.893.728 1.056l-.007.006 2.596 1.393a1.129 1.129 0 0 1-.564-.983v-83.2c0-.312.063-.613.182-.89l-2.708-1.565a2.282 2.282 0 0 0-.227.983Z" fill="#912829"/><path opacity=".4" d="M68.342 18.554v.011a1.125 1.125 0 0 0-1.24-.084L22.836 43.668a2.273 2.273 0 0 0-.925.999l2.709 1.564c.192-.453.528-.84.97-1.092l44.27-25.185a1.12 1.12 0 0 1 1.055-.03l.008-.005-2.58-1.365Z" fill="#fff"/><path d="M37.927 46.437c5.842-3.371 10.589-.665 10.608 6.043.02 6.708-4.7 14.88-10.538 18.252-5.837 3.371-10.587.665-10.606-6.045-.02-6.708 4.697-14.88 10.536-18.25Z" fill="#fff"/><path d="M43.275 52.697a2.872 2.872 0 0 0 1.118-1.714 2.859 2.859 0 0 0-.33-2.02c.308-.147.605-.392.746-.702a.847.847 0 0 0-.16-.912.844.844 0 0 0-.908-.184c.188-.463-.029-1.094-.462-1.347a1.09 1.09 0 0 0-1.356.25.736.736 0 0 0-.505-.725c-.303-.1-.637-.046-.94.058-.302.104-.588.254-.893.351-.514.163-1.064.167-1.601.204-.538.04-1.094.12-1.547.412-.453.292-.854.98-.61 1.569a.89.89 0 0 0-.643-.34.86.86 0 0 0-.658.279c.336.208.663.433.999.641-.338-.152-.845.087-1.027.41-.185.322-.193.715-.182 1.085.04 1.41.299 2.815.745 4.154.23.693.77 1.564 1.426 1.883l6.788-3.352Z" fill="#37474F"/><path d="m42.176 57.998 1.599 1.368.845 4.849a25.556 25.556 0 0 0 1.835-3.255c-.732-1.85-1.315-2.962-4.28-2.962Z" fill="#EBEBEB"/><path d="M37.996 70.732c2.743-1.584 5.24-4.227 7.111-7.278-.154-2.626-.541-5.453-2.931-5.453l-7.1.05-1.45.153-.685 13.971c1.504.072 3.227-.388 5.055-1.443Z" fill="#37474F"/><path d="M41.014 58.943c.663 2.113.247 5.06 0 6.385-1.681-2.314-3.254-4.632-3.748-5.54l2.344-1.14 1.404.295Z" fill="#EBEBEB"/><path d="m40.035 60.885.579-.14s.429 1.089.706 2.263a21.887 21.887 0 0 1-.306 2.32c-.329-.455-.654-.907-.968-1.352.065-.758.13-2.012-.01-3.091Z" fill="#455A64"/><path opacity=".2" d="m40.048 61.006-.013-.121.579-.14.032.088a.746.746 0 0 1-.33.173.744.744 0 0 1-.268 0Z" fill="#000"/><path d="m39.724 59.368-.457-.293-1.062.579c.466.427 1.255.496 1.255.496l.264-.782ZM40.428 59.255l.138-.312.536.336c-.104.349-.35.51-.35.51l-.324-.534Z" fill="#455A64"/><path opacity=".2" d="m39.724 59.368-.457-.293-1.062.579c.466.427 1.255.496 1.255.496l.264-.782ZM40.428 59.255l.138-.312.536.336c-.104.349-.35.51-.35.51l-.324-.534Z" fill="#000"/><path d="M39.459 60.15c.045-.269.134-.542.264-.782l.702-.113c.128.163.24.347.328.533.034.5-.14.958-.14.958-.261.147-.578.139-.578.139-.418-.26-.576-.735-.576-.735Z" fill="#455A64"/><path d="M39.97 59.12c-1.115-.019-1.795.87-2.816 1.173l-2.08-2.245.806-1.198c.16-.238.37-.442.613-.596l.01.434a.745.745 0 0 0 .365.624l3.103 1.809Z" fill="#E0E0E0"/><path d="M39.97 59.12c.62-.192 1.546.584 1.546.584-.325-1.794-1.303-2.498-1.543-2.498l-.002 1.915Z" fill="#E0E0E0"/><path d="m33.627 58.202-.964.154a2.836 2.836 0 0 0-2.32 2.232c-.891 4.272-.627 8.172-.627 8.172l4.396-2.023c.464-3.437 1.365-6.275-.485-8.535Z" fill="#EBEBEB"/><path d="m34.066 68.264.017-.381a.264.264 0 0 1 .087-.182.256.256 0 0 0 .087-.195v-.64a.311.311 0 0 0-.316-.31c-1.992.027-3.924.974-4.45 2.087-.218.464 0 1.077 0 1.077-.345.45-.18.683.001 1.003.18.174.37.33.57.473 1.29-2.072 4.004-2.932 4.004-2.932Z" fill="#E0E0E0"/><path opacity=".2" d="M32.008 67.818c-.943.362-1.987 1.235-2.516 1.902 0 0-.054-.151-.08-.362.33-.411 1.044-1.17 2.596-1.54ZM34.245 67.582a.246.246 0 0 1-.073.117.256.256 0 0 0-.087.182l-.002.03a6.594 6.594 0 0 0-3.673 1.861c.919-1.332 2.938-2.015 3.835-2.19Z" fill="#000"/><path d="M37.997 70.732c1.62-.936 3.154-2.242 4.524-3.783-2.55.015-6.108.156-8.437.962l-.018.351s-2.715.86-4.002 2.934c1.944 1.401 4.778 1.356 7.933-.464Z" fill="#FFAAA8"/><path opacity=".2" d="m34.258 68.273.046-.433c-.074.023-.15.047-.221.071l-.018.351s-.842.266-1.813.86a2.536 2.536 0 0 0-.416.81c.53-.751 1.114-1.053 2.247-1.343 1.031.158 2.827.919 4.654 1.68.175-.116.349-.235.52-.358-2.193-.763-4.427-1.6-4.999-1.638Z" fill="#000"/><path d="m37.777 56.334-.032-.017a1.816 1.816 0 0 1-.934-1.2c-.059-.256-.11-.514-.15-.771-.037-.237-.208-.007-.208-.007a2579.578 2579.578 0 0 0 .052 2.35.74.74 0 0 0 .366.623l3.099 1.807v-1.552l.004-.652c-.77-.054-1.553-.242-2.197-.58Z" fill="#FFAAA8"/><path opacity=".2" d="M37.336 56.289a2.064 2.064 0 0 1-.38-.795c.17.346.443.637.792.821.01.007.022.01.033.017.64.338 1.427.527 2.197.583l-.003.561a5.628 5.628 0 0 1-1.297-.273c-.52-.182-1.004-.48-1.342-.914Z" fill="#000"/><path d="M43.465 49.284a14.799 14.799 0 0 1-.373 5.744c-.108.41-.238.817-.454 1.179-.22.361-.536.678-.932.827-.488.182-1.03.096-1.54.005-.937-.165-1.899-.34-2.713-.832-.815-.492-1.46-1.383-1.38-2.332-.475.273-1.075.345-1.556.087a1.65 1.65 0 0 1-.854-1.32c-.037-.53.271-1.122.793-1.228.319-.065.652.063.908.264.256.202.446.473.633.74.089.127.182.257.314.337.132.08.316.095.435-.004.128-.11.133-.306.124-.475l-.054-1.202a.482.482 0 0 1 .266-.449c.245-.125.431-.353.54-.62.093-.229.132-.474.151-.723a.295.295 0 0 1 .405-.251c1.613.652 3.623.68 5.287.253Z" fill="#FFAAA8"/><path d="M39.373 54.89c.327.157.652.318.98.476-.144.223-.501.319-.744.21-.24-.108-.308-.433-.236-.687Z" fill="#FF9090"/><path d="M39.95 55.609a.582.582 0 0 1-.34-.033l.34.033Z" fill="#FF9090"/><path d="m57.183 49.943.002 1.027-4.587 2.648-.004-1.025 4.589-2.65ZM59.599 54.848l.002 1.027-6.986 4.032-.002-1.024 6.986-4.035ZM61.885 51.436l.004 1.025-9.28 5.355-.002-1.024 9.278-5.356ZM65.503 43.046l.002 1.025-12.913 7.456-.002-1.025 12.913-7.456ZM68.058 39.458l.005 1.025-15.477 8.936-.002-1.025 15.474-8.936ZM64.838 37.426l.004 2.054-12.263 7.08-.007-2.053 12.266-7.081Z" fill="#fff"/><path d="M26.941 78.703v49.27l18.166-10.35V68.221L26.94 78.703ZM69.058 54.402 46.271 67.547v49.411l22.787-12.985V54.402Z" fill="#D268CC"/><path d="M26.941 78.703v49.27l18.166-10.35V68.221L26.94 78.703ZM69.058 54.402 46.271 67.547v49.411l22.787-12.985V54.402Z" fill="#912829"/><path d="m60.139 97.362.002.887-10.78 6.222-.002-.886 10.78-6.222ZM66.047 92.31l.003.888-16.692 9.637-.002-.888 16.691-9.637ZM57.195 95.78l.002.887-7.845 4.528-.002-.884 7.845-4.53ZM66.038 89.038l.002.884-16.692 9.638-.002-.885 16.692-9.637ZM66.034 87.398l.002.888-16.692 9.638-.002-.889 16.692-9.637ZM53.36 90.733l.002.89-4.028 2.325-.002-.888 4.028-2.328ZM66.018 81.786l.003.884-16.692 9.638-.005-.884 16.694-9.638ZM66.012 80.15l.005.884-16.694 9.638-.003-.884 16.692-9.638ZM66.008 78.515l.003.884-16.692 9.637-.003-.884 16.692-9.637ZM60.084 77.973l.002.884-10.78 6.223-.001-.884 10.779-6.223ZM65.993 72.918l.002.888-16.692 9.638-.002-.889 16.692-9.637ZM65.989 71.282l.002.886-16.692 9.638-.002-.886 16.692-9.638ZM65.98 68.008l.001.889-16.691 9.637-.005-.888 16.694-9.638ZM65.983 69.647l.002.886-16.692 9.637-.004-.886 16.694-9.638ZM63.477 62.284l.002.886-14.211 8.203-.002-.884 14.21-8.205ZM64.487 64.977l.003.889-15.212 8.783-.003-.888 15.212-8.784ZM59.282 66.344l.002.887-10.012 5.778-.002-.884 10.012-5.78ZM65.954 59.216l.002.884-16.692 9.637-.002-.883 16.692-9.638ZM66.069 100.556l.002.886-16.692 9.638-.002-.887 16.692-9.637ZM57.228 107.301l.002.884-7.845 4.53-.002-.886 7.845-4.528ZM61.866 101.345l.002.886-12.493 7.213-.002-.886 12.493-7.213ZM66.061 97.282l.002.889-16.692 9.637-.002-.888 16.692-9.638ZM40.506 74.825l.004 1.707-11.314 6.517-.005-1.707 11.315-6.517ZM38.938 78.985l.003.851-9.737 5.61-.005-.852 9.74-5.61ZM43.414 110.044l.004 1.705-4.175 2.412-.007-1.706 4.178-2.411ZM35.322 96.381l.004 1.703-6.075 3.497-.007-1.705 6.078-3.495ZM39.024 109.169l.002.851-9.737 5.61-.002-.852 9.737-5.609ZM40.596 106.684l.002.851-11.315 6.519-.002-.851 11.315-6.519ZM43.324 103.529l.002.854-14.047 8.096-.002-.853 14.047-8.097ZM40.582 101.858l.004 1.706-11.312 6.519-.005-1.705 11.313-6.52ZM41.59 97.594l.003.852-12.333 7.107-.002-.852 12.332-7.107ZM39.296 97.34l.003.855-10.043 5.785-.002-.854 10.042-5.785ZM43.29 91.779l.007 1.705-6.775 3.911-.006-1.703 6.775-3.913ZM39.958 88.453l.002.852-10.727 6.181-.003-.851 10.728-6.182ZM41.015 89.422l.002.853-11.78 6.79-.003-.855 11.78-6.788ZM42.346 85.498l.002.851-13.12 7.564-.001-.853 13.119-7.562ZM40.53 83.29l.003 1.705-11.312 6.52-.006-1.706 11.314-6.519ZM35.69 82.439l.002.851-6.483 3.731-.002-.854 6.483-3.728ZM41.7 115.866l.002.854-12.39 7.139-.002-.852 12.39-7.141ZM39.774 115.398l.002.856-10.467 6.032-.002-.856 10.467-6.032ZM37.634 113.381l.007 1.703-8.34 4.803-.006-1.705 8.34-4.801Z" fill="#fff"/></svg>
