<svg width="14" height="14" fill="none" xmlns="http://www.w3.org/2000/svg"><path fill-rule="evenodd" clip-rule="evenodd" d="M7 8.414l-5.293 5.293a1.004 1.004 0 01-.537.278c-.06.01-.075.01-.136.014H.966c-.06-.004-.076-.003-.136-.014a1.003 1.003 0 01-.83-1.02 1.003 1.003 0 01.203-.57c.037-.048.049-.058.09-.102L5.586 7 .293 1.707c-.041-.044-.053-.054-.09-.103A1.002 1.002 0 01.83.014a1.004 1.004 0 01.774.19c.049.036.059.047.103.089L7 5.586 12.293.293c.044-.042.054-.053.103-.09a1.003 1.003 0 011.261.043c.261.228.387.583.329.924a1.003 1.003 0 01-.19.434c-.036.049-.047.059-.089.103L8.414 7l5.293 5.293c.042.044.053.054.09.103a1 1 0 01-.627 1.59c-.06.01-.075.01-.136.013h-.068c-.06-.004-.076-.003-.136-.014a1.004 1.004 0 01-.537-.278L7 8.414z" fill="#fff"/></svg>