<svg width="16" height="19" viewBox="0 0 16 19" fill="none" xmlns="http://www.w3.org/2000/svg"><path d="M8.29 18.758l-.137-.061a24.039 24.039 0 01-3.546-2.009C2.195 15.021.97 13.384.97 11.823v-8.2l7.32-2.77 7.32 2.77v8.2c0 1.561-1.224 3.198-3.636 4.866a24.034 24.034 0 01-3.547 2.008l-.137.06zM1.649 4.086v7.737c0 1.653 1.815 3.255 3.338 4.309A24.05 24.05 0 008.29 18.02a24.034 24.034 0 003.306-1.888c1.522-1.054 3.337-2.656 3.337-4.309V4.086L8.291 1.57 1.648 4.086z" fill="url(#paint0_linear_225_100)"/><path d="M8.193 12.886l-2.484-2.51.483-.47 1.915 1.935 3.418-4.816.554.386-3.886 5.475z" fill="url(#paint1_linear_225_100)"/><defs><linearGradient id="paint0_linear_225_100" x1=".971" y1="9.805" x2="15.611" y2="9.805" gradientUnits="userSpaceOnUse"><stop stop-color="#B53133"/><stop offset="1" stop-color="#912829"/></linearGradient><linearGradient id="paint1_linear_225_100" x1="5.709" y1="9.956" x2="12.079" y2="9.956" gradientUnits="userSpaceOnUse"><stop stop-color="#B53133"/><stop offset="1" stop-color="#912829"/></linearGradient></defs></svg>
