<svg width="14" height="18" viewBox="0 0 14 18" fill="none" xmlns="http://www.w3.org/2000/svg">
<path d="M1.45558 0.822329H12.3503C12.6675 0.822329 12.9251 1.09559 12.9251 1.43159V11.3591H13.642V1.43159C13.642 0.676884 13.0629 0.0634766 12.3503 0.0634766H1.45558C0.74324 0.0634766 0.164062 0.676884 0.164062 1.43159V16.0393C0.164062 16.794 0.74324 17.4074 1.45558 17.4074H7.95015V16.6486H1.45558C1.13858 16.6486 0.880812 16.3753 0.880812 16.0393V1.43159C0.880812 1.09559 1.13858 0.822329 1.45558 0.822329Z" fill="#B53133"/>
<path d="M2.9553 5.11131H10.8513C11.0496 5.11131 11.2102 4.94124 11.2102 4.7315V4.0512C11.2102 3.84094 11.0496 3.67139 10.8513 3.67139H2.9553C2.75726 3.67139 2.59668 3.84094 2.59668 4.0512V4.7315C2.59668 4.94124 2.75726 5.11131 2.9553 5.11131ZM3.02702 4.12716H10.7798V4.65553H3.02702V4.12716Z" fill="#B53133"/>
<path d="M2.9553 7.49168H10.8513C11.0496 7.49168 11.2102 7.32161 11.2102 7.11187V6.43157C11.2102 6.22183 11.0496 6.05176 10.8513 6.05176H2.9553C2.75726 6.05176 2.59668 6.22183 2.59668 6.43157V7.11187C2.59668 7.32135 2.75726 7.49168 2.9553 7.49168ZM3.02702 6.50754H10.7798V7.03591H3.02702V6.50754Z" fill="#B53133"/>
<path d="M11.2099 9.49224V8.81194C11.2099 8.6022 11.0493 8.43213 10.8511 8.43213H2.9553C2.75726 8.43213 2.59668 8.6022 2.59668 8.81194V9.49224C2.59668 9.70198 2.75726 9.87206 2.9553 9.87206H10.8513C11.0493 9.87206 11.2099 9.70198 11.2099 9.49224ZM10.7798 9.41628H3.02702V8.88791H10.7798V9.41628Z" fill="#B53133"/>
<path d="M9.44043 16.2027V17.2395C9.44043 17.3299 9.50995 17.4036 9.59538 17.4036H13.4403C13.5258 17.4036 13.5953 17.3299 13.5953 17.2395V16.2027C13.5953 16.1122 13.5258 16.0386 13.4403 16.0386H13.0616C12.9762 16.0386 12.9069 16.1122 12.9069 16.2027V16.6735H10.1285V16.2027C10.1285 16.1122 10.059 16.0386 9.97359 16.0386H9.59489C9.50971 16.0386 9.44043 16.1122 9.44043 16.2027ZM9.62745 16.2366H9.94127V16.7725C9.94127 16.8272 9.98313 16.8716 10.0348 16.8716H13.0002C13.0518 16.8716 13.0937 16.8272 13.0937 16.7725V16.2366H13.4075V17.205H9.62696V16.2366H9.62745Z" fill="#912829"/>
<path d="M10.924 13.3604H12.1113C12.2023 13.3604 12.2765 13.2821 12.2765 13.1856V12.8437C12.2765 12.7472 12.2023 12.6689 12.1113 12.6689H10.924C10.833 12.6689 10.7588 12.7472 10.7588 12.8437V13.1856C10.7588 13.2818 10.833 13.3604 10.924 13.3604ZM10.9461 12.8668H12.0892V13.1621H10.9461V12.8668Z" fill="#912829"/>
<path d="M10.7493 14.3017H10.1424C10.0425 14.3017 9.95564 14.3526 9.92137 14.4314C9.8942 14.4938 9.90399 14.5638 9.94805 14.6186L10.6354 15.472L11.323 16.3255C11.3669 16.38 11.4379 16.4111 11.5174 16.4113H11.5177C11.5972 16.4113 11.6682 16.38 11.7123 16.3255L13.0875 14.6186C13.1313 14.5638 13.1414 14.4941 13.1142 14.4314C13.0799 14.3526 12.993 14.3017 12.8931 14.3017H12.2657V13.6958C12.2657 13.6054 12.1962 13.5317 12.111 13.5317H10.9042C10.8188 13.5317 10.7495 13.6054 10.7495 13.6958V14.3017H10.7493ZM10.8428 14.4998C10.8944 14.4998 10.9363 14.4555 10.9363 14.4008V13.7298H12.0782V14.4008C12.0782 14.4555 12.1201 14.4998 12.1717 14.4998H12.8926C12.9088 14.4998 12.9218 14.5032 12.9308 14.5068L11.5698 16.1964C11.5644 16.2031 11.5446 16.2125 11.5177 16.2125C11.4907 16.2125 11.4709 16.2029 11.4655 16.1964L10.7779 15.3429L10.1042 14.5068C10.1133 14.5029 10.126 14.4998 10.1424 14.4998H10.8428Z" fill="#912829"/>
</svg>
