<svg width="20" height="21" viewBox="0 0 20 21" fill="none" xmlns="http://www.w3.org/2000/svg"><path d="M.506 15.61v4.335c0 .377.317.685.707.685H18.77c.39 0 .708-.308.708-.685V15.61a.698.698 0 00-.708-.686h-1.729a.698.698 0 00-.707.686v1.969H3.65V15.61a.698.698 0 00-.707-.686H1.213a.698.698 0 00-.707.686zm.855.143h1.433v2.24c0 .229.192.414.427.414h13.542a.421.421 0 00.428-.414v-2.24h1.433v4.049H1.361v-4.049zM7.282 3.725h5.422a.744.744 0 00.754-.731v-1.43a.744.744 0 00-.754-.731H7.282a.743.743 0 00-.755.731v1.43c0 .403.339.731.755.731zm.1-2.063h5.22v1.235h-5.22V1.662z" fill="#912829"/><path d="M6.484 7.66h-2.77c-.457 0-.853.213-1.01.543a.701.701 0 00.122.782l3.139 3.569 3.14 3.568c.2.228.524.358.888.359.364 0 .688-.131.889-.359l6.28-7.137c.2-.228.245-.52.12-.782-.156-.33-.552-.542-1.009-.542h-2.865V5.128a.698.698 0 00-.707-.687h-5.51a.697.697 0 00-.707.687V7.66zm.428.83a.421.421 0 00.427-.415V5.27h5.214v2.805c0 .23.192.415.428.415h3.292a.48.48 0 01.174.03l-6.215 7.064c-.025.028-.115.068-.238.068-.124 0-.214-.04-.238-.068l-3.14-3.568L3.538 8.52c.041-.016.1-.03.175-.03h3.198z" fill="#912829"/></svg>
