<svg width="235" height="217" viewBox="0 0 235 217" fill="none" xmlns="http://www.w3.org/2000/svg"><path d="M38.13 201.062c41.378 21.155 108.463 21.155 149.838 0 41.378-21.155 41.378-55.452 0-76.607-41.377-21.155-108.462-21.155-149.837 0-41.378 21.155-41.378 55.452 0 76.607Z" fill="#F5F5F5"/><path opacity=".47" d="M153.94 118.89c-8.182-10.838-8.025-27.195.363-37.873 5.695-7.25 14.507-11.842 19.17-19.794 4.782-8.16 4.33-18.35 7.68-27.195 4.94-13.038 18.842-22.09 32.762-21.335-8.28 5.47-10.185 17.902-7.955 27.572 2.23 9.67 6.78 19.02 6.418 28.938-.35 9.594-5.378 18.54-12.013 25.48-6.635 6.937-14.83 12.152-22.937 17.297-3.743 2.375-7.568 4.785-11.865 5.875-4.293 1.087-8.95 4.572-11.623 1.035Z" fill="#C7DAFB"/><path opacity=".1" d="M166.501 122.205a165.61 165.61 0 0 0 15.192-24.88.879.879 0 0 0 .14-.282c1.368-2.77 2.66-5.578 3.87-8.418a54.496 54.496 0 0 0 16.633-11.862.892.892 0 0 0-.03-1.243.88.88 0 0 0-1.243.03 52.733 52.733 0 0 1-14.345 10.638 165.75 165.75 0 0 0 5.885-17.068.81.81 0 0 0 .11-.083c4.518-4.162 8.7-8.747 12.43-13.627a.878.878 0 0 0-.165-1.232.877.877 0 0 0-1.232.165 105.1 105.1 0 0 1-10.255 11.532c2.225-8.45 3.79-17.09 4.657-25.847a.881.881 0 0 0-.787-.963.882.882 0 0 0-.963.788 163.85 163.85 0 0 1-2.395 16.03l-5.32-13.355a.88.88 0 0 0-1.632.652l6.197 15.555c.03.075.073.14.118.203a164.695 164.695 0 0 1-4.72 17.004 119.903 119.903 0 0 1-10.57-16.162.879.879 0 1 0-1.545.84c3.3 6.07 7.145 11.895 11.432 17.315a165.748 165.748 0 0 1-3.675 9.53.878.878 0 0 0-.167.4 165.765 165.765 0 0 1-3.303 7.27 81.535 81.535 0 0 1-8.967-14.76.883.883 0 0 0-1.17-.422.881.881 0 0 0-.423 1.17 83.26 83.26 0 0 0 9.69 15.767 163.943 163.943 0 0 1-14.86 24.267.882.882 0 0 0 .183 1.23.874.874 0 0 0 1.23-.182Z" fill="#000"/><path opacity=".1" d="M212.383 69.203c.045-1.26.013-2.513-.085-3.758a58.204 58.204 0 0 0-33.607 14.19c-12.395 10.837-19.835 24.575-20.175 40.625 2.197-.475 4.682-1.808 7.055-2.407 4.297-1.09 8.122-3.5 11.865-5.875 8.107-5.145 16.3-10.358 22.937-17.298 6.633-6.938 11.658-15.885 12.01-25.478Z" fill="#E4E5E6"/><path d="M159.322 125.162c16.148.845 32.533-3.702 45.933-12.75 13.4-9.047 23.742-22.544 28.995-37.837-17.108-5.153-35.645-2.13-50.253 8.16-14.605 10.29-23.767 24.585-24.675 42.427Z" fill="#C2C4C6"/><path opacity=".1" d="M151.758 131.877a172.028 172.028 0 0 1 20.715-22.115.922.922 0 0 1 .242-.217c2.398-2.138 4.85-4.21 7.36-6.21 1.128-6.992 3.635-13.882 7.275-19.95a.929.929 0 0 1 1.253-.315c.432.26.572.82.315 1.253a54.836 54.836 0 0 0-6.683 17.319 172.331 172.331 0 0 1 15.468-10.624.91.91 0 0 1 .052-.133c2.92-5.68 6.353-11.14 10.208-16.23a.913.913 0 1 1 1.457 1.102 109.512 109.512 0 0 0-8.71 13.468 172.066 172.066 0 0 1 24.603-11.828.914.914 0 0 1 .66 1.706 169.844 169.844 0 0 0-15.395 6.842l14.852 1.63a.911.911 0 0 1 .808 1.007.911.911 0 0 1-1.008.808l-17.3-1.897a.937.937 0 0 1-.235-.063 170.555 170.555 0 0 0-15.727 9.442 124.792 124.792 0 0 0 19.122 6.11.913.913 0 1 1-.415 1.78 126.316 126.316 0 0 1-20.515-6.654 171.089 171.089 0 0 0-8.527 6.322.945.945 0 0 1-.353.28 171.913 171.913 0 0 0-6.367 5.322 84.737 84.737 0 0 0 17.27 4.893.914.914 0 0 1-.308 1.802 86.61 86.61 0 0 1-18.482-5.337 170.339 170.339 0 0 0-20.195 21.612.913.913 0 1 1-1.44-1.125Z" fill="#000"/><path opacity=".47" d="M65.707 177.482c6.695-8.865 6.565-22.25-.297-30.985-4.66-5.932-11.87-9.687-15.685-16.195-3.913-6.677-3.543-15.015-6.285-22.25-4.04-10.665-15.418-18.075-26.805-17.457 6.775 4.475 8.332 14.647 6.51 22.56-1.825 7.912-5.548 15.562-5.253 23.677.288 7.85 4.398 15.17 9.828 20.848 5.43 5.677 12.135 9.942 18.767 14.152 3.063 1.943 6.193 3.915 9.708 4.808 3.515.885 7.327 3.737 9.512.842Z" fill="#D1D3D4"/><path opacity=".1" d="M55.43 180.198A135.504 135.504 0 0 1 43 159.843a.741.741 0 0 1-.116-.23 132.859 132.859 0 0 1-3.165-6.888 44.587 44.587 0 0 1-13.607-9.707.729.729 0 0 1 .025-1.018.72.72 0 0 1 1.017.025 43.158 43.158 0 0 0 11.738 8.705 135.725 135.725 0 0 1-4.815-13.962.773.773 0 0 1-.09-.068 87.464 87.464 0 0 1-10.17-11.15.715.715 0 0 1 .135-1.007.717.717 0 0 1 1.007.135 86.124 86.124 0 0 0 8.39 9.435 135.574 135.574 0 0 1-3.81-21.148.72.72 0 0 1 1.433-.142c.437 4.412 1.092 8.79 1.96 13.115l4.352-10.925a.72.72 0 1 1 1.338.532l-5.07 12.728a.767.767 0 0 1-.095.165 134.48 134.48 0 0 0 3.862 13.912 98.106 98.106 0 0 0 8.648-13.225.718.718 0 0 1 .975-.287c.35.19.477.627.287.975a99.534 99.534 0 0 1-9.355 14.167 135.73 135.73 0 0 0 3.008 7.798c.072.097.12.207.137.327a133.542 133.542 0 0 0 2.703 5.948 66.688 66.688 0 0 0 7.337-12.075.72.72 0 0 1 1.303.612 68.126 68.126 0 0 1-7.928 12.9 134.092 134.092 0 0 0 12.158 19.855.72.72 0 0 1-.15 1.008.735.735 0 0 1-1.013-.155Z" fill="#000"/><path opacity=".1" d="M17.892 136.83a26.805 26.805 0 0 1 .07-3.075 47.626 47.626 0 0 1 27.497 11.61c10.142 8.868 16.23 20.107 16.508 33.24-1.8-.39-3.83-1.478-5.773-1.97-3.515-.893-6.645-2.865-9.708-4.808-6.632-4.207-13.337-8.474-18.767-14.152-5.428-5.675-9.54-12.995-9.828-20.845Z" fill="#000"/><path d="M61.304 182.617c-13.212.693-26.617-3.03-37.58-10.432C12.76 164.782 4.297 153.74.002 141.227a47.593 47.593 0 0 1 41.115 6.675c11.947 8.418 19.442 20.115 20.187 34.715Z" fill="#B6B8BA"/><path opacity=".1" d="M67.492 188.11a140.98 140.98 0 0 0-16.947-18.095.705.705 0 0 0-.2-.178 138.757 138.757 0 0 0-6.023-5.08 46.367 46.367 0 0 0-5.952-16.322.76.76 0 0 0-1.025-.258.747.747 0 0 0-.258 1.025 44.916 44.916 0 0 1 5.468 14.17A140.73 140.73 0 0 0 29.9 154.68a.782.782 0 0 0-.043-.108 90.889 90.889 0 0 0-8.35-13.28.747.747 0 1 0-1.192.903 89.764 89.764 0 0 1 7.127 11.02 140.746 140.746 0 0 0-20.13-9.678.75.75 0 0 0-.967.428.75.75 0 0 0 .427.967c4.3 1.66 8.503 3.53 12.595 5.598l-12.152 1.332a.75.75 0 0 0 .162 1.488l14.155-1.553a.79.79 0 0 0 .193-.05 139.196 139.196 0 0 1 12.867 7.725 101.7 101.7 0 0 1-15.645 4.998.748.748 0 1 0 .338 1.457 103.271 103.271 0 0 0 16.785-5.445 140.02 140.02 0 0 1 6.977 5.175c.078.1.175.178.29.228 1.773 1.41 3.508 2.86 5.21 4.355a69.25 69.25 0 0 1-14.13 4.002.748.748 0 0 0 .253 1.473 70.79 70.79 0 0 0 15.122-4.368 139.265 139.265 0 0 1 16.523 17.683.746.746 0 0 0 1.05.127.744.744 0 0 0 .127-1.047Z" fill="#000"/><path fill-rule="evenodd" clip-rule="evenodd" d="M163.118 1.88 52.593 65.692c-3.905 2.256-7.103 7.768-7.103 12.25l.533 120.575c0 4.483 3.195 6.303 7.102 4.048l110.525-63.813c3.905-2.255 7.103-7.767 7.103-12.247L170.22 5.93c-.002-4.483-3.197-6.305-7.102-4.05Z" fill="#E4E5E6"/><path fill-rule="evenodd" clip-rule="evenodd" d="M161.803 2.892 53.93 65.172c-3.812 2.203-6.932 7.58-6.932 11.956l.18 119.289c0 4.375 3.117 6.153 6.933 3.953l107.872-62.28c3.813-2.203 6.933-7.58 6.933-11.955l-.18-119.29c0-4.378-3.118-6.155-6.933-3.953Z" fill="#fff"/><path fill-rule="evenodd" clip-rule="evenodd" d="M161.803 2.892 53.93 65.172c-3.812 2.203-6.932 7.58-6.932 11.956v19.984l121.735-70.284V6.841c.003-4.375-3.115-6.152-6.93-3.95Z" fill="#B53133"/><path fill-rule="evenodd" clip-rule="evenodd" d="M74.103 70.343c1.165-.673 2.115-2.31 2.115-3.645s-.95-1.878-2.115-1.205c-1.165.672-2.113 2.31-2.113 3.645 0 1.337.95 1.877 2.113 1.204ZM65.65 75.225c1.165-.672 2.112-2.31 2.112-3.645s-.95-1.877-2.112-1.205c-1.165.672-2.113 2.31-2.113 3.645s.948 1.877 2.113 1.205ZM57.195 80.105c1.163-.672 2.113-2.31 2.113-3.645s-.95-1.877-2.113-1.205c-1.165.672-2.115 2.31-2.115 3.645.003 1.337.953 1.877 2.115 1.205Z" fill="#F0F4FF"/><path d="m68.748 152.892 7.623 4.678 17.817-19.083 7.105-25.775a2.578 2.578 0 0 0-1.14-2.887l-4.677-2.87a2.564 2.564 0 0 0-2.605-.045l-21.968 12.44a4.246 4.246 0 0 0-2.155 3.695v29.847Z" fill="#E4E5E6"/><path d="m76.371 157.57 25.44-14.405v-30.177c0-.96-1.035-1.563-1.867-1.09l-21.415 12.127a4.246 4.246 0 0 0-2.155 3.695v29.85h-.003Z" fill="#912829"/><path d="M86.031 133.095c0-2.24 1.43-4.867 3.193-5.867 1.762-.998 3.192.007 3.192 2.25 0 1.585-.722 3.355-1.767 4.612l1.025 5.145-4.903 2.778 1.025-6.305c-1.042-.078-1.765-1.028-1.765-2.613Z" fill="#fff"/><path d="M78.445 120.415c.905 0 1.638-.732 1.638-1.637v-11.055c0-3.915 2.635-8.633 5.755-10.298 1.13-.605 2.142-.703 2.855-.275.862.517 1.357 1.795 1.357 3.503v11.055c0 .905.733 1.637 1.638 1.637.904 0 1.637-.732 1.637-1.637v-11.055c0-2.888-1.075-5.186-2.948-6.31-1.734-1.043-3.894-.973-6.08.194-4.197 2.243-7.484 8.036-7.484 13.186v11.055a1.632 1.632 0 0 0 1.632 1.637Z" fill="#912829"/><path d="M135.922 85.452c1.555-2.06 2.58-4.502 2.58-6.502 0-3.175-2.582-4.048-5.755-1.95-3.172 2.097-5.755 6.387-5.755 9.56 0 2 1.028 3.085 2.58 3.09-3.515 3.622-6.035 8.662-6.035 12.622l1.535-1.015c0-4.232 3.443-9.95 7.675-12.747 4.233-2.798 7.675-1.63 7.675 2.6l1.535-1.015c0-3.96-2.52-5.67-6.035-4.643Zm-3.175 1.523c-2.327 1.537-4.22.897-4.22-1.43 0-2.328 1.893-5.473 4.22-7.013 2.328-1.537 4.22-.897 4.22 1.43 0 2.33-1.892 5.475-4.22 7.013Z" fill="#B53133"/><path d="m162.48 90.52-53.55 30.917v-7.525l53.55-30.917v7.525ZM162.48 102.742l-53.55 30.918v-7.523l53.55-30.917v7.522Z" fill="#E4E5E6"/><path d="M127.463 120.822a1.606 1.606 0 1 0 0-3.215 1.608 1.608 0 0 0 0 3.215ZM133.488 117.285a1.608 1.608 0 1 0 0-3.216 1.608 1.608 0 0 0 0 3.216ZM141.121 112.195c-.032.887.853 1.58-.035 1.55a1.611 1.611 0 0 1-1.55-1.665 1.61 1.61 0 0 1 1.665-1.55c.888.03-.047.777-.08 1.665ZM145.541 110.205a1.608 1.608 0 1 0 0-3.216 1.608 1.608 0 0 0 0 3.216ZM151.565 106.667a1.607 1.607 0 1 0 0-3.214 1.607 1.607 0 0 0 0 3.214Z" fill="#B53133"/><path d="m156.528 125.727-36.895 21.303a1.137 1.137 0 0 1-1.705-.985v-7.22c0-.405.217-.783.567-.985l36.895-21.3a1.137 1.137 0 0 1 1.705.985v7.217c0 .405-.217.783-.567.985Z" fill="#912829"/><path d="M129.553 138.69v-4.375l1.03-.595v3.42l1.467-.848v.955l-2.497 1.443ZM136.231 132.64c0 .735-.158 1.388-.473 1.953-.315.565-.775 1.022-1.382 1.372-.598.345-1.058.417-1.375.217-.32-.2-.478-.669-.478-1.404 0-.728.158-1.375.475-1.943a3.624 3.624 0 0 1 1.383-1.375c.607-.35 1.067-.425 1.38-.225.312.198.47.668.47 1.405Zm-2.625 1.515c0 .845.257 1.12.77.825.26-.15.455-.365.58-.643.125-.277.19-.634.19-1.069 0-.438-.065-.723-.193-.858-.127-.135-.317-.127-.572.018-.515.297-.775.875-.775 1.727ZM138.447 130.992l1.645-.95v2.358a7.587 7.587 0 0 1-1.472 1.115c-.588.34-1.043.405-1.363.2-.32-.205-.48-.67-.48-1.395 0-.705.175-1.358.528-1.953a3.982 3.982 0 0 1 1.475-1.442c.24-.138.467-.243.68-.315.212-.07.397-.113.557-.125l-.325 1.115c-.275.002-.577.1-.905.29-.3.172-.532.42-.697.74-.165.32-.248.687-.248 1.105 0 .41.075.677.223.807.147.128.362.113.642-.05.153-.087.295-.187.423-.295v-.685l-.68.393v-.913h-.003ZM140.871 132.155v-4.375l1.035-.598v4.375l-1.035.598ZM146.36 128.985l-1.35.78-1.393-2.278-.022.013c.032.465.05.827.05 1.082v1.973l-.913.527v-4.375l1.345-.777 1.388 2.24.015-.01a18.703 18.703 0 0 1-.038-1.043v-1.977l.918-.53v4.375Z" fill="#fff"/><path fill-rule="evenodd" clip-rule="evenodd" d="m196.942.74-43.695 25.228c-1.545.892-2.808 3.07-2.808 4.842v36.072c0 1.773 1.263 2.493 2.808 1.6l43.695-25.227c1.545-.893 2.807-3.07 2.807-4.843V2.34c0-1.773-1.262-2.493-2.807-1.6Z" fill="#D1D3D4"/><path fill-rule="evenodd" clip-rule="evenodd" d="m196.159 2.108-41.758 24.107c-1.475.852-2.682 2.935-2.682 4.628v34.472c0 1.692 1.207 2.383 2.682 1.53l41.758-24.108c1.475-.852 2.682-2.934 2.682-4.627V3.635c0-1.692-1.207-2.38-2.682-1.527Z" fill="#912829"/><path d="M175.938 26.105c.852-1.13 1.417-2.473 1.417-3.573 0-1.742-1.417-2.224-3.162-1.072-1.743 1.152-3.163 3.508-3.163 5.252 0 1.1.565 1.695 1.418 1.698-1.93 1.99-3.315 4.757-3.315 6.933l.842-.558c0-2.325 1.89-5.465 4.215-7.002 2.325-1.538 4.215-.896 4.215 1.427l.843-.558c.005-2.172-1.378-3.112-3.31-2.547Zm-1.743.837c-1.277.846-2.317.493-2.317-.785 0-1.277 1.04-3.005 2.317-3.85 1.278-.845 2.318-.492 2.318.786 0 1.277-1.04 3.005-2.318 3.85ZM194.369 28.425l-37.937 21.902v-5.33l37.937-21.902v5.33ZM194.369 36.778 156.432 58.68v-5.33l37.937-21.902v5.33Z" fill="#fff"/><path d="M169.562 49.588a1.14 1.14 0 1 0 0-2.281 1.14 1.14 0 0 0 0 2.28ZM173.829 47.08a1.14 1.14 0 1 0 0-2.28 1.14 1.14 0 0 0 0 2.28ZM178.099 44.572a1.14 1.14 0 1 0 0-2.279 1.14 1.14 0 0 0 0 2.28ZM182.367 42.065a1.14 1.14 0 1 0 0-2.28 1.14 1.14 0 0 0 0 2.28ZM186.636 39.56a1.14 1.14 0 1 0 0-2.28 1.14 1.14 0 0 0 0 2.28Z" fill="#11345E"/><path d="m107.541 191.98-4.757-.735-1.753 3.778 4.758.735c.08.867.47 1.727 1.167 2.519l-3.482 2.011 4.79 2.765 3.482-2.011c1.373.403 2.863.628 4.368.675l1.275 2.748 6.545-1.013-1.275-2.744c.625-.235 1.217-.51 1.765-.828a8.691 8.691 0 0 0 1.432-1.02l4.758.735 1.752-3.777-4.757-.735c-.08-.868-.47-1.728-1.168-2.521l3.483-2.009-4.79-2.765-3.483 2.01a17.604 17.604 0 0 0-4.367-.676l-1.275-2.747-6.545 1.012 1.275 2.746c-.625.235-1.218.51-1.765.827a8.55 8.55 0 0 0-1.433 1.02Zm5.275 1.2c2.145-1.238 5.62-1.238 7.765 0 2.145 1.237 2.145 3.245 0 4.483-2.145 1.237-5.62 1.237-7.765 0-2.145-1.238-2.145-3.246 0-4.483Z" fill="#912829"/><path d="M112.201 197.24c-1.502-1.237-1.3-2.955.615-4.06 2.145-1.237 5.62-1.237 7.765 0 1.71.988 2.055 2.463 1.038 3.648a3.9 3.9 0 0 0-1.038-.835c-2.145-1.238-5.62-1.238-7.765 0a3.88 3.88 0 0 0-1.037.835c.12.142.262.28.422.412ZM124.427 199.883a8.811 8.811 0 0 0 1.432-1.02l4.758.735 1.742-3.753.013.003-.013.025.013.002-.013.025.013.003-.013.025.013.002-.013.025.013.003-.013.025.013.002-.013.025.013.003-.013.025.013.002-.013.025.013.003-.013.025.013.002-.013.025.013.003-.013.025.013.002-.013.025.013.003-.013.025.013.002-.013.025.013.003-.013.025.013.002-.013.025.013.003-.013.025.013.002-.013.025.013.003-.013.025.013.002-.013.025.013.003-.013.025.013.002-.013.025.013.003-.013.025.013.002-.013.025.013.003-.013.025.013.002-.013.025.013.003-.013.025.013.002-.013.025.013.003-.013.025.013.002-.013.025.013.003-.013.025.013.002-.013.025.013.003-.013.025.013.002-.013.025.013.003-.013.025.013.002-.013.025.013.003-.013.025.013.002-.013.025.013.003-.013.025.013.002-.013.025.013.003-.013.025.013.002-.013.025.013.003-.013.025.013.002-.013.025.013.003-.013.025.013.002-.013.025.013.003-.013.025.013.002-.013.025.013.003-.013.025.013.002-.013.025.013.003-.013.025.013.002-.013.025.013.003-.013.025.013.002-.013.025.013.003-.013.025.013.002-.013.025.013.003-.013.025.013.002-.013.025.013.003-.013.025.013.002-.013.025.013.003-.013.025.013.002-.013.025.013.003-.013.025.013.002-.013.025.013.003-.013.025.013.002-.013.025.013.003-.013.025.013.002-.013.025.013.003-.013.025.013.002-.013.025.013.003-.013.025.013.002-.013.025.013.003-.013.025.013.002-.013.025.013.003-.013.025.013.002-.013.025.013.003-.013.025.013.002-.013.025.013.003-.013.025.013.002-.013.025.013.003-.013.025.013.002-.013.025.013.003-.013.025.013.002-.013.025.013.003-.013.025.013.002-.013.025.013.003-.013.025.013.002-.013.025.013.003-.013.025.013.002-.013.025.013.003-.013.025.013.002-.013.025.013.003-.013.025.013.002-.013.025.013.003-.013.025.013.002-.013.025.013.003-.013.025.013.002-.013.025.013.003-.013.025.013.002-.013.025.013.003-1.753 3.777-4.757-.735c-.408.36-.885.703-1.433 1.02-.217.125-.445.245-.677.358l.187.402-1.275-2.745a9.474 9.474 0 0 0 1.763-.792ZM108.267 203.055l3.483-2.01c1.372.402 2.862.628 4.367.675l1.275 2.747 6.545-1.012-.012.003.012.024-.012.003.012.025-.012.002.012.026-.012.002.012.025-.012.003.012.024-.012.003.012.025-.012.002.012.026-.012.002.012.025-.012.003.012.024-.012.003.012.025-.012.002.012.026-.012.002.012.025-.012.003.012.024-.012.003.012.025-.012.002.012.025-.012.003.012.025-.012.003.012.025-.012.002.012.025-.012.002.012.025-.012.003.012.025-.012.003.012.025-.012.002.012.025-.012.002.012.025-.012.003.012.025-.012.002.012.026-.012.002.012.025-.012.003.012.024-.012.003.012.025-.012.002.012.026-.012.002.012.025-.012.003.012.024-.012.003.012.025-.012.002.012.026-.012.002.012.025-.012.003.012.024-.012.003.012.025-.012.002.012.026-.012.002.012.025-.012.003.012.024-.012.003.012.025-.012.002.012.026-.012.002.012.025-.012.003.012.024-.012.003.012.025-.012.002.012.026-.012.002.012.025-.012.003.012.024-.012.003.012.025-.012.002.012.026-.012.002.012.025-.012.003.012.024-.012.003.012.025-.012.002.012.026-.012.002.012.025-.012.003.012.024-.012.003.012.025-.012.002.012.026-.012.002.012.025-.012.003.012.024-.012.003.012.025-.012.002.012.026-.012.002.012.025-.012.003.012.025-.012.002.012.025-.012.002.012.025-.012.003.012.025-.012.003.012.025-.012.002.012.025-.012.002.012.025-.012.003.012.025-.012.003.012.025-.012.002.012.025-.012.003.012.024-.012.003.012.025-.012.002.012.026-.012.002.012.025-.012.003.012.024-.012.003.012.025-.012.002.012.026-.012.002.012.025-.012.003.012.024-.012.003.012.025-.012.002.012.026-.012.002.012.025-.012.003.012.024-.012.003.012.025-.012.002.012.026-.012.002.012.025-.012.003.012.024-.012.003.012.025-.012.002.012.026-.012.002.012.025-.012.003.012.024-.012.003.012.025-.012.002.012.026-.012.002.012.025-.012.003.012.024-.012.003.012.025-.012.002.012.026-.012.002.012.025-.012.003.012.024-6.545 1.013-1.275-2.748a17.508 17.508 0 0 1-4.367-.675l-3.483 2.011-4.79-2.765.025-.015-.025-.015.025-.015-.025-.015.025-.016-.025-.015.025-.015-.025-.015.025-.015-.025-.015.025-.015-.025-.015.025-.015-.025-.015.025-.015-.025-.015.025-.015-.025-.014.025-.015-.025-.015.025-.015-.025-.015.025-.015-.025-.015.025-.015-.025-.015.025-.015-.025-.015.025-.015-.025-.016.025-.015-.025-.015.025-.015-.025-.015.025-.015-.025-.015.025-.015-.025-.015.025-.015-.025-.015.025-.015-.025-.014.025-.015-.025-.015.025-.015-.025-.015.025-.015-.025-.015.025-.015-.025-.015.025-.015-.025-.015.025-.015-.025-.015.025-.016-.025-.015.025-.015-.025-.015.025-.015-.025-.015.025-.015-.025-.015.025-.015-.025-.015.025-.015-.025-.015.025-.015-.025-.014.025-.015-.025-.015.025-.015-.025-.015.025-.015-.025-.015.025-.015-.025-.015.025-.015-.025-.015.025-.015-.025-.016.025-.015-.025-.015.025-.015-.025-.015.025-.015-.025-.015.025-.015-.025-.015.025-.015-.025-.015.025-.015-.025-.014.025-.015-.025-.015.025-.015-.025-.015.025-.015-.025-.015.025-.015-.025-.015.025-.015-.025-.015.025-.015-.025-.015.025-.016-.025-.015.025-.015-.025-.015.025-.015-.025-.015.025-.015-.025-.015.025-.015-.025-.015.023.143-.025-.015.025-.015-.025-.015.025-.015-.025-.015.025-.015-.025-.015.025-.015-.025-.015.025-.015-.025-.015.025-.015-.025-.015.025-.015-.025-.015.025-.015-.025-.015.025.005-.025-.015.025-.015-.025-.015.025-.015-.025-.015.025-.015-.025-.015.025-.015-.025-.015.025-.015-.025-.015.025-.015-.025-.015.025-.015-.025-.015.025-.015-.025-.015.025.005-.025-.015.025-.015-.025-.015.025-.015-.025-.015.025-.015-.025-.015.025-.015-.025-.015.025-.015-.025-.015.025-.015-.025-.015.025-.015-.025-.015.025-.015-.025-.015.025.005-.025-.015.025-.015-.025-.015.025-.015-.025-.015.025-.015-.025-.015.025-.015-.025-.015.025-.015-.025-.015.025-.015-.025-.015.025-.015-.025-.015.025-.015-.025-.015.025-.015-.025-.015.025-.015-.025-.015.025-.015-.025-.015.025-.015-.025-.015.025-.015-.025-.015.025-.015-.025-.015.025-.015-.025-.015.025-.015-.025-.015 4.792 2.8ZM101.042 195.023l-.013-.003 4.758.735c.08.868.47 1.728 1.167 2.52l-1.117.645a3.276 3.276 0 0 1-.05-.352l-4.758-.735.013-.025-.013-.003.013-.025-.013-.002.013-.025-.013-.003.013-.025-.013-.002.013-.025-.013-.003.013-.025-.013-.002.013-.025-.013-.003.013-.025-.013-.002.013-.025-.013-.003.013-.025-.013-.002.013-.025-.013-.003.013-.025-.013-.002.013-.025-.013-.003.013-.025-.013-.002.013-.025-.013-.003.013-.025-.013-.002.013-.025-.013-.003.013-.025-.013-.002.013-.025-.013-.003.013-.025-.013-.002.013-.025-.013-.003.013-.025-.013-.002.013-.025-.013-.003.013-.025-.013-.002.013-.025-.013-.003.013-.025-.013-.002.013-.025-.013-.003.013-.025-.013-.002.013-.025-.013-.003.013-.025-.013-.002.013-.025-.013-.003.013-.025-.013-.002.013-.025-.013-.003.013-.025-.013-.002.013-.025-.013-.003.013-.025-.013-.002.013-.025-.013-.003.013-.025-.013-.002.013-.025-.013-.003.013-.025-.013-.002.013-.025-.013-.003.013-.025-.013-.002.013-.025-.013-.003.013-.025-.013-.002.013-.025-.013-.003.013-.025-.013-.002.013-.025-.013-.003.013-.025-.013-.002.013-.025-.013-.003.013-.025-.013-.002.013-.025-.013-.003.013-.025-.013-.002.013-.025-.013-.003.013-.025-.013-.002.013-.025-.013-.003.013-.025-.013-.002.013-.025-.013-.003.013-.025-.013-.002.013-.025-.013-.003.013-.025-.013-.002.013-.025-.013-.003.013-.025-.013-.002.013-.025-.013-.003.013-.025-.013-.002.013-.025-.013-.003.013-.025-.013-.002.013-.025-.013-.003.013-.025-.013-.002.013-.025-.013-.003.013-.025-.013-.002.013-.025-.013-.003.013-.025-.013-.002.013-.025-.013-.003.013-.025-.013-.002.013-.025-.013-.003.013-.025-.013-.002.013-.025-.013-.003.013-.025-.013-.002.013-.025-.013-.003.013-.025-.013-.002.013-.025-.013-.003.013-.025-.013-.002.013-.025-.013-.003.013-.025-.013-.002.013-.025-.013-.003.013-.025-.013-.002.013-.025-.013-.003.013-.025-.013-.002.013-.025-.013-.003.013-.025-.013-.002.013-.025-.013-.003.013-.025-.013-.002.013-.025-.013-.003.013-.025-.013-.002.013-.025-.013-.003.013-.025-.013-.002.013-.025-.013-.003.013-.025-.013-.002.013-.025-.013-.003.013-.025-.013-.002.013-.06ZM109.648 190.603l-.187-.403.012-.002-.012-.025.012-.003-.012-.025.012-.002-.012-.025.012-.003-.012-.025.012-.002-.012-.025.012-.003-.012-.025.012-.002-.012-.025.012-.003-.012-.025.012-.002-.012-.025.012-.003-.012-.025.012-.002-.012-.025.012-.003-.012-.025.012-.002-.012-.025.012-.003-.012-.025.012-.002-.012-.025.012-.003-.012-.025.012-.002-.012-.025.012-.003-.012-.025.012-.002-.012-.025.012-.003-.012-.025.012-.002-.012-.025.012-.003-.012-.025.012-.002-.012-.025.012-.003-.012-.025.012-.002-.012-.025.012-.003-.012-.025.012-.002-.012-.025.012-.003-.012-.025.012-.002-.012-.025.012-.003-.012-.025.012-.002-.012-.025.012-.003-.012-.025.012-.002-.012-.025.012-.003-.012-.025.012-.002-.012-.025.012-.003-.012-.025.012-.002-.012-.025.012-.003-.012-.025.012-.002-.012-.025.012-.003-.012-.025.012-.002-.012-.025.012-.003-.012-.025.012-.002-.012-.025.012-.003-.012-.025.012-.002-.012-.025.012-.003-.012-.025.012-.002-.012-.025.012-.003-.012-.025.012-.002-.012-.025.012-.003-.012-.025.012-.002-.012-.025.012-.003-.012-.025.012-.002-.012-.025.012-.003-.012-.025.012-.002-.012-.025.012-.003-.012-.025.012-.002-.012-.025.012-.003-.012-.025.012-.002-.012-.025.012-.003-.012-.025.012-.002-.012-.025.012-.003-.012-.025.012-.002-.012-.025.012-.003-.012-.025.012-.002-.012-.025.012-.003-.012-.025.012-.002-.012-.025.012-.003-.012-.025.012-.002-.012-.025.012-.003-.012-.025.012-.002-.012-.025.012-.003-.012-.025.012-.002-.012-.025.012-.003-.012-.025.012-.002-.012-.025.012-.003-.012-.025.012-.002-.012-.025.012-.003-.012-.025.012-.002-.012-.025.012-.003-.012-.025.012-.002-.012-.025.012-.003-.012-.025.012-.002-.012-.025.012-.003-.012-.025.012-.002-.012-.025.012-.003-.012-.025.012-.002-.012-.025.012-.003-.012-.025.012-.002-.012-.025.012-.003-.012-.025.012-.002-.012-.025.012-.003-.012-.025.012-.002-.012-.025.012-.003-.012-.025.012-.002-.012-.025.012-.003-.012-.025.012-.002-.012-.025.012-.003-.012-.025.012-.002-.012-.025.012-.003-.012-.025.012-.002 1.263 2.72a6.765 6.765 0 0 0-1.088.435ZM127.559 194.73c-.143-.748-.515-1.483-1.118-2.168l3.483-2.01-.025.015.025.015-.025.015.025.015-.025.015.025.015-.025.015.025.015-.025.015.025.015-.025.015.025.015-.025.015.025.015-.025.015.025.015-.025.015.025.015-.025.015.025.015-.025.015.025.015-.025.015.025.015-.025.015.025.015-.025.015.025.015-.025.015.025.015-.025.015.025.015-.025.015.025.015-.025.015.025.015-.025.015.025.015-.025.015.025.015-.025.015.025.015-.025.015.025.015-.025.015.025.015-.025.015.025.015-.025.015.025.015-.025.015.025.015-.025.015.025.015-.025.015.025.015-.025.015.025.015-.025.015.025.015-.025.015.025.015-.025.015.025.015-.025.015.025.015-.025.015.025.015-.025.015.025.015-.025.015.025.015-.025.015.025.015-.025.015.025.015-.025.015.025.015-.025.015.025.015-.025.015.025.015-.025.015.025.015-.025.015.025.015-.025.015.025.015-.025.015.025.015-.025.015.025.015-.025.015.025.015-.025.015.025.015-.025.015.025.015-.025.015.025.015-.025.015.025.015-.025.015.025.015-.025.015.025.015-.025.015.025.015-.025.015.025.015-.025.015.025.015-.025.015.025.015-.025.015.025.015-.025.015.025.015-.025.015.025.015-.025.015.025.015-.025.015.025.015-.025.015.025.015-.025.015.025.015-.025.015.025.015-.025.015.025.015-.025.015.025.015-.025.015.025.015-.025.015.025.015-.025.015.025.015-.025.015.025.015-.025.015.025.015-.025.015.025.015-.025.015.025.015-.025.015.025.015-.025.015.025.015-.025.015.025.015-.025.015.025.015-.025.015.025.015-.025.015.025.015-.025.015.025.015-.025.015.025.015-.025.015.025.015-.025.015.025.015-.025.015.025.015-.025.015.025.015-.025.015.025.015-.025.015.025.015-.025.015.025.015-.025.015.025.015-.025.015.025.015-.025.015.025.015-.025.015.025.015-.025.015.025.015-.025.015.025.015-.025.015.025.015-.025.015.025.015-.025.015.025.015-.025.015.025.015-.025.015.025.015-.025.015.025.015-2.365 1.148Z" fill="#757679"/><path d="m132.044 177.622-3.285-.507-1.212 2.61 3.287.507c.055.6.325 1.196.808 1.743l-2.405 1.39 3.31 1.91 2.405-1.39c.95.277 1.977.435 3.017.465l.88 1.897 4.523-.699-.88-1.898c.432-.163.84-.352 1.22-.57a5.93 5.93 0 0 0 .99-.705l3.285.508 1.212-2.61-3.287-.508c-.055-.6-.325-1.195-.808-1.742l2.405-1.39-3.31-1.91-2.405 1.39a12.048 12.048 0 0 0-3.017-.465l-.88-1.898-4.523.7.88 1.898c-.432.162-.84.352-1.22.569-.38.22-.71.455-.99.705Zm3.645.83c1.483-.855 3.883-.855 5.365 0 1.483.855 1.483 2.243 0 3.098-1.482.855-3.882.855-5.365 0-1.482-.857-1.482-2.243 0-3.098Z" fill="#912829"/><path d="M135.264 181.258c-1.04-.855-.897-2.043.425-2.805 1.483-.855 3.883-.855 5.365 0 1.183.682 1.42 1.702.718 2.52a2.78 2.78 0 0 0-.718-.578c-1.482-.855-3.882-.855-5.365 0-.3.173-.537.368-.717.578.085.097.182.192.292.285ZM143.71 183.082c.38-.217.708-.455.99-.705l3.285.508 1.203-2.593.007.003-.007.017.007.003-.007.017.007.003-.007.017.007.003-.007.017.007.003-.007.017.007.003-.007.017.007.003-.007.017.007.003-.007.017.007.003-.007.017.007.003-.007.017.007.003-.007.017.007.003-.007.017.007.003-.007.017.007.003-.007.017.007.003-.007.017.007.003-.007.017.007.003-.007.017.007.003-.007.017.007.003-.007.017.007.003-.007.017.007.003-.007.017.007.003-.007.017.007.003-.007.017.007.003-.007.017.007.003-.007.017.007.003-.007.017.007.003-.007.017.007.003-.007.017.007.003-.007.017.007.003-.007.017.007.003-.007.017.007.003-.007.017.007.003-.007.017.007.003-.007.017.007.003-.007.017.007.003-.007.017.007.003-.007.017.007.003-.007.017.007.003-.007.017.007.003-.007.017.007.003-.007.017.007.003-.007.017.007.003-.007.017.007.003-.007.017.007.003-.007.017.007.003-.007.017.007.003-.007.017.007.003-.007.017.007.003-.007.017.007.003-.007.017.007.003-.007.017.007.003-.007.017.007.003-.007.017.007.003-.007.017.007.003-.007.017.007.003-.007.017.007.003-.007.017.007.003-.007.017.007.003-.007.017.007.003-.007.017.007.003-.007.017.007.003-.007.017.007.003-.007.017.007.003-.007.017.007.003-.007.017.007.003-.007.017.007.003-.007.017.007.003-.007.017.007.003-.007.017.007.003-.007.017.007.003-.007.017.007.003-.007.017.007.003-.007.017.007.003-.007.017.007.003-.007.017.007.003-.007.017.007.003-.007.017.007.003-.007.017.007.003-.007.017.007.003-.007.017.007.003-.007.017.007.003-.007.017.007.003-.007.017.007.003-.007.017.007.003-.007.017.007.003-.007.017.007.003-.007.017.007.003-.007.017.007.003-.007.017.007.003-.007.017.007.003-.007.017.007.003-.007.017.007.003-.007.017.007.003-.007.017.007.003-.007.017.007.003-.007.017.007.003-.007.017.007.003-.007.017.007.003-.007.017.007.003-.007.017.007.003-1.212 2.61-3.285-.508c-.283.25-.61.485-.99.705a7.96 7.96 0 0 1-.468.248l.13.277-.88-1.897c.433-.24.843-.43 1.22-.648Z" fill="#757679"/><path d="m132.544 185.275 2.405-1.39c.95.277 1.978.435 3.018.465l.88 1.897 4.522-.7-.007.003.007.017-.007.003.007.017-.007.003.007.017-.007.003.007.017-.007.003.007.017-.007.003.007.017-.007.003.007.017-.007.003.007.017-.007.003.007.017-.007.003.007.017-.007.003.007.017-.007.003.007.017-.007.003.007.017-.007.003.007.017-.007.003.007.017-.007.003.007.017-.007.003.007.017-.007.003.007.017-.007.003.007.017-.007.003.007.017-.007.003.007.017-.007.003.007.017-.007.003.007.017-.007.003.007.017-.007.003.007.017-.007.003.007.017-.007.003.007.017-.007.003.007.017-.007.003.007.017-.007.003.007.017-.007.003.007.017-.007.003.007.017-.007.003.007.017-.007.003.007.017-.007.003.007.017-.007.003.007.017-.007.003.007.017-.007.003.007.017-.007.003.007.017-.007.003.007.017-.007.003.007.017-.007.003.007.017-.007.003.007.017-.007.003.007.017-.007.003.007.017-.007.003.007.017-.007.003.007.017-.007.003.007.017-.007.003.007.017-.007.003.007.017-.007.003.007.017-.007.003.007.017-.007.003.007.017-.007.003.007.017-.007.003.007.017-.007.003.007.017-.007.003.007.017-.007.003.007.017-.007.003.007.017-.007.003.007.017-.007.003.007.017-.007.003.007.017-.007.003.007.017-.007.003.007.017-.007.003.007.017-.007.003.007.017-.007.003.007.017-.007.003.007.017-.007.003.007.017-.007.003.007.017-.007.003.007.017-.007.003.007.017-.007.003.007.017-.007.003.007.017-.007.003.007.017-.007.003.007.017-.007.003.007.017-.007.003.007.017-.007.003.007.017-.007.003.007.017-.007.003.007.017-.007.003.007.017-.007.003.007.017-.007.003.007.017-.007.003.007.017-.007.003.007.017-.007.003.007.017-.007.003.007.017-.007.003.007.017-.007.003.007.017-.007.003.007.017-.007.003.007.017-.007.003.007.017-.007.003.007.017-.007.003.007.017-.007.003.007.017-.007.003.007.017-.007.003.007.017-.007.003.007.017-.007.003.007.017-.007.003.007.017-4.522.7-.88-1.897a12.242 12.242 0 0 1-3.018-.465l-2.405 1.39-3.31-1.91.018-.01-.018-.01.018-.01-.018-.01.018-.01-.018-.01.018-.01-.018-.01.018-.01-.018-.01.018-.01-.018-.01.018-.01-.018-.01.018-.01-.018-.01.018-.01-.018-.01.018-.01-.018-.01.018-.01-.018-.01.018-.01-.018-.01.018-.01-.018-.01.018-.01-.018-.01.018-.01-.018-.01.018-.01-.018-.01.018-.01-.018-.01.018-.01-.018-.01.018-.01-.018-.01.018-.01-.018-.01.018-.01-.018-.01.018-.01-.018-.01.018-.01-.018-.01.018-.01-.018-.01.018-.01-.018-.01.018-.01-.018-.01.018-.01-.018-.01.018-.01-.018-.01.018-.01-.018-.01.018-.01-.018-.01.018-.01-.018-.01.018-.01-.018-.01.018-.01-.018-.01.018-.01-.018-.01.018-.01-.018-.01.018-.01-.018-.01.018-.01-.018-.01.018-.01-.018-.01.018-.01-.018-.01.018-.01-.018-.01.018-.01-.018-.01.018-.01-.018-.01.018-.01-.018-.01.018-.01-.018-.01.018-.01-.018-.01.018-.01-.018-.01.018-.01-.018-.01.018-.01-.018-.01.018-.01-.018-.01.018-.01-.018-.01.018-.01-.018-.01.018-.01-.018-.01.018-.01-.018-.01.018-.01-.018-.01.018-.01-.018-.01.018-.01-.018-.01.018-.01-.018-.01.018-.01-.018-.01.018-.01-.018-.01.018-.01-.018-.01.018-.01-.018-.01.018-.01-.018-.01.018-.01-.018-.01.018-.01-.018-.01.018-.01-.018-.01.018-.01-.018-.01.018-.01-.018-.01.018-.01-.018-.01.018-.01-.018-.01.018-.01-.018-.01.018-.01-.018-.01.018-.01-.018-.01.018-.01-.018-.01.018-.01-.018-.01.018-.01-.018-.01.018-.01-.018-.01.018-.01-.018-.01.018-.01-.018-.01.018-.01-.018-.01.018-.01-.018-.01.018-.01-.018-.01.018-.01-.018-.01.018-.01-.018-.01.018-.01-.018-.01.018-.01-.018-.01.018-.01-.018-.01.018-.01-.018-.01.018-.01-.018-.01.018-.01-.018-.01.018-.01-.018-.01.018-.01-.018-.01.018-.01-.018-.01.018-.01-.018-.01.018-.01-.018-.01.018-.01-.018-.01.018-.01-.018-.01.018-.01-.018-.01.018-.01-.018-.01.018-.01-.018-.01.018-.01-.018-.01.018-.01-.018-.01 3.31 1.91ZM127.554 179.725l-.007-.002 3.287.507c.055.6.325 1.195.808 1.743l-.773.445a2.832 2.832 0 0 1-.035-.245l-3.287-.508.007-.017-.007-.003.007-.017-.007-.003.007-.017-.007-.003.007-.017-.007-.003.007-.017-.007-.003.007-.017-.007-.003.007-.017-.007-.003.007-.017-.007-.003.007-.017-.007-.003.007-.017-.007-.003.007-.017-.007-.003.007-.017-.007-.003.007-.017-.007-.003.007-.017-.007-.003.007-.017-.007-.003.007-.017-.007-.003.007-.017-.007-.003.007-.017-.007-.003.007-.017-.007-.003.007-.017-.007-.003.007-.017-.007-.003.007-.017-.007-.003.007-.017-.007-.003.007-.017-.007-.003.007-.017-.007-.003.007-.017-.007-.003.007-.017-.007-.003.007-.017-.007-.003.007-.017-.007-.003.007-.017-.007-.003.007-.017-.007-.003.007-.017-.007-.003.007-.017-.007-.003.007-.017-.007-.003.007-.017-.007-.003.007-.017-.007-.003.007-.017-.007-.003.007-.017-.007-.003.007-.017-.007-.003.007-.017-.007-.003.007-.017-.007-.003.007-.017-.007-.003.007-.017-.007-.003.007-.017-.007-.003.007-.017-.007-.003.007-.017-.007-.003.007-.017-.007-.003.007-.017-.007-.003.007-.017-.007-.003.007-.017-.007-.003.007-.017-.007-.003.007-.017-.007-.003.007-.017-.007-.003.007-.017-.007-.003.007-.017-.007-.003.007-.017-.007-.003.007-.017-.007-.003.007-.017-.007-.003.007-.017-.007-.003.007-.017-.007-.003.007-.017-.007-.003.007-.017-.007-.003.007-.017-.007-.003.007-.017-.007-.003.007-.017-.007-.003.007-.017-.007-.003.007-.017-.007-.003.007-.017-.007-.003.007-.017-.007-.003.007-.017-.007-.003.007-.017-.007-.003.007-.017-.007-.003.007-.017-.007-.003.007-.017-.007-.003.007-.017-.007-.003.007-.017-.007-.003.007-.017-.007-.003.007-.017-.007-.003.007-.017-.007-.003.007-.017-.007-.003.007-.017-.007-.003.007-.017-.007-.003.007-.017-.007-.003.007-.017-.007-.003.007-.017-.007-.003.007-.017-.007-.003.007-.017-.007-.003.007-.017-.007-.003.007-.017-.007-.003.007-.017-.007-.003.007-.017-.007-.003.007-.017-.007-.003.007-.017-.007-.003.007-.017-.007-.003.007-.017-.007-.003.007-.017-.007-.003.007-.017-.007-.003.007-.017-.007-.003.007-.017-.007-.003.007-.017-.007-.003.007.06ZM133.501 176.673l-.13-.278.008-.002-.008-.018.008-.002-.008-.018.008-.002-.008-.018.008-.002-.008-.018.008-.002-.008-.018.008-.002-.008-.018.008-.002-.008-.018.008-.002-.008-.018.008-.002-.008-.018.008-.002-.008-.018.008-.002-.008-.018.008-.002-.008-.018.008-.002-.008-.018.008-.002-.008-.018.008-.002-.008-.018.008-.002-.008-.018.008-.002-.008-.018.008-.002-.008-.018.008-.002-.008-.018.008-.002-.008-.018.008-.002-.008-.018.008-.002-.008-.018.008-.002-.008-.018.008-.002-.008-.018.008-.002-.008-.018.008-.002-.008-.018.008-.002-.008-.018.008-.002-.008-.018.008-.002-.008-.018.008-.002-.008-.018.008-.002-.008-.018.008-.002-.008-.018.008-.002-.008-.018.008-.002-.008-.018.008-.002-.008-.018.008-.002-.008-.018.008-.002-.008-.018.008-.002-.008-.018.008-.002-.008-.018.008-.002-.008-.018.008-.002-.008-.018.008-.002-.008-.018.008-.002-.008-.018.008-.002-.008-.018.008-.002-.008-.018.008-.002-.008-.018.008-.002-.008-.018.008-.002-.008-.018.008-.002-.008-.018.008-.002-.008-.018.008-.002-.008-.018.008-.002-.008-.018.008-.002-.008-.018.008-.002-.008-.018.008-.002-.008-.018.008-.002-.008-.018.008-.002-.008-.018.008-.002-.008-.018.008-.002-.008-.018.008-.002-.008-.018.008-.002-.008-.018.008-.002-.008-.018.008-.002-.008-.018.008-.002-.008-.018.008-.002-.008-.018.008-.002-.008-.018.008-.002-.008-.018.008-.002-.008-.018.008-.002-.008-.018.008-.002-.008-.018.008-.002-.008-.018.008-.002-.008-.018.008-.002-.008-.018.008-.002-.008-.018.008-.002-.008-.018.008-.002-.008-.018.008-.002-.008-.018.008-.002-.008-.018.008-.002-.008-.018.008-.002-.008-.018.008-.002-.008-.018.008-.002-.008-.018.008-.002-.008-.018.008-.002-.008-.018.008-.002-.008-.018.008-.002-.008-.018.008-.002-.008-.018.008-.002-.008-.018.008-.002-.008-.018.008-.002-.008-.018.008-.002-.008-.018.008-.002-.008-.018.008-.002-.008-.018.008-.002-.008-.018.008-.002-.008-.018.008-.002-.008-.018.008-.002-.008-.018.008-.002-.008-.018.008-.002-.008-.018.008-.002-.008-.018.008-.002.872 1.88c-.257.172-.51.28-.75.4ZM145.874 179.523c-.097-.518-.355-1.025-.772-1.498l2.405-1.39-.018.01.018.01-.018.01.018.01-.018.01.018.01-.018.01.018.01-.018.01.018.01-.018.01.018.01-.018.01.018.01-.018.01.018.01-.018.01.018.01-.018.01.018.01-.018.01.018.01-.018.01.018.01-.018.01.018.01-.018.01.018.01-.018.01.018.01-.018.01.018.01-.018.01.018.01-.018.01.018.01-.018.01.018.01-.018.01.018.01-.018.01.018.01-.018.01.018.01-.018.01.018.01-.018.01.018.01-.018.01.018.01-.018.01.018.01-.018.01.018.01-.018.01.018.01-.018.01.018.01-.018.01.018.01-.018.01.018.01-.018.01.018.01-.018.01.018.01-.018.01.018.01-.018.01.018.01-.018.01.018.01-.018.01.018.01-.018.01.018.01-.018.01.018.01-.018.01.018.01-.018.01.018.01-.018.01.018.01-.018.01.018.01-.018.01.018.01-.018.01.018.01-.018.01.018.01-.018.01.018.01-.018.01.018.01-.018.01.018.01-.018.01.018.01-.018.01.018.01-.018.01.018.01-.018.01.018.01-.018.01.018.01-.018.01.018.01-.018.01.018.01-.018.01.018.01-.018.01.018.01-.018.01.018.01-.018.01.018.01-.018.01.018.01-.018.01.018.01-.018.01.018.01-.018.01.018.01-.018.01.018.01-.018.01.018.01-.018.01.018.01-.018.01.018.01-.018.01.018.01-.018.01.018.01-.018.01.018.01-.018.01.018.01-.018.01.018.01-.018.01.018.01-.018.01.018.01-.018.01.018.01-.018.01.018.01-.018.01.018.01-.018.01.018.01-.018.01.018.01-.018.01.018.01-.018.01.018.01-.018.01.018.01-.018.01.018.01-.018.01.018.01-.018.01.018.01-.018.01.018.01-.018.01.018.01-.018.01.018.01-.018.01.018.01-.018.01.018.01-.018.01.018.01-.018.01.018.01-.018.01.018.01-.018.01.018.01-.018.01.018.01-.018.01.018.01-.018.01.018.01-.018.01.018.01-.018.01.018.01-.018.01.018.01-1.633.868Z" fill="#757679"/></svg>
