<svg width="137" height="50" viewBox="0 0 137 50" fill="none" xmlns="http://www.w3.org/2000/svg">
<path d="M1.4552 11.075H137L126.529 49.1869L11.9258 42.2224L1.4552 11.075Z" fill="#B53133"/>
<path d="M11.9279 42.2222L3.71604 17.7993L0 18.1903L13.6768 48.075L68.6206 45.6678L11.9279 42.2222Z" fill="#6D1E1F"/>
<path d="M133.646 11.0741L134.805 4.05444L67.8545 11.0741H133.646Z" fill="#6D1E1F"/>
<path d="M135.137 11.0742L135.907 7.56201L68.729 11.0742H135.137Z" fill="#912829"/>
<path d="M11.9258 42.2223L2.61732 14.532L0.548004 14.6394L12.6388 45.1979L68.6854 45.6739L11.9258 42.2223Z" fill="#912829"/>
<path d="M31.2967 27.7987C31.9874 27.812 32.662 27.5893 33.2085 27.1677C33.4933 26.9241 33.7159 26.6165 33.8581 26.2702C34.0003 25.9239 34.058 25.5489 34.0264 25.176C34.0708 24.8426 34.0353 24.5034 33.923 24.1863C33.8107 23.8692 33.6247 23.5831 33.3803 23.3515C32.9271 23.037 32.385 22.8753 31.8331 22.8898H29.1285L28.5948 27.7987H31.2967ZM26.2917 19.2137H32.3927C34.4179 19.2137 35.9649 19.672 37.0336 20.5887C37.4885 21.005 37.8439 21.5179 38.0737 22.0894C38.3823 22.8894 38.5256 23.7434 38.495 24.6C38.5004 25.6013 38.3046 26.5934 37.919 27.5179C37.6183 28.307 37.1537 29.0237 36.5558 29.6211C36.0116 30.1203 35.383 30.5193 34.6992 30.7996C33.6523 31.2554 32.5234 31.4942 31.3812 31.5013H28.2036L27.5288 38.0103C27.4725 38.6096 26.882 38.9092 25.7574 38.9092H24.8031C23.7335 38.9092 23.1987 38.61 23.1987 38.0116L25.0546 20.3364C25.052 20.1785 25.0831 20.0218 25.146 19.8769C25.2088 19.7319 25.3019 19.602 25.419 19.4958C25.5361 19.3895 25.6746 19.3094 25.8252 19.2608C25.9758 19.2122 26.1351 19.1961 26.2924 19.2137H26.2917Z" fill="#912829"/>
<path d="M40.098 26.8454L40.0422 25.2739C40.0422 24.9752 40.3514 24.7318 40.9698 24.5436C41.7304 24.3401 42.5164 24.2469 43.3036 24.2669C43.4135 24.262 43.523 24.2851 43.6215 24.3341C43.72 24.3832 43.8043 24.4564 43.8666 24.547C43.9909 24.7171 44.0727 24.9143 44.1051 25.1223C44.1333 25.3186 44.1665 25.6411 44.2046 26.0899C45.1589 24.6687 46.2553 23.9579 47.494 23.9575C47.6714 23.9308 47.8525 23.9456 48.0232 24.0007C48.1939 24.0558 48.3494 24.1497 48.4775 24.2749C48.6056 24.4002 48.7029 24.5534 48.7615 24.7225C48.8202 24.8916 48.8387 25.072 48.8156 25.2495C48.7902 25.8229 48.6512 26.3857 48.4067 26.9053C48.134 27.5399 47.8948 27.8573 47.6889 27.8573C47.5439 27.832 47.4025 27.7893 47.2677 27.7301C47.0335 27.6445 46.7858 27.6017 46.5364 27.6036C46.043 27.6256 45.5623 27.7672 45.136 28.016C44.7097 28.2648 44.3505 28.6133 44.0894 29.0316L43.1897 38.0076C43.1334 38.6056 42.5427 38.9048 41.4176 38.9052H40.6324C40.2186 38.9304 39.8057 38.8432 39.4376 38.653C39.3202 38.5961 39.2202 38.5088 39.1483 38.4002C39.0763 38.2915 39.035 38.1656 39.0286 38.0355L39.9829 28.8331C40.0538 28.1717 40.0914 27.5072 40.0953 26.842" fill="#912829"/>
<path d="M55.9294 35.7942C56.4059 35.7953 56.8733 35.6631 57.2784 35.4128C57.6835 35.1624 58.0103 34.8039 58.2216 34.3778C58.8436 33.1203 59.1291 31.7237 59.0504 30.3236C59.0504 28.2664 58.3191 27.2375 56.8564 27.2371C56.3759 27.2336 55.9042 27.3645 55.4945 27.615C55.0849 27.8655 54.7539 28.2255 54.539 28.6542C53.9149 29.9203 53.6292 31.3256 53.7095 32.7342C53.7095 34.7742 54.4499 35.7942 55.9308 35.7942M49.4904 32.9328C49.4175 30.7517 49.9844 28.5968 51.1214 26.7325C51.7169 25.844 52.5496 25.1393 53.5254 24.698C54.6776 24.1798 55.9316 23.9261 57.1951 23.9554C59.2008 23.9554 60.7192 24.4792 61.7502 25.5269C62.7812 26.5745 63.2967 28.1082 63.2967 30.1278C63.2967 32.9706 62.6126 35.1727 61.2445 36.734C60.5364 37.5195 59.6615 38.1374 58.6837 38.5427C57.7058 38.948 56.6495 39.1304 55.592 39.0766C53.5859 39.0766 52.0673 38.553 51.0363 37.5058C50.0052 36.4586 49.4899 34.9342 49.4904 32.9328Z" fill="#912829"/>
<path d="M71.9264 35.7942C72.403 35.7956 72.8705 35.6636 73.2757 35.4133C73.6809 35.1629 74.0075 34.8041 74.2185 34.3777C74.8418 33.1206 75.1278 31.7238 75.0487 30.3236C75.0487 28.2663 74.3174 27.2375 72.8547 27.2371C72.3742 27.2334 71.9024 27.3643 71.4927 27.6148C71.0831 27.8653 70.7521 28.2254 70.5373 28.6542C69.9128 29.9201 69.6269 31.3255 69.7071 32.7342C69.7071 34.7742 70.4475 35.7942 71.9284 35.7942M65.4894 32.9327C65.4167 30.7517 65.9835 28.5968 67.1204 26.7325C67.7161 25.8441 68.5487 25.1394 69.5244 24.6979C70.6767 24.18 71.9306 23.9263 73.1941 23.9554C75.2003 23.9554 76.7189 24.4792 77.7499 25.5269C78.7809 26.5745 79.2964 28.1081 79.2964 30.1277C79.2964 32.9706 78.6123 35.1727 77.2441 36.7339C76.5361 37.5195 75.6613 38.1375 74.6834 38.5427C73.7055 38.948 72.6492 39.1304 71.5917 39.0765C69.5855 39.0765 68.067 38.5529 67.0359 37.5057C66.0049 36.4585 65.4894 34.9342 65.4894 32.9327Z" fill="#912829"/>
<path d="M81.2649 24.8246C81.2649 24.3567 81.8556 24.1228 83.037 24.1228H83.9646C84.8834 24.1228 85.3896 24.3193 85.4832 24.7124L86.6085 29.9021C86.6651 30.1462 86.7387 30.6923 86.8335 31.5443C86.9282 32.3964 86.9923 32.9798 87.0304 33.2974H87.1429C87.6118 31.7452 87.9963 30.6134 88.2962 29.9021L90.4909 24.7124C90.6608 24.3198 91.2045 24.1233 92.1219 24.1228H92.8247C93.8938 24.1228 94.4284 24.3379 94.4284 24.7681C94.4245 24.9329 94.3862 25.095 94.316 25.2441L88.4672 38.3178C88.2987 38.7108 87.755 38.9074 86.8362 38.9074H85.9358C85.0175 38.9074 84.5113 38.7108 84.4172 38.3178L81.3248 25.2441C81.2979 25.1052 81.279 24.9649 81.2683 24.8239" fill="#912829"/>
<path d="M98.8963 21.7666H98.109C97.695 21.7919 97.2818 21.7047 96.9135 21.5143C96.7962 21.4572 96.6963 21.3697 96.6244 21.261C96.5525 21.1523 96.5111 21.0263 96.5046 20.8962L96.7581 18.5957C96.8149 17.9973 97.4056 17.6981 98.5303 17.6981H99.3182C99.732 17.6728 100.145 17.76 100.513 17.9504C100.63 18.0073 100.73 18.0946 100.802 18.203C100.874 18.3115 100.915 18.4373 100.922 18.5672L100.669 20.8683C100.613 21.4667 100.022 21.7659 98.897 21.7659M97.8562 24.1221H98.6427C99.057 24.097 99.4704 24.1844 99.8389 24.3751C99.9561 24.4322 100.056 24.5196 100.128 24.6282C100.2 24.7367 100.241 24.8625 100.248 24.9925C99.5536 31.3886 99.2066 34.6802 99.2071 34.8675C99.2071 35.4854 99.4881 35.7941 100.05 35.7936C100.222 35.79 100.393 35.7618 100.557 35.71C100.658 35.676 100.761 35.6478 100.865 35.6257C101.016 35.6257 101.09 35.7657 101.09 36.0459C101.062 36.5739 100.996 37.0992 100.894 37.6181C100.851 37.8563 100.748 38.0798 100.596 38.2685C100.444 38.4571 100.247 38.6047 100.023 38.6979C99.5258 38.948 98.9766 39.0775 98.4198 39.076C96.1511 39.076 95.0169 37.8885 95.0173 35.5135L96.0861 25.0204C96.142 24.4224 96.7327 24.1232 97.8582 24.1228" fill="#912829"/>
<path d="M108.456 35.7105C109.226 35.7105 109.957 35.1681 110.65 34.0833C110.875 31.5401 111.006 30.1327 111.044 29.8612C111.082 29.5896 111.195 28.9776 111.381 28.0252C110.878 27.552 110.216 27.2823 109.525 27.2683C109.059 27.2666 108.603 27.3995 108.211 27.651C107.82 27.9025 107.509 28.2618 107.318 28.6854C106.726 30.0109 106.461 31.4588 106.545 32.9076C106.545 34.778 107.181 35.7132 108.454 35.7132M113.938 39.0792C112.156 39.0792 111.078 38.3779 110.704 36.9753C110.279 37.6063 109.716 38.1339 109.059 38.5189C108.399 38.9102 107.645 39.1138 106.878 39.1078C106.238 39.129 105.602 38.9961 105.024 38.7203C104.447 38.4445 103.944 38.034 103.559 37.5234C102.655 36.2019 102.219 34.6171 102.321 33.0204C102.214 30.7144 102.823 28.4316 104.065 26.4836C104.539 25.719 105.201 25.0881 105.988 24.6512C106.776 24.2142 107.662 23.9857 108.563 23.9873C109.849 24.0157 111.072 24.55 111.965 25.4738C112.046 25.0775 112.23 24.7096 112.499 24.4076C112.9 24.2084 113.348 24.1212 113.795 24.1553H114.132C115.219 24.1553 115.763 24.389 115.763 24.8564L115.257 29.7381C114.901 32.9916 114.723 34.712 114.723 34.8993C114.723 35.4986 115.004 35.798 115.566 35.7976C115.738 35.7939 115.908 35.7657 116.072 35.7139C116.174 35.6798 116.277 35.6517 116.381 35.6296C116.532 35.6296 116.607 35.7697 116.607 36.0498C116.578 36.5776 116.512 37.1027 116.41 37.6213C116.367 37.8596 116.264 38.0832 116.112 38.2718C115.96 38.4604 115.763 38.608 115.539 38.7012C115.042 38.9515 114.492 39.0813 113.936 39.0799" fill="#912829"/>
<path d="M30.6198 27.1223C31.3106 27.1354 31.9851 26.9128 32.5317 26.4912C32.8164 26.2476 33.039 25.94 33.1812 25.5937C33.3234 25.2474 33.3812 24.8724 33.3496 24.4995C33.3942 24.1662 33.3589 23.8271 33.2466 23.51C33.1343 23.193 32.9481 22.907 32.7035 22.6757C32.2508 22.3604 31.7088 22.1981 31.1569 22.2127H28.4544L27.9207 27.1223H30.6198ZM25.6142 18.5379H31.7158C33.7411 18.5379 35.2881 18.996 36.3568 19.9122C36.8116 20.3287 37.1668 20.8418 37.3962 21.4137C37.7054 22.2137 37.8489 23.068 37.8181 23.9249C37.8234 24.9259 37.6276 25.9178 37.2422 26.8421C36.9416 27.6313 36.477 28.348 35.879 28.9453C35.3348 29.4447 34.7062 29.8439 34.0224 30.1245C32.9756 30.5801 31.847 30.8188 30.705 30.8262H27.5261L26.8506 37.3352C26.7948 37.9331 26.204 38.2321 25.0785 38.2321H24.1243C23.0555 38.2321 22.5214 37.9331 22.5219 37.3352L24.3771 19.6599C24.3745 19.5021 24.4056 19.3456 24.4684 19.2007C24.5312 19.0558 24.6243 18.926 24.7413 18.8198C24.8584 18.7136 24.9968 18.6336 25.1473 18.585C25.2978 18.5364 25.457 18.5203 25.6142 18.5379Z" fill="#F2F1F0"/>
<path d="M39.4206 26.1695L39.364 24.5987C39.364 24.299 39.6734 24.0556 40.2923 23.8684C41.0527 23.6635 41.8387 23.5691 42.6261 23.5882C42.736 23.5832 42.8453 23.6064 42.9437 23.6554C43.0422 23.7044 43.1264 23.7777 43.1884 23.8684C43.3128 24.0384 43.3946 24.2357 43.427 24.4437C43.4556 24.6395 43.4876 24.9632 43.5265 25.412C44.4807 23.9908 45.5772 23.2799 46.8158 23.2795C46.9932 23.2528 47.1744 23.2676 47.345 23.3227C47.5157 23.3778 47.6712 23.4717 47.7994 23.5969C47.9275 23.7222 48.0247 23.8754 48.0834 24.0445C48.142 24.2136 48.1605 24.394 48.1374 24.5715C48.1123 25.1448 47.9733 25.7074 47.7285 26.2266C47.4559 26.8624 47.218 27.1786 47.0115 27.1786C46.8665 27.1533 46.7251 27.1108 46.5902 27.0521C46.3558 26.9664 46.1078 26.9235 45.8582 26.9257C45.3645 26.9481 44.8837 27.0901 44.4574 27.3395C44.031 27.5889 43.672 27.9382 43.4113 28.3571L42.5116 37.3331C42.4552 37.9315 41.8645 38.2304 40.7394 38.23H39.9542C39.5404 38.2554 39.1274 38.1682 38.7594 37.9777C38.6419 37.9208 38.5419 37.8334 38.4699 37.7246C38.398 37.6158 38.3567 37.4897 38.3505 37.3596L39.3047 28.1571C39.3755 27.4957 39.4131 26.8312 39.4172 26.1661" fill="#F2F1F0"/>
<path d="M55.2526 35.1183C55.7292 35.1193 56.1966 34.9871 56.6017 34.7366C57.0069 34.4862 57.3336 34.1274 57.5448 33.7011C58.1675 32.4441 58.4533 31.0476 58.3743 29.6477C58.3743 27.5904 57.6429 26.5618 56.1802 26.5618C55.6997 26.558 55.2278 26.6888 54.8181 26.9393C54.4085 27.1899 54.0775 27.55 53.8628 27.9789C53.2382 29.2448 52.9522 30.6503 53.0326 32.0589C53.0326 34.0989 53.7733 35.1189 55.2546 35.1189M48.8149 32.2575C48.7424 30.0765 49.3093 27.9217 50.446 26.0573C51.0417 25.1688 51.8747 24.4643 52.8506 24.0234C54.0027 23.5047 55.2567 23.2507 56.5203 23.2801C58.526 23.2801 60.0446 23.8037 61.0761 24.8509C62.1076 25.8981 62.6231 27.432 62.6226 29.4525C62.6226 32.2949 61.9383 34.497 60.5697 36.0587C59.8617 36.8441 58.9869 37.462 58.0091 37.8672C57.0314 38.2725 55.9753 38.4549 54.9179 38.4013C52.9113 38.4013 51.3927 37.8779 50.3621 36.8312C49.3316 35.7844 48.8161 34.2599 48.8156 32.2575" fill="#F2F1F0"/>
<path d="M71.2516 35.1183C71.7283 35.1196 72.1958 34.9876 72.601 34.737C73.0062 34.4865 73.3329 34.1276 73.5438 33.7011C74.1672 32.4443 74.4532 31.0477 74.374 29.6477C74.374 27.5904 73.6428 26.5618 72.1806 26.5618C71.7001 26.5581 71.2282 26.6889 70.8186 26.9394C70.4089 27.19 70.0779 27.5501 69.8632 27.9789C69.2389 29.2449 68.9532 30.6503 69.0337 32.0589C69.0337 34.0989 69.7739 35.1189 71.2543 35.1189M64.8153 32.2575C64.7427 30.0764 65.3095 27.9216 66.4464 26.0573C67.0422 25.1689 67.8751 24.4644 68.851 24.0234C70.0028 23.5047 71.2567 23.2507 72.52 23.2801C74.5257 23.2801 76.0443 23.8037 77.0758 24.8509C78.1073 25.8981 78.623 27.432 78.623 29.4525C78.623 32.2949 77.9387 34.497 76.5701 36.0587C75.862 36.8443 74.9872 37.4622 74.0093 37.8675C73.0314 38.2728 71.9751 38.4551 70.9176 38.4013C68.9115 38.4013 67.3929 37.8779 66.3619 36.8312C65.3308 35.7844 64.8153 34.2599 64.8153 32.2575Z" fill="#F2F1F0"/>
<path d="M80.588 24.1493C80.588 23.6814 81.1788 23.4475 82.3602 23.4475H83.2878C84.2062 23.4475 84.7124 23.644 84.8064 24.0371L85.9324 29.2275C85.989 29.4716 86.0619 30.0177 86.1566 30.8697C86.2514 31.7218 86.3155 32.3052 86.3536 32.6228H86.4654C86.9334 31.0705 87.3181 29.939 87.6194 29.2282L89.812 24.0377C89.9806 23.6452 90.5241 23.4486 91.4424 23.4482H92.1458C93.2145 23.4482 93.7489 23.6633 93.7489 24.0935C93.7448 24.2582 93.7068 24.4202 93.6371 24.5695L87.7884 37.6432C87.6198 38.0353 87.0759 38.2316 86.1566 38.2321H85.2549C84.3366 38.2321 83.8306 38.0358 83.737 37.6432L80.6446 24.5695C80.6178 24.4304 80.5991 24.2899 80.5887 24.1486" fill="#F2F1F0"/>
<path d="M98.2181 21.0906H97.4322C97.0179 21.1161 96.6044 21.0286 96.236 20.8376C96.1186 20.7807 96.0187 20.6934 95.9468 20.5847C95.8749 20.4761 95.8335 20.3502 95.8271 20.2202L96.0799 17.9204C96.1367 17.3215 96.7274 17.0221 97.8521 17.0221H98.64C99.054 16.9968 99.4672 17.084 99.8355 17.2744C99.9527 17.3314 100.052 17.4186 100.124 17.5271C100.196 17.6355 100.238 17.7613 100.244 17.8912L99.9909 20.1916C99.935 20.7909 99.3443 21.0903 98.2188 21.0899M97.1773 23.4468H97.9645C98.3787 23.4213 98.7919 23.5088 99.1601 23.6997C99.2773 23.7567 99.377 23.8439 99.4489 23.9524C99.5208 24.0609 99.5623 24.1866 99.569 24.3165C98.8747 30.7135 98.5278 34.0051 98.5282 34.1914C98.5282 34.8089 98.8095 35.1176 99.372 35.1176C99.5438 35.114 99.7142 35.0856 99.8778 35.0333C99.9791 34.9992 100.082 34.9712 100.187 34.9496C100.337 34.9496 100.412 35.0897 100.412 35.3699C100.383 35.8976 100.318 36.4227 100.216 36.9414C100.173 37.1795 100.07 37.403 99.918 37.5915C99.7658 37.78 99.5687 37.9275 99.3448 38.0205C98.8475 38.271 98.298 38.4008 97.741 38.3993C95.4731 38.3993 94.3389 37.2118 94.3385 34.8368L95.4052 24.3464C95.4611 23.748 96.0518 23.4486 97.1773 23.4481" fill="#F2F1F0"/>
<path d="M107.779 35.0339C108.548 35.0339 109.279 34.4915 109.973 33.4067C110.2 30.863 110.331 29.4557 110.367 29.1846C110.402 28.9135 110.514 28.3015 110.703 27.3486C110.2 26.8736 109.538 26.6025 108.845 26.5883C108.38 26.5865 107.923 26.7193 107.532 26.9706C107.14 27.222 106.829 27.5812 106.638 28.0048C106.046 29.3303 105.781 30.7781 105.865 32.2269C105.865 34.0978 106.502 35.033 107.777 35.0326M113.259 38.3993C111.478 38.3993 110.4 37.6979 110.026 36.2953C109.6 36.9263 109.038 37.4538 108.381 37.8389C107.721 38.2299 106.967 38.4335 106.2 38.4278C105.56 38.4488 104.924 38.3158 104.347 38.04C103.769 37.7642 103.267 37.3538 102.882 36.8434C101.977 35.5219 101.541 33.9367 101.643 32.3398C101.536 30.0337 102.145 27.7509 103.387 25.8029C103.86 25.0383 104.523 24.4075 105.31 23.9705C106.098 23.5336 106.984 23.305 107.885 23.3066C109.171 23.3352 110.394 23.8694 111.288 24.7931C111.368 24.3969 111.552 24.029 111.821 23.7269C112.222 23.5274 112.67 23.44 113.116 23.4739H113.454C114.54 23.4739 115.084 23.7081 115.085 24.1764L114.579 29.0581C114.223 32.3108 114.044 34.0312 114.044 34.2193C114.044 34.8186 114.325 35.1178 114.888 35.1169C115.06 35.1133 115.23 35.0849 115.394 35.0326C115.496 34.9985 115.599 34.9706 115.704 34.9489C115.854 34.9489 115.928 35.089 115.928 35.3692C115.899 35.8969 115.834 36.422 115.732 36.9407C115.689 37.179 115.586 37.4027 115.434 37.5913C115.282 37.78 115.085 37.9275 114.861 38.0205C114.363 38.2711 113.814 38.4009 113.257 38.3993" fill="#F2F1F0"/>
<path d="M134.802 0.360107L67.8245 7.38315H1.4552V8.50991H67.8838L134.802 1.49299V0.360107Z" fill="#EB8D4C"/>
</svg>
