<svg width="10" height="11" viewBox="0 0 10 11" fill="none" xmlns="http://www.w3.org/2000/svg">
<path d="M4.85212 0.952681L0.99373 4.92388C0.952168 4.96666 0.932178 5.02288 0.932771 5.0789C0.823719 5.21803 0.757812 5.39464 0.757812 5.58674V9.91218C0.757812 10.3585 1.1107 10.7215 1.54394 10.7215H1.65062L1.66961 10.7411L1.68901 10.7215H8.31051L8.32991 10.7411L8.34891 10.7215H8.45558C8.88922 10.7215 9.24171 10.3585 9.24171 9.91218V5.58674C9.24171 5.39444 9.176 5.21824 9.06675 5.0789C9.06754 5.02288 9.04735 4.96666 9.00579 4.92388L5.1478 0.952681C5.06943 0.872218 4.93049 0.872218 4.85212 0.952681ZM8.89278 5.58674V9.91218C8.89278 10.1291 8.74256 10.3106 8.54386 10.3526L6.28562 8.02833L8.84746 5.39159C8.87556 5.45066 8.89278 5.51646 8.89278 5.58674ZM1.10714 9.91218V5.58674C1.10714 5.51646 1.12435 5.45087 1.15246 5.39159L3.71429 8.02833L1.45606 10.3526C1.25735 10.3106 1.10714 10.1291 1.10714 9.91218ZM2.67107 4.9575H7.39871V6.39544L4.99996 8.86453L2.67107 6.46796V4.9575ZM8.56266 5.07605L7.64987 6.01574V4.82835C7.64987 4.75726 7.59386 4.6994 7.52439 4.6994H2.54579C2.47652 4.6994 2.42051 4.75726 2.42051 4.82835V6.08785L1.43746 5.07605L4.99996 1.40918L8.56266 5.07605ZM4.00998 8.33246L4.85212 9.19922C4.8913 9.23955 4.94454 9.26257 4.99996 9.26257C5.05538 9.26257 5.10861 9.23975 5.1478 9.19922L5.98994 8.33246L7.96139 10.3616H2.03853L4.00998 8.33246Z" fill="white"/>
</svg>
