<svg width="7" height="9" viewBox="0 0 7 9" fill="none" xmlns="http://www.w3.org/2000/svg">
<path fill-rule="evenodd" clip-rule="evenodd" d="M4.52592 7.88528C4.33789 8.26437 3.94689 8.52499 3.49503 8.52499C3.04314 8.52499 2.65211 8.26432 2.46411 7.88513C2.79459 7.92808 3.13997 7.94999 3.4948 7.94999C3.84972 7.94999 4.19521 7.92808 4.52592 7.88528Z" fill="white"/>
<path fill-rule="evenodd" clip-rule="evenodd" d="M4.06342 1.13772C5.11871 1.46814 5.94933 2.69632 6.16311 4.21538C6.2163 4.60572 6.35358 4.98142 6.56636 5.31895C6.65603 5.4899 6.76732 5.66648 6.86381 5.81951C7.01871 6.06504 6.96021 6.38163 6.72656 6.5621C5.94113 7.08765 4.77992 7.37498 3.49483 7.37498C2.2097 7.37498 1.04852 7.08765 0.269767 6.55425C0.0401691 6.37695 -0.0174172 6.0659 0.134699 5.82457C0.2223 5.66648 0.333592 5.4899 0.436574 5.32657C0.650359 4.98726 0.788244 4.6096 0.841633 4.21725C1.04257 2.6964 1.87146 1.46786 2.9267 1.13761C2.92233 1.10903 2.92006 1.07976 2.92006 1.04998C2.92006 0.732403 3.17751 0.474976 3.49506 0.474976C3.81263 0.474976 4.07006 0.732403 4.07006 1.04998C4.07006 1.07982 4.06779 1.10911 4.06342 1.13772Z" fill="white"/>
</svg>
