<svg width="14" height="17" viewBox="0 0 14 17" fill="none" xmlns="http://www.w3.org/2000/svg"><path d="M10.139 16.204a.293.293 0 00.2-.079l3.114-2.9a.282.282 0 00.089-.206c.03-.051.05-.11.05-.173V2.103c0-.67-.552-1.214-1.23-1.214H1.993c-.678 0-1.23.545-1.23 1.214V15.07c0 .67.552 1.214 1.23 1.214h7.928c.083 0 .158-.03.218-.08zm.291-.952v-1.115a.84.84 0 01.844-.834h1.248l-2.092 1.949zm-.85.357H1.992a.545.545 0 01-.547-.54V2.103c0-.298.245-.54.547-.54h10.37c.301 0 .546.242.546.54V12.51h-1.593c-.957 0-1.736.768-1.736 1.714v1.386z" fill="#912829"/><path d="M3.42 5.37h7.515a.34.34 0 00.341-.337v-.604a.339.339 0 00-.341-.337H3.419a.339.339 0 00-.34.337v.604a.34.34 0 00.34.336zm.068-.874h7.379v.469h-7.38v-.47zM3.42 7.482h7.515a.34.34 0 00.341-.337v-.604a.34.34 0 00-.341-.337H3.419a.339.339 0 00-.34.337v.604a.34.34 0 00.34.337zm.068-.874h7.379v.47h-7.38v-.47zM11.276 9.258v-.604a.34.34 0 00-.341-.337H3.419a.34.34 0 00-.34.337v.604c0 .186.152.337.34.337h7.516a.34.34 0 00.341-.337zm-.41-.068H3.489v-.469h7.379v.47z" fill="#912829"/></svg>
