<svg width="22" height="15" viewBox="0 0 22 15" fill="none" xmlns="http://www.w3.org/2000/svg"><path d="M21.024 12.705c.005-.124.08-3.055-1.753-4.739a.36.36 0 00-.463-.02c-.021.017-2.153 1.622-4.136.002a.36.36 0 00-.464.008c-.043.037-.625.557-1.132 1.56a.362.362 0 00-.362.045c-.088.066-2.163 1.614-4.137.002a.358.358 0 00-.336-.063 4.808 4.808 0 00-1.094-1.534.36.36 0 00-.463-.02c-.022.017-2.152 1.622-4.136.002a.36.36 0 00-.464.008C2.008 8.02.244 9.594.2 12.69a.362.362 0 00.361.366l5.79-.001a7.77 7.77 0 00-.121 1.25.364.364 0 00.36.366l7.98-.002a.36.36 0 00.36-.349c.002-.05.015-.561-.092-1.264h5.827a.362.362 0 00.36-.351zm-14.508-.373H.936c.127-1.944 1.016-3.163 1.421-3.623 1.886 1.32 3.81.403 4.5-.014.37.398.635.867.827 1.34a6.53 6.53 0 00-1.168 2.297zm.45 1.615c.127-1.944 1.015-3.163 1.42-3.623 1.886 1.319 3.81.402 4.5-.014 1.072 1.154 1.278 2.898 1.316 3.636l-7.237.002zm7.728-1.614c-.182-.74-.505-1.568-1.07-2.273.298-.655.644-1.11.857-1.351 1.886 1.32 3.81.403 4.5-.014 1.072 1.154 1.277 2.898 1.316 3.636l-5.603.002z" fill="url(#paint0_linear_353_176)"/><path d="M16.675.814c-.91 0-1.767.356-2.412 1.004a3.398 3.398 0 00-.967 1.97 3.402 3.402 0 00-2.715-1.36 3.385 3.385 0 00-2.662 1.286 3.418 3.418 0 00-3.368-2.9c-.91 0-1.767.357-2.412 1.004s-1 1.506-1 2.419a3.42 3.42 0 003.412 3.42 3.381 3.381 0 002.661-1.285 3.418 3.418 0 003.369 2.9 3.38 3.38 0 002.411-1.004 3.4 3.4 0 00.968-1.97 3.402 3.402 0 002.715 1.358h.001a3.38 3.38 0 002.411-1.003 3.422 3.422 0 00-2.412-5.84zM6.453 6.142a2.667 2.667 0 01-1.901.792h-.001a2.698 2.698 0 01-1.903-4.606 2.67 2.67 0 011.903-.792 2.7 2.7 0 011.902 4.606zm6.03 1.615a2.667 2.667 0 01-1.902.792 2.698 2.698 0 01-1.903-4.605 2.668 2.668 0 011.902-.793 2.7 2.7 0 011.902 4.606zm6.094-1.615a2.667 2.667 0 01-1.901.792 2.698 2.698 0 01-1.903-4.606 2.668 2.668 0 011.902-.792 2.7 2.7 0 011.902 4.606z" fill="url(#paint1_linear_353_176)"/><defs><linearGradient id="paint0_linear_353_176" x1=".2" y1="11.269" x2="21.026" y2="11.269" gradientUnits="userSpaceOnUse"><stop stop-color="#B53133"/><stop offset="1" stop-color="#912829"/></linearGradient><linearGradient id="paint1_linear_353_176" x1="1.139" y1="5.043" x2="20.087" y2="5.043" gradientUnits="userSpaceOnUse"><stop stop-color="#B53133"/><stop offset="1" stop-color="#912829"/></linearGradient></defs></svg>
