<svg width="24" height="21" viewBox="0 0 24 21" fill="none" xmlns="http://www.w3.org/2000/svg"><path d="M18.088.798l-2.024 2.009a4.557 4.557 0 00-.305-.032c-.725-.291-2.015-.496-3.53.66l-.035.03-.496.496c-1.87-1.26-3.356-.483-3.773-.21L6.062 1.903.19 7.73 2.416 9.94c.017.99.372 2.005 1.061 3.03.283.423.616.812.975 1.174.458.461.924.917 1.385 1.375-.501.725-.285 1.324.237 1.864.541.56 1.04.625 1.775.414a.016.016 0 01.018.007c.526.783 1.013 1.162 1.537 1.204.217.21.432.422.651.631.649.62 1.637.76 2.418.315.338-.191.395-.35.568-.622 1.322 1.1 2.204 1.12 3.243-.424a.016.016 0 01.018-.006c.734.21 1.233.145 1.775-.415.551-.57.761-1.206.145-1.987a3.773 3.773 0 01-.156-.21c.44.013.788-.265.98-.511.511-.656.48-1.345-.068-2.024.24-.24.482-.476.72-.716.36-.361.692-.75.976-1.173.69-1.026 1.044-2.04 1.061-3.031l2.226-2.209L18.088.798zM4.808 13.297c-.675-.708-1.181-1.49-1.403-2.377a4.148 4.148 0 01-.12-1.13L1.026 7.55l4.854-4.816 1.556 1.544.102.101-.006.017.751.062.05-.12c.296-.201 1.527-.879 3.17.364l2.173 2.166a.571.571 0 01.168.41c0 .155-.06.3-.17.408l-.143.142a.587.587 0 01-.825-.002l-2.223-2.217-.54.375.601.699.261.26-.767.76a.434.434 0 00-.117.202l-.038.039c-1.495 1.485-2.994 2.965-4.485 4.454-.299.298-.495.599-.59.899zm7.208 6.009c-.172.162-.35.261-.606.241-.355-.027-.601-.296-.774-.464l-.314-.31c.247-.132.506-.314.787-.547.173.272.23.43.568.622.151.086.311.15.474.193a.562.562 0 01-.135.265zm3.203-.298c-.333.388-.715.423-1.202-.026l-.224-.21a2.08 2.08 0 00.302-.24c.28-.266.554-.538.833-.806l.088.088c.459.457.52.825.203 1.194zm2.323-1.206c-.337.457-.852.466-1.313.01-.23-.226-.458-.454-.687-.68.378-.367.757-.73 1.134-1.099l.638.634c.41.408.48.794.228 1.135zm.94-2.7c-.17.425-.68.625-1.083.405a1.15 1.15 0 01-.115-.072c.364-.358.725-.72 1.087-1.079.156.207.237.435.112.745zm2.384-6.416a4.122 4.122 0 01-.12 1.13c-.223.89-.733 1.676-1.413 2.385-.922.963-1.888 1.884-2.835 2.823-.993.987-1.983 1.976-2.984 2.954-.172.168-.419.437-.773.465-.258.02-.434-.08-.606-.242-.155-.145-.204-.51-.145-.74.065-.247.286-.47.479-.667.453-.46.914-.911 1.371-1.367.223-.222.445-.444.664-.67.234-.239.916-.744.534-1.1-.352-.326-.855.303-1.067.514-.223.223-.446.444-.672.663-1.051 1.019-2.088 2.052-3.166 3.043-.487.449-.869.414-1.202.026-.316-.368-.255-.737.203-1.193 1.191-1.184 2.384-2.366 3.576-3.55.167-.166.312-.274.342-.527.023-.188-.046-.354-.24-.383-.329-.049-.471.075-.682.284-1.403 1.392-2.803 2.785-4.208 4.174-.462.456-.977.446-1.313-.01-.253-.342-.182-.728.228-1.136 1.422-1.418 2.848-2.833 4.277-4.244.234-.23.416-.488.13-.754-.272-.254-.508-.029-.716.178a1047.967 1047.967 0 01-3.297 3.27c-.146.145-.3.293-.479.39-.404.22-.913.02-1.084-.405-.176-.435.05-.712.329-.987 1.823-1.803 3.646-3.606 5.453-5.424l.747.744c.254.254.589.38.924.38.332 0 .665-.125.919-.376l.143-.141a1.278 1.278 0 00.044-1.78l-1.656-1.66-.325-.325.442-.44c.685-.518 1.295-.7 1.799-.724.922-.083 1.737.395 1.737.395l.49-.486L18.27 1.63l4.854 4.816-2.258 2.24z" fill="url(#paint0_linear_353_185)"/><defs><linearGradient id="paint0_linear_353_185" x1=".189" y1="10.505" x2="23.961" y2="10.505" gradientUnits="userSpaceOnUse"><stop stop-color="#B53133"/><stop offset="1" stop-color="#912829"/></linearGradient></defs></svg>
