<svg width="18" height="20" viewBox="0 0 18 20" fill="none" xmlns="http://www.w3.org/2000/svg">
<path d="M0.839921 0.76416H0.83936C0.752735 0.76416 0.670047 0.798049 0.609016 0.858049C0.547985 0.918327 0.513672 1.00055 0.513672 1.08583V18.8803C0.513672 19.058 0.659078 19.2019 0.838797 19.2022L17.1603 19.2358H17.1609C17.2475 19.2358 17.3302 19.2022 17.3912 19.1419C17.4525 19.0814 17.4868 18.9994 17.4868 18.9142V1.11944C17.4868 0.94166 17.3411 0.797772 17.1617 0.797494L0.839921 0.76416ZM16.8352 18.5917L1.16505 18.5594V1.4086L16.8352 1.44083V18.5917Z" fill="#B53133"/>
<path d="M5.7792 7.29607C6.2022 7.29607 6.60017 7.13384 6.8997 6.83857C7.19979 6.54301 7.36545 6.14995 7.36601 5.73162C7.36657 5.31301 7.2026 4.91884 6.90307 4.62245C6.6041 4.32579 6.20585 4.16218 5.78173 4.16162C5.78117 4.16162 5.78032 4.16162 5.77976 4.16162C4.90563 4.16162 4.19407 4.86301 4.19238 5.72607C4.19182 6.14495 4.35635 6.5394 4.65617 6.83607C4.95542 7.13218 5.35395 7.29551 5.77723 7.29579C5.77807 7.29607 5.77863 7.29607 5.7792 7.29607ZM4.84432 5.72745C4.84545 5.21884 5.26479 4.80551 5.77976 4.80551H5.7806H5.78117C6.03063 4.80607 6.2652 4.90245 6.44126 5.0769C6.6176 5.2519 6.71435 5.48384 6.71407 5.73051C6.71379 5.9769 6.6162 6.20884 6.43957 6.38273C6.26267 6.55662 6.02866 6.65218 5.77891 6.65218H5.77807C5.52832 6.65218 5.29376 6.55607 5.1177 6.38134C4.94135 6.2069 4.84404 5.9744 4.84432 5.72745Z" fill="#B53133"/>
<path d="M2.63136 14.6315H15.3908C15.5708 14.6315 15.7168 14.4874 15.7168 14.3096V14.2254V10.5985V2.83513C15.7168 2.65735 15.5708 2.51318 15.3908 2.51318H2.61308C2.4328 2.51318 2.28711 2.65735 2.28711 2.83513V14.2254C2.28711 14.2651 2.29527 14.3026 2.30848 14.3376C2.32311 14.5021 2.4612 14.6315 2.63136 14.6315ZM15.0651 13.9037V13.9876H2.95761V11.8618L4.97924 9.39235L7.43286 11.4526C7.5012 11.5098 7.5898 11.5376 7.67924 11.5273C7.76811 11.5179 7.84911 11.4726 7.90339 11.4026L11.2444 7.07346L15.0654 10.7351V13.9037H15.0651ZM2.93877 3.15707H15.0651V9.83818L11.4345 6.35874C11.3675 6.29457 11.2767 6.26207 11.1833 6.26874C11.0902 6.27568 11.0047 6.32152 10.9482 6.39457L7.59317 10.7421L5.14714 8.68846C5.0802 8.63207 4.9933 8.60541 4.90555 8.61318C4.81808 8.62124 4.73792 8.66374 4.68252 8.73124L2.93877 10.8607V3.15707Z" fill="#B53133"/>
</svg>
