<svg width="29" height="34" viewBox="0 0 29 34" fill="none" xmlns="http://www.w3.org/2000/svg"><path d="M17.427 12.2c0-3.086-2.51-5.6-5.6-5.6s-5.6 2.51-5.6 5.6c0 3.087 2.51 5.6 5.6 5.6s5.6-2.513 5.6-5.6zm-5.6 4.37a4.378 4.378 0 01-4.374-4.373c0-2.41 1.96-4.373 4.374-4.373 2.41 0 4.373 1.96 4.373 4.373a4.38 4.38 0 01-4.373 4.374z" fill="#595A59"/><path d="M21.95 17.19c.856-1.973 1.296-3.613 1.296-4.863C23.246 6.03 18.123.91 11.823.91 5.526.91.406 6.03.406 12.327c0 6.11 10.487 19.563 10.934 20.133a.61.61 0 00.966 0c.01-.01.817-1.047 1.967-2.633 1.46 1.976 3.797 3.266 6.437 3.266 4.413 0 8.003-3.59 8.003-8.003-.003-3.993-2.94-7.3-6.763-7.9zm-8.384 11.513c-.73 1.02-1.346 1.844-1.743 2.367-2.083-2.747-10.19-13.76-10.19-18.743 0-5.62 4.57-10.19 10.19-10.19 5.623 0 10.197 4.57 10.197 10.19 0 1.16-.457 2.76-1.357 4.753v.004c-4.393.023-7.96 3.603-7.96 8.003 0 1.3.32 2.526.87 3.613-.003 0-.003.003-.007.003zm7.14 3.16a6.784 6.784 0 01-6.776-6.776 6.784 6.784 0 016.776-6.777 6.784 6.784 0 016.777 6.777 6.784 6.784 0 01-6.777 6.776z" fill="#595A59"/><path d="M22.6 20.757l-1.89 1.89-1.89-1.89a.612.612 0 00-.867 0l-1.57 1.57a.612.612 0 000 .867l1.89 1.89-1.89 1.89a.612.612 0 000 .866l1.57 1.57c.24.24.627.24.867 0l1.89-1.89 1.89 1.89c.24.24.627.24.866 0l1.57-1.57a.612.612 0 000-.866l-1.89-1.89 1.89-1.89a.612.612 0 000-.867l-1.57-1.57a.612.612 0 00-.866 0zm1.133 2.003l-1.89 1.89a.612.612 0 000 .867l1.89 1.89-.7.707-1.89-1.89a.612.612 0 00-.867 0l-1.89 1.89-.703-.704 1.89-1.89a.612.612 0 000-.866l-1.89-1.89.704-.703 1.89 1.89c.24.24.626.24.866 0l1.89-1.89.7.7z" fill="#B53133"/></svg>