<svg width="19" height="16" viewBox="0 0 19 16" fill="none" xmlns="http://www.w3.org/2000/svg"><path d="M18.081 9.332a.351.351 0 00-.285-.148c-.872 0-1.467-.478-2.156-1.032-.15-.12-.301-.243-.457-.36-.64-.484-1.45-.978-2.612-.978-.5 0-.883.005-1.197.016H8.927c-.552 0-1.001.475-1.001 1.06 0 .585.45 1.061 1.001 1.061h2.263c.29.066.498.348.498.683 0 .24-.113.461-.297.589l-.836.24c-.281.073-.568.155-.867.248l-.058.017c-1.554.445-2.088.594-2.247.637a.92.92 0 01-.16-.007L3.67 8.865l-.648-.508a1.543 1.543 0 00-.36-.185 1.348 1.348 0 00-.179-.043 1.162 1.162 0 00-.437.007C1.329 8.215.79 8.846.79 9.614c0 .389.142.756.4 1.036l.018.02c.095.1.2.183.31.248l5.9 4.633a.352.352 0 00.106.057l.059.025a1.478 1.478 0 00.843.067l.022-.005.027-.007a1350.365 1350.365 0 017.784-2.132l.116-.046c.63-.17 1.132-.265 1.415-.265.196 0 .354-.16.354-.359v-.234a.352.352 0 00.005-.065l-.005-2.984a.364.364 0 00-.064-.271zm-.641 3.22a9.295 9.295 0 00-1.304.283l-.114.045c-1.822.487-5.623 1.532-7.733 2.115l-.017.004a.758.758 0 01-.431-.036l-.029-.011-5.88-4.617a.319.319 0 00-.046-.032.726.726 0 01-.166-.13l-.008-.009a.799.799 0 01-.214-.55c0-.401.273-.73.635-.764a.336.336 0 00.041-.007.567.567 0 01.273.013c.028.009.059.023.093.042.021.012.043.023.063.038l.007.005.637.498.015.011 3.617 2.54a.347.347 0 00.112.053c.134.035.286.047.464.038a.37.37 0 00.066-.01c.166-.042.94-.262 2.301-.652l.067-.019c.295-.092.57-.171.85-.244l.894-.257a.359.359 0 00.083-.036c.419-.25.68-.722.68-1.23 0-.694-.468-1.28-1.11-1.395a.333.333 0 00-.062-.005H8.927c-.162 0-.294-.154-.294-.343 0-.189.132-.342.294-.342h2.458c.313-.01.701-.016 1.186-.016.953 0 1.616.402 2.19.835.15.114.296.232.44.348.646.519 1.311 1.054 2.236 1.166v2.312l.005.343-.002.015z" fill="url(#paint0_linear_225_101)"/><path d="M2.764.492v7.975h.001c.01.006.02.011.03.02.18.144.37.276.556.413V1.089h12.015v7.525c.179.106.342.235.487.383l.1.048V.492H2.764z" fill="url(#paint1_linear_225_101)"/><path d="M7.525 4.745V.492h3.667v4.253L9.36 4.052l-1.834.693zm1.834-1.33l1.246.472V1.089H8.113v2.798l1.246-.472z" fill="url(#paint2_linear_225_101)"/><path d="M13.936 5.787c0-.247.197-.447.44-.447.244 0 .441.2.441.447a.444.444 0 01-.44.448c-.244 0-.44-.2-.44-.448zm-1.467 0c0-.247.196-.447.44-.447.243 0 .44.2.44.447a.444.444 0 01-.44.448c-.244 0-.44-.2-.44-.448zm-1.468 0c0-.247.196-.447.44-.447.243 0 .44.2.44.447a.444.444 0 01-.44.448c-.244 0-.44-.2-.44-.448zm-1.468 0c0-.247.197-.447.44-.447s.44.2.44.447a.444.444 0 01-.44.448c-.243 0-.44-.2-.44-.448z" fill="url(#paint3_linear_225_101)"/><defs><linearGradient id="paint0_linear_225_101" x1=".791" y1="11.274" x2="18.149" y2="11.274" gradientUnits="userSpaceOnUse"><stop stop-color="#B53133"/><stop offset="1" stop-color="#912829"/></linearGradient><linearGradient id="paint1_linear_225_101" x1="2.764" y1="4.769" x2="15.953" y2="4.769" gradientUnits="userSpaceOnUse"><stop stop-color="#B53133"/><stop offset="1" stop-color="#912829"/></linearGradient><linearGradient id="paint2_linear_225_101" x1="7.525" y1="2.619" x2="11.192" y2="2.619" gradientUnits="userSpaceOnUse"><stop stop-color="#B53133"/><stop offset="1" stop-color="#912829"/></linearGradient><linearGradient id="paint3_linear_225_101" x1="9.533" y1="5.787" x2="14.817" y2="5.787" gradientUnits="userSpaceOnUse"><stop stop-color="#B53133"/><stop offset="1" stop-color="#912829"/></linearGradient></defs></svg>
