<svg width="190" height="198" viewBox="0 0 190 198" fill="none" xmlns="http://www.w3.org/2000/svg"><path d="M28.625 104.369c-36.916 21.273-36.913 55.767.002 77.04 36.915 21.273 96.766 21.273 133.682 0 36.915-21.273 36.912-55.767-.003-77.04-36.915-21.273-96.769-21.276-133.681 0z" fill="#FAFAFA"/><path d="M13.322 146.235c-.015.005-.287.211-.89.269-.464.046-.95-.025-1.3-.228-.59-.34-1.06-1.195-1.06-1.913l-.006-69.048 2.128 1.225v69.043c0 .51.256.807.628.807.053-.003.254-.018.5-.155z" fill="#E7E7E7"/><path d="M12.82 146.124c-.324 0-.36-.378-.36-.541V69.348L116.27 9.524V85.45c0 .627-.455 1.416-.996 1.725L13.19 146.005a.76.76 0 01-.37.12z" fill="#FAFAFA"/><path d="M116.003 9.986V85.45c0 .533-.404 1.233-.865 1.497L13.055 145.773a.497.497 0 01-.236.082c-.092 0-.094-.272-.094-.274V69.503L116.003 9.985zm.533-.92L12.193 69.195v76.387c0 .51.257.807.626.807.152 0 .322-.051.503-.155l102.083-58.826c.628-.36 1.129-1.238 1.129-1.956V9.065h.002z" fill="#EBEBEB"/><path d="M11.13 72.671c-.586-.337-1.06-1.195-1.06-1.915l-.002-8.816c0-.72.509-1.596 1.134-1.956L113.283 1.157c.625-.36 1.606-.378 2.193-.04.587.337 1.063 1.195 1.06 1.915v8.816c.003.72-.506 1.596-1.128 1.956L13.322 72.628c-.626.36-1.607.38-2.191.043z" fill="#D268CC"/><path d="M116.526 2.847c-.079-.584-.554-.8-1.119-.47L13.321 61.208c-.307.182-.59.49-.8.844l-2.123-1.225c.209-.355.486-.657.801-.84L113.283 1.16c.622-.36 1.603-.38 2.188-.04.541.309.986 1.05 1.055 1.727z" fill="#912829"/><path d="M12.524 62.051c-.203.35-.33.751-.33 1.111V76.54l-2.128-1.225V61.94c0-.046.003-.09.005-.137.008-.107.023-.186.044-.28.058-.235.155-.484.284-.697l2.125 1.225z" fill="#912829"/><path d="M116.538 3.03v6.035L46.573 49.422c-.622.36-1.128.068-1.128-.652v-2.284c0-.72-.506-1.012-1.134-.651L17.573 61.206c-.628.36-1.134 1.236-1.134 1.956v2.284c0 .72-.505 1.596-1.128 1.956l-3.114 1.793V63.16c0-.72.506-1.596 1.129-1.956L115.409 2.378c.62-.36 1.129-.069 1.129.652z" fill="#B53133"/><path d="M113.296 6.267c.481-.277.867-.053.867.5s-.389 1.225-.867 1.499c-.48.277-.866.053-.866-.5-.003-.553.386-1.225.866-1.5zm-3.127 1.796c.481-.276.867-.053.867.5s-.389 1.225-.867 1.5c-.48.276-.866.053-.866-.5 0-.551.389-1.223.866-1.5zm-3.123 1.799c.481-.277.867-.053.867.5s-.389 1.225-.867 1.499c-.48.277-.866.053-.866-.5 0-.55.386-1.223.866-1.5z" fill="#fff"/><path d="M116.536 9.065v7.345L12.193 76.54v-7.345l2.326-1.344c.623-.36.831-.908 1.129-1.956l.787-2.735c.25-.949.506-1.596 1.134-1.956l26.278-15.108c.628-.36 1.116-.398 1.594.388l.968 1.753c.356.611.534.972 1.154.611l68.973-39.783z" fill="#E0E0E0"/><path d="M12.194 69.195v7.345l-2.128-1.228v-7.337l2.128 1.22z" fill="#E0E0E0"/><path opacity=".15" d="M12.194 69.195v7.345l-2.128-1.228v-7.337l2.128 1.22z" fill="#000"/><path opacity=".5" d="M17.384 69.726l-1.776 1.022.676-1.299c.058-.114.066-.256.012-.317-.05-.06-.142-.018-.2.096l-.964 1.85-.002.008c-.01.02-.018.045-.026.068l-.007.023a.402.402 0 00-.013.096c0 .03.005.059.013.082l.007.012a.11.11 0 00.026.038l.002.005.964.739c.027.02.06.02.094 0a.279.279 0 00.106-.137c.054-.122.046-.257-.012-.302l-.676-.52 1.776-1.023c.079-.045.142-.18.142-.302 0-.124-.063-.185-.142-.14zm1.483-.856l1.777-1.022-.676-.52c-.059-.045-.067-.18-.013-.302.05-.121.142-.182.2-.137l.964.739s.002.002.002.005c.01.01.018.023.026.038l.007.012a.252.252 0 01.013.082.433.433 0 01-.02.119c-.008.023-.015.046-.026.068l-.002.008-.963 1.85a.274.274 0 01-.095.109c-.04.022-.078.02-.106-.013-.054-.061-.046-.203.013-.317l.676-1.3-1.777 1.023c-.079.046-.142-.015-.142-.137 0-.124.063-.258.142-.304zm5.828-5.104c-.01-.106-.105-.094-.153.023l-.244.594c-.414-.046-.917.36-1.255 1.076-.44.928-.44 2.03 0 2.45.218.21.508.213.798.048.29-.167.577-.502.798-.966.056-.117.056-.256 0-.31-.056-.053-.148-.002-.201.117-.328.693-.862 1.002-1.192.688-.328-.315-.328-1.137 0-1.832.234-.495.57-.787.864-.804l-.183.446c-.048.117-.005.223.071.175l.725-.472c.05-.033.089-.124.081-.198l-.11-1.035zM43.072 49.45l.648-1.368c.076-.162.076-.352 0-.426-.076-.073-.2-.002-.277.16l-.648 1.367-.648-.621c-.076-.074-.201-.003-.277.16-.077.162-.077.352 0 .426l.648.621-.648 1.368c-.077.162-.077.353 0 .426.038.036.089.038.14.008a.37.37 0 00.137-.168l.648-1.367.648.621c.038.039.089.039.137.008a.38.38 0 00.14-.167c.076-.163.076-.353 0-.427l-.648-.621z" fill="#455A64"/><path d="M27.05 65.446V63.16c0-.72.507-1.596 1.132-1.956l80.858-46.568c.625-.36 1.131-.068 1.131.653v2.285c0 .721-.506 1.596-1.131 1.956L28.182 66.099c-.625.36-1.131.068-1.131-.652z" fill="#FAFAFA"/><path d="M107.501 19.706a.254.254 0 01-.101-.02c-.097-.041-.193-.15-.171-.343l.112-.926-.434-.315a.3.3 0 01-.12-.251.518.518 0 01.186-.396l.663-.512a.153.153 0 00.031-.054l.297-.971c.053-.178.188-.305.335-.315a.268.268 0 01.26.157l.249.528.561-.215a.265.265 0 01.3.068c.097.11.102.292.016.457l-.481.9a.15.15 0 00-.015.056l.114.815a.507.507 0 01-.142.405.302.302 0 01-.264.102l-.544-.066-.587.748c-.084.11-.181.148-.265.148zm-.32-1.888l.435.312c.089.066.132.183.117.312l-.074.617.391-.5c.082-.104.183-.158.298-.142l.544.066a.15.15 0 00.02-.061l-.114-.815a.5.5 0 01.058-.291l.419-.79-.432.166a.268.268 0 01-.345-.137l-.196-.416-.264.865a.49.49 0 01-.166.246l-.663.51a.21.21 0 00-.028.058z" fill="#E0E0E0"/><path d="M111.505 14.357a.392.392 0 01-.198-.73l3.184-1.835a.392.392 0 11.394.677l-3.184 1.835a.368.368 0 01-.196.053zm0 1.837a.392.392 0 01-.198-.73l3.184-1.835a.392.392 0 11.394.677l-3.184 1.835a.393.393 0 01-.196.053zm0 1.835a.392.392 0 01-.198-.73l3.184-1.835a.392.392 0 11.394.677l-3.184 1.834a.37.37 0 01-.196.054z" opacity=".5" fill="#455A64"/><path d="M16.13 78.808l96.47-55.594v61.267l-96.467 55.594-.002-61.267z" fill="#B53133"/><path opacity=".2" d="M43.266 95.048c-.287-.814-.49-1.735-.49-3.047 0-2.913 1.057-5.348 1.057-5.348l-1.972-3.05a13.55 13.55 0 01-1.375 1.081V79.36c0-2.108-.798-3.778-2.191-4.58-1.33-.766-2.971-.662-4.626.292-3.04 1.753-5.421 6.028-5.421 9.732v6.845c0 .013.005.026.007.038-.948.698-1.96 1.223-3.014 1.495l-1.973 5.325s1.058 1.218 1.058 4.13c0 1.312-.204 2.466-.49 3.61-.362 1.439-.824 2.926-.824 5.407 0 1.684.22 3.318 1.075 4.808 1.342 2.344 4.3 3.704 9.465 3.645 5.165-5.896 8.123-10.665 9.465-14.555.852-2.471 1.075-4.363 1.075-6.046-.002-2.48-.465-3.435-.826-4.457zm-9.716-9.943a23.146 23.146 0 01-2.514 3.867v-4.169c0-2.71 1.843-6.063 4.026-7.319.745-.429 1.413-.535 1.835-.292.498.287.795 1.096.795 2.167v6.594c-1.662.37-3.083-.033-4.142-.848z" fill="#000"/><path d="M46.937 86.526c-3.46 3.1-6.445 2.938-8.311 1.502-1.866 3.587-4.852 7.19-8.311 8.078l-1.973 5.323s1.058 1.217 1.058 4.13c0 1.312-.201 2.466-.488 3.613-.361 1.436-.824 2.922-.824 5.406 0 1.685.224 3.321 1.075 4.808.493.86 1.205 1.59 2.163 2.161a3955.52 3955.52 0 00-3.002-1.73c-1.016-.583-1.763-1.334-2.274-2.227-.854-1.492-1.075-3.126-1.075-4.808 0-2.481.465-3.968.823-5.407.287-1.144.49-2.298.49-3.61 0-2.912-1.057-4.13-1.057-4.13l1.973-5.323c3.459-.885 6.445-4.488 8.31-8.078 1.869 1.436 4.855 1.599 8.312-1.502l3.111 1.794z" fill="#37474F"/><path opacity=".8" d="M36.605 86.863l-1.095-.631c.333.256.699.47 1.095.631z" fill="#fff"/><path opacity=".85" d="M43.824 84.732c-2.847 2.55-5.37 2.893-7.218 2.134l2.02 1.165c1.868 1.435 4.855 1.598 8.311-1.502l-3.113-1.797z" fill="#fff"/><path opacity=".65" d="M35.508 86.234c-1.865 3.588-4.852 7.19-8.31 8.078l3.115 1.794c3.46-.886 6.446-4.488 8.312-8.078l-3.117-1.794z" fill="#fff"/><path opacity=".55" d="M27.2 94.31l-1.971 5.325 3.113 1.794 1.972-5.323-3.113-1.796z" fill="#E0E0E0"/><path opacity=".4" d="M29.16 119.386c-.854-1.49-1.075-3.126-1.075-4.808 0-2.481.465-3.968.823-5.406.287-1.147.488-2.301.488-3.613 0-2.913-1.057-4.13-1.057-4.13l-3.113-1.794s1.057 1.218 1.057 4.13c0 1.312-.204 2.466-.49 3.61-.362 1.439-.824 2.926-.824 5.407 0 1.684.22 3.318 1.075 4.808.51.893 1.26 1.643 2.275 2.227l3.001 1.73c-.955-.571-1.667-1.301-2.16-2.161z" fill="#fff"/><path d="M38.624 123.031c-5.164.059-8.123-1.301-9.465-3.645-.851-1.49-1.075-3.126-1.075-4.808 0-2.481.463-3.968.823-5.406.288-1.145.491-2.299.491-3.611 0-2.912-1.057-4.13-1.057-4.13l1.972-5.325c3.46-.885 6.446-4.49 8.311-8.078 1.866 1.436 4.852 1.598 8.311-1.502l1.973 3.05s-1.058 2.435-1.058 5.348c0 1.311.204 2.232.491 3.047.361 1.022.824 1.976.824 4.457 0 1.685-.222 3.575-1.076 6.048-1.339 3.89-4.3 8.659-9.465 14.555z" fill="#E0E0E0"/><path opacity=".75" d="M38.624 123.031c-5.164.059-8.123-1.301-9.465-3.645-.851-1.49-1.075-3.126-1.075-4.808 0-2.481.463-3.968.823-5.406.288-1.145.491-2.299.491-3.611 0-2.912-1.057-4.13-1.057-4.13l1.972-5.325c3.46-.885 6.446-4.49 8.311-8.078 1.866 1.436 4.852 1.598 8.311-1.502l1.973 3.05s-1.058 2.435-1.058 5.348c0 1.311.204 2.232.491 3.047.361 1.022.824 1.976.824 4.457 0 1.685-.222 3.575-1.076 6.048-1.339 3.89-4.3 8.659-9.465 14.555z" fill="#fff"/><path opacity=".75" d="M38.014 121.692c-4.001-.048-6.589-1.045-7.69-2.971-.62-1.086-.896-2.364-.896-4.145 0-2.038.335-3.337.658-4.593l.125-.487c.366-1.461.53-2.674.53-3.937 0-2.121-.508-3.511-.912-4.28l1.515-4.085c3.7-1.284 6.377-4.932 7.793-7.324a6.119 6.119 0 002.414.487c1.673 0 3.373-.622 5.069-1.85l.795 1.23c-.346.998-.905 2.96-.905 5.19 0 1.303.176 2.381.567 3.49.04.12.084.236.127.353.318.867.62 1.687.62 3.658 0 1.872-.31 3.603-1.001 5.612-1.322 3.828-4.285 8.421-8.81 13.652z" fill="#000"/><path opacity=".4" d="M38.014 121.692c-4.001-.048-6.589-1.045-7.69-2.971-.62-1.086-.896-2.364-.896-4.145 0-2.038.335-3.337.658-4.593l.125-.487c.366-1.461.53-2.674.53-3.937 0-2.121-.508-3.511-.912-4.28l1.515-4.085c3.7-1.284 6.377-4.932 7.793-7.324a6.119 6.119 0 002.414.487c1.673 0 3.373-.622 5.069-1.85l.795 1.23c-.346.998-.905 2.96-.905 5.19 0 1.303.176 2.381.567 3.49.04.12.084.236.127.353.318.867.62 1.687.62 3.658 0 1.872-.31 3.603-1.001 5.612-1.322 3.828-4.285 8.421-8.81 13.652z" fill="#fff"/><path opacity=".15" d="M38.451 121.253c-4-.048-6.588-1.045-7.689-2.971-.62-1.086-.897-2.364-.897-4.145 0-2.038.336-3.337.659-4.592.043-.165.083-.328.124-.488.366-1.461.531-2.674.531-3.937 0-2.121-.508-3.511-.912-4.28l1.515-4.085c3.7-1.283 6.377-4.932 7.792-7.324a6.119 6.119 0 002.415.487c1.672 0 3.373-.622 5.068-1.85l.796 1.231c-.346.997-.905 2.958-.905 5.188 0 1.304.175 2.383.567 3.491.04.12.083.236.127.353.317.867.62 1.687.62 3.658 0 1.873-.31 3.603-1.002 5.612-1.321 3.829-4.282 8.421-8.809 13.652z" fill="#E0E0E0"/><path opacity=".8" d="M31.24 119.827c1.363 1.2 3.63 1.827 6.771 1.865l-2.005-1.142c-1.795-.01-3.39-.241-4.766-.723z" fill="#fff"/><path opacity=".25" d="M46.372 89.134l1.044.601-.795-1.23-.455.312.206.317z" fill="#D268CC"/><path d="M46.032 97.816c-.391-1.109-.566-2.187-.566-3.491 0-2.23.561-4.194.904-5.188l-.203-.317c-1.545 1.02-3.093 1.537-4.616 1.537a6.11 6.11 0 01-2.414-.487c-1.418 2.392-4.092 6.04-7.793 7.324l-1.515 4.085c.404.769.913 2.159.913 4.28 0 1.261-.163 2.476-.531 3.937-.041.163-.082.325-.125.487-.323 1.256-.658 2.555-.658 4.592 0 1.781.277 3.06.897 4.146.313.548.75 1.017 1.301 1.413 1.337.609 3.121.929 5.343.957 4.527-5.232 7.488-9.824 8.807-13.652.691-2.01 1.001-3.74 1.001-5.612 0-1.971-.3-2.79-.62-3.659-.04-.119-.084-.236-.125-.352z" fill="#FAFAFA" opacity=".58"/><path d="M43.424 87.437s0-.003 0 0v-6.81c0-2.108-.798-3.777-2.191-4.579-1.33-.766-2.971-.662-4.626.292-3.04 1.753-5.421 6.028-5.421 9.732v6.845c0 .205.137.41.409.568.544.315 1.428.315 1.972 0 .272-.157.41-.363.41-.568v-6.845c0-2.71 1.842-6.064 4.025-7.32.745-.428 1.413-.535 1.835-.291.498.287.796 1.096.796 2.166v6.812c.002.203.14.409.41.564.543.314 1.428.314 1.971 0 .27-.155.407-.36.41-.564v-.002z" fill="#F5F5F5"/><path d="M40.487 110.813l-4.847 2.793.75-8.75c-.58-.307-.949-1.058-.949-2.139 0-1.928 1.175-4.165 2.62-5 1.447-.835 2.621.05 2.621 1.979 0 1.081-.368 2.26-.948 3.235l.753 7.882z" fill="#F8F8F8"/><path opacity=".25" d="M40.487 110.813l-4.847 2.793.75-8.75c-.58-.307-.949-1.058-.949-2.139 0-1.928 1.175-4.165 2.62-5 1.447-.835 2.621.05 2.621 1.979 0 1.081-.368 2.26-.948 3.235l.753 7.882z" fill="#000"/><path opacity=".15" d="M40.488 110.813l-4.39-2.529-.457 5.322 4.847-2.793zm-2.424-13.096c-.948.545-1.774 1.695-2.234 2.961l3.907 2.253c.58-.975.948-2.154.948-3.235 0-1.928-1.175-2.814-2.62-1.98z" fill="#000"/><path d="M68.002 62.328c.049-.028.09-.028.125-.003.035.028.05.071.05.135v.92c0 .064-.017.13-.05.196a.347.347 0 01-.125.142l-3.098 1.786c-.048.028-.09.028-.125.003-.035-.026-.05-.071-.05-.135v-5.617c0-.063.017-.13.05-.195a.347.347 0 01.125-.142l3.045-1.756c.048-.028.089-.028.124-.002.036.028.054.07.054.134v.921c0 .063-.018.13-.054.195a.35.35 0 01-.124.143l-2.013 1.159v.939l1.868-1.076c.048-.028.089-.028.124-.003.036.026.054.071.054.135v.92c0 .064-.018.13-.053.196a.348.348 0 01-.125.142l-1.868 1.076v.974l2.066-1.187zm4.333-1.34c0 .064-.018.13-.053.196a.348.348 0 01-.125.142l-.824.474c-.048.028-.089.028-.124.003-.036-.026-.053-.071-.053-.135v-2.2c0-.248-.046-.423-.138-.52-.091-.099-.236-.09-.432.023a.998.998 0 00-.427.472 1.67 1.67 0 00-.135.678v2.2a.406.406 0 01-.053.195.348.348 0 01-.124.142l-.824.474c-.048.028-.089.028-.124.003-.036-.028-.051-.072-.051-.135v-4.05a.44.44 0 01.05-.196.348.348 0 01.125-.142l.79-.457c.049-.028.09-.028.125-.002.036.025.053.07.053.134v.2c.036-.078.08-.164.13-.258.053-.094.114-.188.19-.28a2.33 2.33 0 01.26-.27 1.92 1.92 0 01.343-.247c.208-.119.402-.192.575-.213a.609.609 0 01.447.102c.124.091.22.24.29.449.068.208.104.484.104.827v2.392h.005zm2.261-2.834c0 .135.023.224.066.272.043.048.115.043.216-.015l.524-.302c.048-.028.089-.028.124-.003.036.026.051.071.051.135v.877a.44.44 0 01-.05.196.35.35 0 01-.125.142l-.62.358a1.534 1.534 0 01-.56.205.611.611 0 01-.426-.094.79.79 0 01-.275-.38 1.883 1.883 0 01-.099-.663v-1.46l-.483.278c-.048.028-.089.028-.124.003-.036-.026-.051-.071-.051-.135v-.877a.44.44 0 01.05-.196.349.349 0 01.125-.142l.483-.279v-1.418c0-.064.018-.13.053-.196a.348.348 0 01.125-.142l.823-.474c.049-.028.09-.028.125-.003.035.026.053.071.053.135v1.418l.74-.426c.048-.028.089-.028.125-.003.035.026.05.071.05.135v.878a.438.438 0 01-.05.195.348.348 0 01-.125.142l-.74.426v1.413h-.005zm2.553-1.471c0 .134.018.233.056.3a.26.26 0 00.14.126c.055.02.119.02.19 0a.94.94 0 00.204-.086 1.46 1.46 0 00.31-.231c.076-.079.14-.165.193-.259a1.79 1.79 0 01.104-.16.395.395 0 01.112-.086l.849-.49c.096-.055.145-.02.145.11 0 .068-.033.195-.097.373-.066.18-.165.383-.305.608-.137.226-.315.46-.531.693a3.285 3.285 0 01-.778.614c-.282.162-.534.254-.755.274a.763.763 0 01-.556-.145c-.15-.116-.265-.296-.341-.543a3.13 3.13 0 01-.114-.916c0-.334.038-.67.114-1 .076-.329.19-.644.34-.938.15-.294.336-.566.557-.812.221-.246.47-.449.755-.614.318-.182.59-.268.813-.256a.804.804 0 01.55.236c.142.145.243.34.307.584.064.243.094.505.094.784v.243c0 .064-.018.13-.053.196a.348.348 0 01-.125.142l-2.178 1.253zm.587-2.01a1.038 1.038 0 00-.42.46 1.72 1.72 0 00-.17.583l1.177-.677c-.018-.17-.074-.3-.17-.388-.094-.09-.234-.082-.417.022zm4.731-3.813c.048-.027.089-.027.125-.002.035.025.053.07.053.134v.878c0 .064-.018.13-.053.196a.348.348 0 01-.125.142l-.595.342c-.401.23-.6.614-.6 1.147v2.139a.406.406 0 01-.053.195.348.348 0 01-.124.142l-.824.474c-.048.028-.089.028-.124.003-.036-.026-.051-.071-.051-.135v-4.051a.44.44 0 01.05-.196.348.348 0 01.125-.142l.757-.436c.049-.028.09-.028.125-.003.036.026.053.072.053.135v.2c.1-.185.221-.36.364-.522.142-.163.31-.302.506-.414l.391-.226zm1.812-.337a4.44 4.44 0 01.16-1.01 4.41 4.41 0 011.027-1.842c.247-.266.531-.492.851-.677.318-.183.6-.284.85-.302.248-.018.457.028.63.142.172.112.305.284.399.518.094.233.147.507.16.824a24.758 24.758 0 010 1.548 4.44 4.44 0 01-.16 1.01c-.094.34-.227.67-.4.981a4.274 4.274 0 01-.63.868c-.249.264-.53.49-.849.672-.322.185-.607.29-.851.31a.963.963 0 01-.628-.142 1.09 1.09 0 01-.399-.523 2.465 2.465 0 01-.16-.824c-.01-.234-.013-.485-.013-.759-.002-.276.003-.54.013-.794zm2.867-.15c.005-.106.008-.226.013-.355.005-.13.005-.261.005-.396 0-.132-.003-.261-.005-.383-.005-.122-.008-.23-.013-.327a1.401 1.401 0 00-.069-.36.498.498 0 00-.157-.229.378.378 0 00-.252-.068.847.847 0 00-.353.124 1.541 1.541 0 00-.605.64c-.069.129-.12.266-.158.408a2.18 2.18 0 00-.068.439 4.618 4.618 0 00-.015.345c-.003.127-.003.256-.003.388 0 .135 0 .264.003.39.002.128.007.24.015.338.017.28.091.477.226.591.132.114.333.094.605-.06.27-.155.47-.368.6-.635a2.15 2.15 0 00.231-.85zm5.254-6.801c.049-.028.09-.028.125-.003.035.028.05.071.05.137v.92c0 .064-.017.13-.05.196a.348.348 0 01-.125.142l-1.149.663v4.46a.438.438 0 01-.05.195.348.348 0 01-.125.142l-.856.492c-.049.028-.09.028-.125.003-.036-.026-.053-.071-.053-.135v-4.462l-1.15.662c-.047.028-.088.028-.124.002-.035-.025-.053-.07-.053-.134v-.921c0-.063.018-.13.053-.195a.348.348 0 01.125-.142L92.4 43.57zm2.808-1.619c.28-.16.529-.264.752-.307.222-.043.412-.026.57.056.157.08.277.223.363.428.084.209.127.477.127.815 0 .342-.043.664-.127.969a3.305 3.305 0 01-.363.845 3.536 3.536 0 01-.57.71 3.805 3.805 0 01-.752.563l-.836.482v1.774c0 .063-.018.13-.053.195a.348.348 0 01-.125.142l-.856.492c-.049.028-.09.028-.125.003-.036-.028-.05-.071-.05-.134v-5.617a.44.44 0 01.05-.196.348.348 0 01.125-.142l1.87-1.078zm-.836 3.204l.803-.464a1.37 1.37 0 00.455-.424c.12-.175.18-.386.18-.629 0-.244-.06-.386-.18-.424-.12-.038-.272-.005-.455.102l-.803.464v1.375zM58.404 73.63l-.188.977a.387.387 0 01-.028.086.117.117 0 01-.048.056l-.178.102c-.02.012-.038.012-.05.002a.104.104 0 01-.026-.056l-.28-1.67c-.003-.007-.003-.014-.003-.022 0-.02.006-.043.018-.066a.132.132 0 01.041-.048l.163-.094a.061.061 0 01.04-.008c.013.005.023.02.026.046l.183 1.124.162-.868a.518.518 0 01.02-.063.124.124 0 01.057-.064l.178-.103c.025-.016.045-.016.056 0 .01.015.017.027.02.04l.16.683.183-1.335a.191.191 0 01.025-.076.154.154 0 01.041-.04l.16-.095c.015-.01.03-.01.04 0 .014.01.019.023.019.046 0 .005 0 .015-.003.026l-.28 1.991a.287.287 0 01-.025.086.123.123 0 01-.05.056l-.179.102c-.023.012-.038.012-.048 0a.164.164 0 01-.028-.056l-.178-.759zm.914-.314c0-.11.013-.219.038-.328a1.64 1.64 0 01.107-.312 1.26 1.26 0 01.168-.264.808.808 0 01.221-.187.434.434 0 01.221-.069.259.259 0 01.168.064c.046.04.081.099.107.172a.82.82 0 01.038.261v.13c0 .02-.005.043-.018.066a.133.133 0 01-.04.048l-.728.419a.26.26 0 00.02.106.113.113 0 00.057.053c.023.01.05.013.081.006a.262.262 0 00.094-.038.74.74 0 00.115-.084.436.436 0 00.07-.089.292.292 0 01.039-.053.136.136 0 01.04-.033l.176-.102c.015-.01.03-.01.043-.002.013.007.018.023.015.045a.534.534 0 01-.033.125c-.02.053-.053.114-.094.18-.043.066-.094.13-.155.195a.964.964 0 01-.213.168.466.466 0 01-.221.07.234.234 0 01-.168-.063.415.415 0 01-.107-.188.933.933 0 01-.04-.296zm.534-.744a.47.47 0 00-.185.193.624.624 0 00-.066.218l.493-.284a.464.464 0 00-.016-.081.122.122 0 00-.038-.063.108.108 0 00-.071-.023.258.258 0 00-.117.04zm1.888-.329c0-.02-.004-.036-.014-.044-.01-.007-.028-.01-.054-.007a.587.587 0 00-.101.023 7.312 7.312 0 01-.163.045.434.434 0 01-.16.02.178.178 0 01-.102-.043.194.194 0 01-.053-.101.669.669 0 01.015-.34.928.928 0 01.089-.2 1.09 1.09 0 01.14-.188.844.844 0 01.381-.228.295.295 0 01.142.002.177.177 0 01.092.069c.02.032.033.07.035.116a.117.117 0 01-.015.064.116.116 0 01-.043.048l-.168.096c-.023.013-.038.018-.048.013l-.036-.015a.112.112 0 00-.053-.005.453.453 0 00-.214.134.175.175 0 00-.05.122c0 .02.002.038.012.046.008.01.023.015.046.012a.737.737 0 00.094-.017c.04-.01.092-.026.155-.046.13-.038.221-.033.275.015.053.048.078.13.078.246 0 .058-.01.122-.033.19a.976.976 0 01-.247.396.946.946 0 01-.202.157.666.666 0 01-.204.082.29.29 0 01-.15-.008.186.186 0 01-.094-.076.244.244 0 01-.035-.122.17.17 0 01.015-.066.137.137 0 01.043-.048l.168-.096c.023-.013.038-.016.048-.008.01.008.023.015.038.025a.08.08 0 00.059.013.275.275 0 00.112-.043.544.544 0 00.068-.046c.023-.018.046-.035.064-.056.02-.02.035-.04.048-.063a.137.137 0 00.023-.069zm.461-.589a1.538 1.538 0 01.145-.637c.046-.099.102-.185.168-.264a.808.808 0 01.22-.188.462.462 0 01.222-.068.271.271 0 01.168.06.42.42 0 01.107.174.82.82 0 01.038.26v.13c0 .02-.005.043-.018.066a.131.131 0 01-.04.048l-.73.419c0 .046.007.079.02.106a.114.114 0 00.056.054c.023.01.05.012.081.005a.306.306 0 00.094-.036.745.745 0 00.115-.083.552.552 0 00.07-.09.296.296 0 01.04-.052.135.135 0 01.04-.034l.175-.098a.04.04 0 01.043-.003c.013.008.018.023.016.046a.539.539 0 01-.034.124 1.131 1.131 0 01-.249.376.99.99 0 01-.213.167.467.467 0 01-.221.071.235.235 0 01-.168-.063.431.431 0 01-.107-.188 1.064 1.064 0 01-.038-.302zm.534-.743a.47.47 0 00-.186.192.63.63 0 00-.066.218l.493-.284a.448.448 0 00-.015-.08.122.122 0 00-.038-.064.109.109 0 00-.071-.023.258.258 0 00-.117.04zm1.837.053c0 .02-.005.043-.018.066a.131.131 0 01-.04.048l-.165.096c-.016.01-.031.01-.041 0-.013-.007-.018-.022-.018-.045v-.739c0-.116-.02-.197-.06-.243-.042-.046-.105-.046-.189.002a.47.47 0 00-.183.211.716.716 0 00-.066.317v.738c0 .02-.005.044-.018.066a.131.131 0 01-.04.049l-.166.096c-.015.01-.03.01-.04 0-.013-.008-.018-.023-.018-.046v-1.352c0-.02.005-.043.018-.066a.133.133 0 01.04-.048l.165-.097c.016-.01.03-.01.041 0 .013.008.018.026.018.046v.066c.038-.07.081-.14.132-.2a.702.702 0 01.18-.155.44.44 0 01.222-.074.204.204 0 01.145.066c.035.041.06.1.078.173.016.074.023.155.023.246v.779zm.662-.847c0 .06.013.101.036.121.025.023.068.016.134-.023l.133-.076c.015-.01.03-.01.04 0 .013.008.018.023.018.046v.193c0 .02-.005.043-.018.066a.133.133 0 01-.04.048l-.163.094c-.137.079-.242.096-.315.05-.074-.045-.11-.16-.11-.342v-.624l-.144.084c-.016.01-.03.01-.041 0-.013-.01-.018-.023-.018-.046v-.19c0-.02.005-.043.018-.066a.11.11 0 01.04-.046l.145-.084v-.472c0-.02.005-.043.018-.066a.113.113 0 01.04-.045l.166-.097c.015-.01.03-.01.04 0 .014.01.019.023.019.046v.472l.282-.162c.015-.01.03-.01.04 0 .013.01.018.025.018.045v.19c0 .02-.005.044-.018.067a.133.133 0 01-.04.048l-.282.162v.606h.002zm1.072-1.211a.993.993 0 01.13-.337c.038-.064.086-.124.142-.183a.898.898 0 01.196-.152.553.553 0 01.2-.076.239.239 0 01.156.025.248.248 0 01.099.132.717.717 0 01.035.244v.852c0 .02-.005.043-.017.066a.131.131 0 01-.041.048l-.165.097c-.016.01-.03.01-.041 0-.013-.008-.018-.023-.018-.046v-.096a.923.923 0 01-.132.22.742.742 0 01-.218.186.465.465 0 01-.168.063.182.182 0 01-.125-.023.224.224 0 01-.079-.099.446.446 0 01-.028-.165c0-.134.036-.258.107-.375.071-.117.165-.223.285-.317l.356-.287c0-.079-.02-.124-.059-.134-.038-.01-.086.002-.145.035a.288.288 0 00-.084.069.594.594 0 00-.058.088.383.383 0 01-.036.054.132.132 0 01-.035.03l-.204.117c-.015.007-.027.01-.038.002-.015-.005-.017-.017-.015-.038zm.364.607a.659.659 0 00.287-.373.488.488 0 00.02-.13v-.03l-.297.24a.571.571 0 00-.13.135.24.24 0 00-.038.13c0 .04.015.06.048.063a.19.19 0 00.11-.035zm1.324-1.129a1.18 1.18 0 01.046-.31c.028-.094.063-.188.099-.281l.414-1.018a.285.285 0 01.023-.05.1.1 0 01.046-.046l.196-.114c.015-.01.03-.01.04 0 .013.01.018.022.018.045 0 .01 0 .018-.002.026a.114.114 0 01-.008.017l-.27.673a.626.626 0 01.237-.081.28.28 0 01.185.038.313.313 0 01.12.154c.028.071.043.16.043.262a1.225 1.225 0 01-.165.614 1.24 1.24 0 01-.188.253c-.074.076-.153.14-.24.19a.61.61 0 01-.238.087.288.288 0 01-.188-.038.314.314 0 01-.122-.158.664.664 0 01-.046-.263zm.89-.513c0-.099-.026-.167-.076-.203-.051-.035-.125-.028-.22.026a.55.55 0 00-.218.225.618.618 0 00-.076.292c0 .1.026.168.076.206.051.038.125.03.219-.023a.558.558 0 00.219-.229.643.643 0 00.076-.294zm1.45-1.687a.537.537 0 01.122-.053.253.253 0 01.094-.01.182.182 0 01.115.048v-.62a.14.14 0 01.058-.111l.165-.096c.016-.01.03-.01.041 0 .013.01.018.025.018.045v1.903c0 .02-.005.043-.018.066a.133.133 0 01-.04.048l-.166.097c-.015.01-.03.01-.04 0-.013-.008-.018-.023-.018-.046v-.066c-.013.026-.028.05-.046.084a.826.826 0 01-.285.28.364.364 0 01-.198.057.244.244 0 01-.15-.063.43.43 0 01-.099-.16.812.812 0 01-.04-.233c-.003-.028-.003-.061-.003-.102 0-.038 0-.073.002-.101a1.406 1.406 0 01.14-.553c.04-.087.092-.165.15-.239a.676.676 0 01.198-.175zm-.203.82a.863.863 0 000 .162c.008.122.038.195.086.22.049.029.11.02.18-.02a.495.495 0 00.181-.187.664.664 0 00.084-.29 1.346 1.346 0 000-.218c-.008-.096-.035-.16-.084-.19-.048-.03-.109-.025-.18.018a.496.496 0 00-.18.187.651.651 0 00-.087.317zM71.483 65c.015-.01.03-.01.04 0 .013.01.018.022.018.045v.226c0 .02-.005.043-.017.066a.132.132 0 01-.041.048l-.188.109c-.016.01-.03.01-.04 0-.014-.008-.019-.023-.019-.046v-.225c0-.02.005-.044.018-.066a.13.13 0 01.04-.049l.189-.109zm.046 1.955c0 .02-.005.044-.018.066a.132.132 0 01-.04.049l-.166.096c-.015.01-.03.01-.04 0-.013-.008-.019-.023-.019-.046v-1.352c0-.02.006-.043.018-.066a.133.133 0 01.04-.048l.166-.097c.015-.01.03-.01.04 0 .013.008.019.026.019.046v1.352zm.796-.091a.561.561 0 00.244-.322.478.478 0 00.025-.16v-.107c-.012.026-.028.051-.045.084a.834.834 0 01-.285.28.375.375 0 01-.198.058.23.23 0 01-.15-.064.421.421 0 01-.1-.162.815.815 0 01-.04-.234c-.003-.027-.003-.06-.003-.099 0-.038 0-.073.003-.104a1.413 1.413 0 01.14-.553c.04-.086.091-.165.15-.238a.695.695 0 01.32-.223.324.324 0 01.094-.01.181.181 0 01.114.048v-.066c0-.02.006-.044.018-.066a.105.105 0 01.04-.046l.166-.096c.015-.01.03-.01.04 0 .013.01.018.022.018.045v1.36c0 .234-.048.44-.147.614a1.1 1.1 0 01-.407.414.597.597 0 01-.205.078.32.32 0 01-.166-.01.23.23 0 01-.111-.084.264.264 0 01-.046-.144.098.098 0 01.015-.064.116.116 0 01.043-.048L72 66.86c.02-.013.038-.013.053-.003.015.01.028.02.038.03.018.024.046.034.076.036a.336.336 0 00.158-.058zm-.26-.974a.88.88 0 000 .162c.008.122.039.195.087.22.048.029.11.021.18-.02a.495.495 0 00.181-.187.664.664 0 00.084-.29 1.315 1.315 0 000-.22c-.008-.097-.036-.16-.084-.19-.048-.03-.11-.026-.18.017a.495.495 0 00-.18.188.672.672 0 00-.087.32zm1.35-2.004c.015-.01.03-.01.04 0 .013.01.018.022.018.045v.226c0 .02-.005.043-.018.066a.11.11 0 01-.04.046l-.189.109c-.015.01-.03.01-.04 0-.013-.01-.018-.023-.018-.046v-.226c0-.02.005-.043.018-.066a.131.131 0 01.04-.048l.189-.106zm.048 1.953c0 .02-.005.043-.018.066a.105.105 0 01-.04.046l-.166.096c-.015.01-.03.01-.04 0-.013-.01-.018-.023-.018-.046V64.65c0-.02.005-.043.017-.066a.132.132 0 01.041-.048l.165-.096c.016-.01.03-.01.041 0 .013.007.018.022.018.045v1.355zm.685-.86c0 .06.012.102.035.122.026.023.069.015.135-.023l.132-.076c.015-.01.03-.01.04 0 .013.007.019.023.019.046v.192c0 .02-.006.043-.018.066a.132.132 0 01-.041.049l-.16.093c-.137.079-.242.097-.315.051-.074-.046-.11-.16-.11-.342v-.624l-.144.083c-.016.01-.03.01-.041 0-.013-.01-.018-.023-.018-.046v-.19c0-.02.005-.043.018-.066.013-.023.025-.038.04-.045l.145-.084v-.472c0-.02.006-.043.018-.066a.105.105 0 01.04-.046l.166-.096c.015-.01.03-.01.04 0 .013.01.019.023.019.046v.471l.282-.162c.015-.01.03-.01.04 0 .013.01.018.026.018.046v.19c0 .02-.005.043-.018.066a.133.133 0 01-.04.048l-.282.163v.606zm1.039-1.327c.005-.111.02-.223.046-.335a1.356 1.356 0 01.315-.599c.079-.086.17-.16.28-.223a.667.667 0 01.277-.099.277.277 0 01.196.056c.053.04.091.102.119.18a.98.98 0 01.048.28c0 .035.003.075.003.119v.276c0 .046-.003.086-.003.124-.005.112-.02.224-.048.333a1.365 1.365 0 01-.12.317 1.244 1.244 0 01-.475.5.61.61 0 01-.28.099.275.275 0 01-.195-.054.376.376 0 01-.12-.18.917.917 0 01-.045-.279c-.003-.035-.003-.076-.003-.12l-.002-.136c0-.048 0-.094.002-.14.003-.04.003-.08.005-.119zm.987-.556c-.006-.136-.039-.225-.102-.266-.061-.04-.145-.033-.247.028a.642.642 0 00-.244.256.848.848 0 00-.101.383 7.323 7.323 0 000 .492c.005.137.04.224.101.264.061.041.143.03.244-.028a.677.677 0 00.247-.253.847.847 0 00.102-.38c.002-.077.005-.158.005-.25 0-.093 0-.175-.005-.245zm1.567-1.674c.015-.01.03-.01.04 0 .013.01.018.023.018.046v.205c0 .02-.005.043-.017.066a.133.133 0 01-.041.048l-.391.226v1.59a.135.135 0 01-.018.067.132.132 0 01-.04.048l-.176.101c-.016.01-.03.01-.04 0-.014-.007-.019-.022-.019-.045v-1.59l-.391.225c-.015.01-.03.01-.04 0-.014-.01-.019-.025-.019-.046v-.205c0-.02.005-.043.018-.066a.132.132 0 01.04-.048l1.076-.622zm.921-.53c.175-.102.313-.125.41-.071.096.053.144.188.144.4a1.077 1.077 0 01-.554.974l-.348.201v.647c0 .02-.005.043-.018.066a.11.11 0 01-.04.046l-.176.101c-.015.01-.03.01-.04 0-.013-.007-.019-.023-.019-.045v-1.875c0-.02.006-.043.018-.066a.133.133 0 01.04-.048l.583-.33zm-.348 1.144l.338-.195a.568.568 0 00.198-.18.473.473 0 00.074-.27c0-.108-.026-.17-.074-.182-.048-.013-.114.005-.198.05l-.338.196v.581zm1.91-.561c0 .061.013.102.036.125.025.023.069.015.135-.023l.132-.076c.015-.01.03-.01.04 0 .013.007.018.023.018.045v.193c0 .02-.005.043-.018.066a.133.133 0 01-.04.048l-.163.094c-.137.079-.241.097-.315.048-.074-.045-.11-.16-.11-.34v-.624l-.144.084c-.016.01-.03.01-.04 0-.014-.008-.019-.023-.019-.046v-.19c0-.02.005-.043.018-.066a.133.133 0 01.04-.046l.146-.083v-.472c0-.02.005-.043.017-.066a.121.121 0 01.041-.046l.165-.096c.016-.01.03-.01.041 0 .013.01.018.025.018.046v.471l.282-.162c.015-.01.03-.01.04 0 .013.01.018.025.018.046v.19c0 .02-.005.043-.017.066a.132.132 0 01-.041.048l-.282.162v.604h.002zm1.076-1.611a.528.528 0 01.216-.076.263.263 0 01.167.04.331.331 0 01.115.138.55.55 0 01.048.22c0 .018.003.039.003.066v.16c0 .026 0 .049-.003.066a1.37 1.37 0 01-.163.545 1.275 1.275 0 01-.167.232.885.885 0 01-.216.175.54.54 0 01-.219.076.262.262 0 01-.168-.038.304.304 0 01-.112-.137.673.673 0 01-.05-.221c-.003-.015-.003-.038-.003-.063v-.16c0-.028.003-.051.003-.069.005-.091.02-.182.048-.276a1.31 1.31 0 01.282-.503.947.947 0 01.219-.175zm.264.5a.32.32 0 00-.033-.132c-.018-.03-.038-.05-.061-.058a.113.113 0 00-.081 0 .517.517 0 00-.26.195.505.505 0 00-.06.13.56.56 0 00-.031.167c-.003.015-.003.036-.003.06v.148c0 .023.003.043.003.053a.372.372 0 00.03.132c.018.03.038.051.061.059.026.01.051.01.082.002a.523.523 0 00.26-.195.653.653 0 00.094-.297c-.001-.015.001-.033.001-.058v-.145l-.002-.06zm1.32.046l-.432-1.081c-.003-.005-.003-.01-.003-.018 0-.02.005-.043.018-.066a.13.13 0 01.04-.048l.163-.094c.018-.01.033-.01.046-.002a.06.06 0 01.026.03l.29.73.289-1.062a.367.367 0 01.025-.064.12.12 0 01.046-.048l.163-.094c.015-.01.03-.01.04 0 .013.01.018.026.018.046 0 .008 0 .015-.002.02l-.613 2.245a.288.288 0 01-.025.061.129.129 0 01-.046.051l-.163.094c-.015.01-.03.01-.04 0-.013-.01-.018-.023-.018-.046 0-.007 0-.015.002-.02l.176-.634zm1.39-2.26a.527.527 0 01.216-.077c.063-.005.12.01.167.04a.331.331 0 01.115.138c.028.06.045.134.048.22.003.018.003.039.003.066v.16c0 .026 0 .048-.003.066a1.37 1.37 0 01-.163.546 1.278 1.278 0 01-.167.23.883.883 0 01-.216.176.54.54 0 01-.216.076.259.259 0 01-.168-.038.321.321 0 01-.112-.137.673.673 0 01-.05-.221c-.003-.015-.003-.038-.003-.064v-.159l.002-.069c.005-.091.02-.183.048-.276a1.305 1.305 0 01.28-.502c.066-.07.14-.128.219-.176zm.264.502a.373.373 0 00-.03-.132c-.018-.03-.039-.051-.064-.059a.113.113 0 00-.081 0 .373.373 0 00-.09.038.703.703 0 00-.088.064.508.508 0 00-.142.223.562.562 0 00-.031.168c-.003.015-.003.035-.003.06v.148c0 .022.003.043.003.053a.375.375 0 00.03.132c.018.03.038.05.061.058.026.01.051.01.082.003a.528.528 0 00.26-.195.56.56 0 00.094-.297l.001-.059v-.144c0-.028 0-.046-.002-.061zm.523-.848c0-.02.005-.043.018-.066a.13.13 0 01.04-.048l.166-.096c.015-.01.03-.01.04 0 .013.01.018.025.018.045v.739c0 .116.018.197.056.246.038.048.097.048.18 0a.444.444 0 00.179-.206.782.782 0 00.06-.314v-.739c0-.02.006-.043.018-.066.013-.023.026-.038.041-.045l.165-.097c.016-.01.03-.01.04 0 .014.01.019.026.019.046v1.352c0 .02-.005.043-.018.066a.132.132 0 01-.04.048l-.166.097c-.015.01-.03.01-.04 0-.013-.008-.019-.023-.019-.046v-.066a1.158 1.158 0 01-.124.19.62.62 0 01-.178.158c-.089.05-.163.076-.221.07a.183.183 0 01-.14-.068.373.373 0 01-.073-.172 1.206 1.206 0 01-.023-.246v-.782h.002zm1.874-.809a.472.472 0 00-.188.185.614.614 0 00-.059.284v.754c0 .02-.005.043-.017.066a.131.131 0 01-.041.048l-.165.096c-.016.01-.03.01-.041 0-.013-.007-.018-.022-.018-.045V57.03c0-.02.005-.044.018-.066.013-.023.025-.039.04-.046l.166-.097c.015-.01.03-.01.04 0 .013.01.018.023.018.046v.066c.038-.069.08-.127.122-.177a.681.681 0 01.168-.135l.1-.056c.014-.01.03-.01.04 0 .013.01.018.026.018.046v.19c0 .02-.005.043-.018.066a.133.133 0 01-.04.048l-.143.079zm1.443.358a.455.455 0 01-.12.05.246.246 0 01-.094.01.182.182 0 01-.114-.048v.62c0 .02-.005.043-.018.065a.13.13 0 01-.04.049l-.166.096c-.015.01-.03.01-.04 0-.013-.01-.018-.023-.018-.046v-1.903c0-.02.005-.043.017-.066a.133.133 0 01.041-.048l.165-.096c.016-.01.03-.01.04 0 .014.008.019.023.019.046v.066c.012-.026.028-.051.045-.084a1.112 1.112 0 01.163-.195.685.685 0 01.12-.087.364.364 0 01.198-.058.23.23 0 01.15.063.42.42 0 01.099.163.814.814 0 01.04.233c.003.028.003.061.003.102 0 .038 0 .073-.002.101a1.404 1.404 0 01-.14.553c-.04.086-.092.165-.15.239a.747.747 0 01-.198.175zm.2-.82a.863.863 0 000-.162c-.007-.122-.038-.196-.086-.22-.048-.029-.11-.021-.18.02a.495.495 0 00-.181.187.663.663 0 00-.084.29 1.3 1.3 0 000 .22c.008.096.036.16.084.19.048.03.11.026.18-.015a.494.494 0 00.18-.188.69.69 0 00.087-.322zm1.6-.325a.12.12 0 01-.018.064.134.134 0 01-.04.048l-.166.096c-.015.01-.03.01-.04 0-.013-.007-.019-.022-.019-.045v-.739c0-.116-.02-.197-.06-.243-.041-.046-.105-.046-.189.002a.464.464 0 00-.183.209.724.724 0 00-.066.317v.738c0 .02-.005.043-.017.066a.13.13 0 01-.041.048l-.165.096c-.016.01-.03.01-.041 0-.013-.007-.018-.022-.018-.045v-1.903c0-.02.005-.043.018-.066a.133.133 0 01.04-.048l.166-.096c.015-.01.03-.01.04 0 .013.007.018.025.018.045v.62c.038-.074.082-.14.132-.204a.705.705 0 01.181-.154.442.442 0 01.221-.074.204.204 0 01.145.066c.036.04.061.099.079.172.015.074.023.155.023.247v.783zm.79-1.915a.527.527 0 01.216-.076.259.259 0 01.167.04.3.3 0 01.112.138c.028.06.046.134.049.22l.002.066v.16c0 .028 0 .048-.002.066a1.37 1.37 0 01-.163.545 1.282 1.282 0 01-.168.231.885.885 0 01-.216.175.541.541 0 01-.216.077.267.267 0 01-.168-.039.321.321 0 01-.112-.137.67.67 0 01-.05-.22c-.003-.016-.003-.038-.003-.064v-.16c0-.027.003-.05.003-.068.005-.091.02-.183.048-.277a1.313 1.313 0 01.282-.502.897.897 0 01.219-.175zm.261.5a.32.32 0 00-.033-.132.13.13 0 00-.06-.059.127.127 0 00-.082-.002.523.523 0 00-.26.195.56.56 0 00-.094.297c-.002.018-.002.036-.002.061v.147c0 .023.003.043.003.056a.372.372 0 00.03.132c.018.03.038.048.064.058.025.008.05.01.081 0a.517.517 0 00.26-.195.652.652 0 00.094-.297l.002-.058v-.144c0-.024 0-.044-.003-.06zm1.599-.114c0 .02-.005.043-.018.066a.133.133 0 01-.04.048l-.166.096c-.015.01-.03.01-.04 0-.013-.007-.018-.023-.018-.046v-.738c0-.116-.02-.198-.061-.243-.04-.046-.104-.046-.188.002a.458.458 0 00-.183.21.724.724 0 00-.066.318v.738c0 .02-.005.043-.018.066a.105.105 0 01-.04.046l-.166.096c-.015.01-.03.01-.04 0-.013-.01-.018-.023-.018-.045V53.94c0-.02.005-.043.017-.066a.13.13 0 01.041-.048l.165-.096c.015-.01.03-.01.041 0 .013.007.018.023.018.045v.066c.038-.073.081-.14.132-.2a.657.657 0 01.18-.155.441.441 0 01.222-.073.204.204 0 01.144.066c.036.04.061.099.08.172.014.074.022.155.022.246v.782zm.235-.809a1.55 1.55 0 01.144-.64 1.26 1.26 0 01.168-.264.807.807 0 01.221-.188.435.435 0 01.221-.068.258.258 0 01.168.063.4.4 0 01.107.173.82.82 0 01.038.261v.13c0 .02-.005.043-.018.066a.132.132 0 01-.04.048l-.73.418c0 .046.008.079.02.107a.113.113 0 00.056.053c.023.01.051.013.082.005a.262.262 0 00.094-.038.745.745 0 00.114-.084.544.544 0 00.071-.088.29.29 0 01.038-.054.135.135 0 01.041-.033l.175-.101c.016-.01.03-.01.044-.003.012.008.017.026.015.046a.534.534 0 01-.033.124c-.02.054-.053.114-.094.18-.043.066-.094.13-.155.196a.966.966 0 01-.214.167.467.467 0 01-.22.071.234.234 0 01-.169-.063.416.416 0 01-.106-.188 1.004 1.004 0 01-.038-.297zm.533-.744a.469.469 0 00-.185.193.625.625 0 00-.066.218l.493-.284a.455.455 0 00-.015-.081.123.123 0 00-.039-.064.109.109 0 00-.07-.023.259.259 0 00-.118.04zm2.336-.234a.12.12 0 01-.018.064.132.132 0 01-.04.048l-.166.097c-.015.01-.03.01-.04 0-.014-.008-.019-.023-.019-.046v-.738c0-.117-.02-.198-.06-.244-.041-.046-.105-.046-.189.003a.463.463 0 00-.183.208.725.725 0 00-.066.317v.738c0 .02-.005.043-.017.066a.13.13 0 01-.041.048l-.165.097c-.016.01-.03.01-.041 0-.013-.008-.018-.023-.018-.046v-1.352c0-.02.005-.043.018-.066a.11.11 0 01.04-.046l.166-.096c.015-.01.03-.01.04 0 .013.01.018.023.018.045v.066c.038-.07.082-.14.132-.203a.705.705 0 01.18-.154.44.44 0 01.222-.074.204.204 0 01.145.066c.035.04.06.099.079.172.015.074.023.155.023.247v.783zm.28-1.514c0-.02.005-.043.017-.066a.134.134 0 01.041-.046l.165-.096c.015-.01.03-.01.04 0 .014.01.019.023.019.045v.739c0 .117.017.198.056.246.035.048.096.048.18 0a.444.444 0 00.178-.206.78.78 0 00.06-.314v-.739a.13.13 0 01.019-.065.13.13 0 01.04-.049l.166-.096c.015-.01.03-.01.04 0 .013.01.018.025.018.046v1.352c0 .02-.005.043-.018.066a.13.13 0 01-.04.048l-.166.096c-.015.01-.03.01-.04 0-.013-.01-.018-.022-.018-.045v-.066a1.528 1.528 0 01-.125.193.62.62 0 01-.177.157c-.09.05-.163.076-.222.071a.183.183 0 01-.14-.069.373.373 0 01-.073-.172 1.225 1.225 0 01-.023-.246v-.784h.002zm1.626-.87a.91.91 0 01.127-.203.57.57 0 01.155-.135c.092-.053.165-.073.224-.06a.209.209 0 01.137.098.95.95 0 01.158-.274.772.772 0 01.196-.177.365.365 0 01.208-.064c.056.005.1.028.135.071a.395.395 0 01.07.175c.013.074.021.158.021.249v.781c0 .02-.005.044-.018.066a.131.131 0 01-.04.049l-.165.096c-.016.01-.031.01-.041 0-.013-.008-.018-.023-.018-.046v-.766c0-.132-.018-.213-.056-.243-.038-.03-.091-.026-.16.012a.408.408 0 00-.15.163.656.656 0 00-.066.302v.781c0 .02-.005.043-.018.066a.11.11 0 01-.04.046l-.166.096c-.015.01-.03.01-.04 0-.013-.01-.018-.023-.018-.046v-.766c0-.132-.018-.213-.056-.243-.038-.03-.092-.026-.16.012a.41.41 0 00-.153.168.636.636 0 00-.063.31v.765c0 .02-.005.044-.018.066a.131.131 0 01-.04.049l-.166.096c-.015.01-.03.01-.04 0-.013-.008-.018-.023-.018-.046v-1.352c0-.02.005-.043.017-.066a.131.131 0 01.041-.048l.165-.096c.016-.01.03-.01.04 0 .014.007.019.025.019.045v.069h-.003zm2.331-1.518a.335.335 0 01.198-.055.232.232 0 01.15.063c.04.038.074.094.099.163a.824.824 0 01.041.233c.002.028.002.06.002.101 0 .038 0 .074-.002.102a1.393 1.393 0 01-.29.792.71.71 0 01-.318.223c-.035.01-.066.012-.094.01a.168.168 0 01-.069-.018.356.356 0 01-.045-.03v.066c0 .02-.005.043-.018.066a.132.132 0 01-.04.048l-.166.096c-.015.01-.03.01-.04 0-.013-.007-.018-.023-.018-.045v-1.903c0-.02.005-.043.017-.066a.106.106 0 01.041-.046l.165-.096c.016-.01.03-.01.04 0 .014.01.019.023.019.045v.617l.046-.084c.017-.03.043-.063.068-.096.028-.033.059-.066.094-.1a.673.673 0 01.12-.085zm.203.584c-.01-.122-.038-.195-.086-.22-.049-.029-.11-.02-.181.02a.487.487 0 00-.18.19.684.684 0 00-.084.287 1.346 1.346 0 000 .22c.007.1.035.165.084.193.048.028.109.02.18-.02a.503.503 0 00.181-.188.704.704 0 00.086-.322.853.853 0 000-.16zm1.065-.936a.467.467 0 00-.188.185.615.615 0 00-.059.284v.754c0 .02-.005.043-.017.066a.108.108 0 01-.041.045l-.165.097c-.016.01-.031.01-.041 0-.013-.01-.018-.023-.018-.046v-1.352c0-.02.005-.043.018-.066a.129.129 0 01.041-.048l.165-.097c.015-.01.03-.01.041 0 .012.008.017.023.017.046v.066a.718.718 0 01.29-.312l.099-.056c.015-.01.031-.01.041 0 .013.01.018.026.018.046v.19c0 .02-.005.043-.018.066a.138.138 0 01-.041.048l-.142.084zm.307.228c0-.109.013-.218.038-.327.026-.11.061-.213.107-.312.046-.096.102-.185.17-.264a.868.868 0 01.221-.19.462.462 0 01.222-.069.282.282 0 01.17.061c.046.04.081.1.107.173a.821.821 0 01.038.261v.13a.13.13 0 01-.018.065.129.129 0 01-.041.049l-.729.418c0 .046.007.079.02.107a.114.114 0 00.056.053c.023.01.051.013.081.005a.305.305 0 00.094-.035.457.457 0 00.186-.173.503.503 0 01.038-.056.133.133 0 01.041-.033l.175-.101c.015-.01.031-.01.043-.003.013.008.018.023.016.046a.577.577 0 01-.033.124 1.244 1.244 0 01-.094.18 1.57 1.57 0 01-.156.196 1.01 1.01 0 01-.213.167.44.44 0 01-.221.071.243.243 0 01-.17-.063.41.41 0 01-.107-.188.866.866 0 01-.041-.292zm.534-.743a.462.462 0 00-.183.193.59.59 0 00-.069.218l.493-.284a.275.275 0 00-.017-.081.125.125 0 00-.039-.064.107.107 0 00-.071-.023.232.232 0 00-.114.04zm1.303-.723a.473.473 0 00-.188.185.615.615 0 00-.058.284v.754c0 .02-.005.043-.018.066-.013.023-.025.038-.041.045l-.165.097c-.015.01-.03.01-.04 0-.013-.01-.018-.023-.018-.046v-1.352c0-.02.005-.043.018-.066a.126.126 0 01.04-.048l.165-.097c.016-.01.031-.01.041 0 .013.008.018.023.018.046v.066a1.09 1.09 0 01.122-.178.698.698 0 01.168-.134l.099-.056c.015-.01.03-.01.04 0 .013.01.018.025.018.046v.19c0 .02-.005.043-.018.066a.126.126 0 01-.04.048l-.143.084zM63.719 92.072l-4.822 2.778c-.277.16-.5-.01-.5-.378V83.649c0-.368.223-.797.5-.956l4.822-2.778c.277-.16.5.01.5.377v10.823c.003.368-.223.797-.5.957zm7.83-4.513l-4.822 2.778c-.277.16-.5-.01-.5-.378V79.136c0-.368.223-.797.5-.957l4.822-2.775c.277-.16.5.01.5.378v10.823c0 .368-.223.796-.5.954zm7.83-4.511l-4.822 2.778c-.277.16-.5-.01-.5-.378V74.625c0-.368.223-.797.5-.957l4.822-2.778c.277-.16.5.01.5.378v10.823c0 .368-.223.797-.5.957zm7.83-4.514l-4.822 2.778c-.277.16-.5-.01-.5-.378V70.111c0-.368.223-.796.5-.956l4.822-2.778c.277-.16.5.01.5.378v10.823c0 .37-.223.8-.5.956zm7.828-4.511l-4.821 2.779c-.277.16-.501-.01-.501-.378V65.6c0-.368.224-.797.5-.957l4.822-2.778c.277-.16.5.01.5.378v10.823c0 .368-.223.797-.5.957zm7.828-4.51l-4.821 2.778c-.277.16-.501-.01-.501-.378V61.09c0-.368.224-.797.5-.957l4.822-2.778c.277-.16.501.01.501.378v10.823c.002.368-.224.797-.501.957z" fill="#FAFAFA"/><path d="M61.051 99.52l40.756-23.48c.167-.096.305-.017.305.175v5.21a.674.674 0 01-.305.524l-40.756 23.48c-.168.097-.305.018-.305-.175v-5.208a.678.678 0 01.305-.525z" fill="#000" opacity=".2"/><path d="M101.378 77.375l-39.49 22.747a.738.738 0 00-.335.581v4.62a.73.73 0 00.338.576l.638.363a.756.756 0 00.673-.003l39.49-22.747a.737.737 0 00.336-.58v-4.62a.725.725 0 00-.338-.577l-.641-.363a.752.752 0 00-.671.003z" fill="#D1D3D4"/><path opacity=".2" d="M63.202 106.259c-.178.104-.505.107-.673.005l-.638-.363a.73.73 0 01-.338-.576v-4.619c0-.112.04-.234.107-.343l1.306.754a.677.677 0 00-.1.329v4.62c0 .193.138.307.336.193z" fill="#000"/><path d="M103.023 83.94c-.025-.167-.165-.227-.333-.131L63.2 106.556a.647.647 0 00-.236.251l-1.31-.753c.062-.102.14-.188-.002-5.792l39.49-22.748c.42 5.448.72 5.448.908 5.552l.638.362a.72.72 0 01.335.513z" fill="#fff" opacity=".2"/><path opacity=".5" d="M102.693 78.118l-39.49 22.747a.739.739 0 00-.336.581v4.623c0 .213.15.299.336.193l39.49-22.747a.739.739 0 00.335-.581v-4.62c0-.216-.15-.302-.335-.196z" fill="#E4E5E6"/><path d="M161.779 39.332c0-.419-.294-.928-.658-1.136l-33.662-19.399c-.363-.21-.953-.21-1.316 0l-.743.427c-.363.21-.658.718-.658 1.136v25.756c0 .416.298.929.658 1.137l33.662 19.398c.361.208.953.208 1.317 0l.742-.426c.361-.208.658-.72.658-1.137V39.332z" fill="#D268CC"/><path d="M161.779 39.332c0-.419-.294-.928-.658-1.136l-33.662-19.399c-.363-.21-.953-.21-1.316 0l-.743.427c-.363.21-.658.718-.658 1.136v25.756c0 .416.298.929.658 1.137l33.662 19.398c.361.208.953.208 1.317 0l.742-.426c.361-.208.658-.72.658-1.137V39.332z" fill="#912829"/><path d="M158.694 40.352l2.892-1.667c.12.206.194.436.194.647v25.756c0 .416-.295.929-.659 1.137l-.742.426c-.361.208-.953.208-1.316 0l-.372-.213V40.352h.003z" fill="#912829"/><path d="M124.742 20.36v25.756c0 .216.079.454.206.665.104.172.236.327.384.428l.025.016c.016.01.028.02.043.028l33.662 19.398.005.002c.176.1.333.112.448.051.127-.066.206-.215.206-.431V40.517c0-.416-.331-.68-.74-.581l-14.155 3.359-1.852.439c-.41.096-.941-.102-1.182-.442l-2.148-2.986-14.457-20.09c-.244-.338-.445-.274-.445.144z" fill="#D268CC"/><path d="M124.742 20.36v25.756c0 .216.079.454.206.665.104.172.236.327.384.428l.025.016c.016.01.028.02.043.028l33.662 19.398.005.002c.176.1.333.112.448.051.127-.066.206-.215.206-.431V40.517c0-.416-.331-.68-.74-.581l-14.155 3.359-1.852.439c-.41.096-.941-.102-1.182-.442l-2.148-2.986-14.457-20.09c-.244-.338-.445-.274-.445.144z" fill="#B53133"/><path d="M125.4 47.253c-.015-.008-.028-.018-.043-.028l-.026-.015a1.4 1.4 0 01-.384-.43 1.35 1.35 0 01-.203-.654l14.899-5.82-9.976 9.405-4.267-2.458z" fill="#D268CC"/><path d="M125.4 47.253c-.015-.008-.028-.018-.043-.028l-.026-.015a1.4 1.4 0 01-.384-.43 1.35 1.35 0 01-.203-.654l14.899-5.82-9.976 9.405-4.267-2.458z" fill="#EBEBEB"/><path opacity=".2" d="M125.4 47.253c-.015-.008-.028-.018-.043-.028l-.026-.015a1.4 1.4 0 01-.384-.43 1.35 1.35 0 01-.203-.654l14.899-5.82-9.976 9.405-4.267-2.458z" fill="#000"/><path d="M159.72 66.273c0 .218-.078.365-.206.431-.116.061-.274.048-.447-.05l-.005-.003-11.59-6.678-2.646-16.678 14.894 22.55v.428z" fill="#D268CC"/><path d="M159.72 66.273c0 .218-.078.365-.206.431-.116.061-.274.048-.447-.05l-.005-.003-11.59-6.678-2.646-16.678 14.894 22.55v.428z" fill="#E0E0E0"/><path opacity=".2" d="M159.72 66.273c0 .218-.078.365-.206.431-.116.061-.274.048-.447-.05l-.005-.003-11.59-6.678-2.646-16.678 14.894 22.55v.428z" fill="#000"/><path d="M124.947 46.78c.104.173.237.328.384.43l.025.015 33.706 19.426.005.002c.175.1.333.112.447.051L143.395 41.02a2.535 2.535 0 00-3.17-.971l-15.278 6.733z" fill="#D268CC"/><path d="M124.947 46.78c.104.173.237.328.384.43l.025.015 33.706 19.426.005.002c.175.1.333.112.447.051L143.395 41.02a2.535 2.535 0 00-3.17-.971l-15.278 6.733z" fill="#912829"/><path d="M159.448 39.9l-15.316 6.749a2.51 2.51 0 01-3.136-.962l-16.084-25.69L159.448 39.9z" fill="#F5F5F5"/><path opacity=".2" d="M159.448 39.9l-15.316 6.749a2.51 2.51 0 01-3.136-.962l-16.084-25.69L159.448 39.9z" fill="#000"/><path d="M159.448 39.9l-15.423 5.752a2.506 2.506 0 01-2.974-.977l-16.137-24.678L159.448 39.9z" fill="#D268CC"/><path d="M159.448 39.9l-15.423 5.752a2.506 2.506 0 01-2.974-.977l-16.137-24.678L159.448 39.9z" fill="#B53133"/><path d="M89.61 162.663l-36.08-20.738c-.735-.424-.735-1.109 0-1.533l70.62-40.681c.734-.424 1.924-.424 2.658 0l36.082 20.738c.734.423.734 1.108 0 1.532l-70.62 40.682c-.735.423-1.924.423-2.66 0z" fill="#E0E0E0"/><path d="M57.11 141.077l32.353 18.643c1.05.606 2.287.619 3.375.063l65.135-37.541c.717-.413 1.841-1.342 1.83-2.488-.005-.619.028-1.251.028-1.566 0-1.04-.831-2.362-1.858-2.953L125.74 96.659c-1.022-.589-2.694-.589-3.716 0L57.11 134.07c-1.027.591-1.858 1.913-1.858 2.953 0 .081.015 1.091.015 1.188 0 1.443.897 2.323 1.843 2.866z" fill="#B6B8BA"/><path d="M89.463 159.72L57.11 141.077c-.839-.482-1.843-1.26-1.843-2.864 0-.269-.015-.997-.015-1.19 0-1.04.831-2.362 1.858-2.953l34.114-19.659v45.77a3.454 3.454 0 01-1.761-.461z" fill="#B6B8BA"/><path d="M90.233 155.3c.902.52 2.376.52 3.276 0l64.472-37.155c1.385-.799 1.385-2.106 0-2.905l-32.239-18.578c-1.022-.59-2.694-.59-3.716 0l-64.914 37.411c-1.022.588-1.022 1.552 0 2.141l33.12 19.086z" fill="#757679"/><path d="M93.362 151.558c.976.563 2.557.563 3.53 0l55.477-31.972c.976-.563.976-1.474 0-2.035l-30.327-17.475c-.971-.56-2.559-.56-3.53 0l-55.477 31.972c-.971.561-.971 1.477 0 2.035l30.327 17.475z" fill="#37474F"/><path d="M120.385 99.663c.602.015 1.199.15 1.657.413l30.327 17.475c.976.564.976 1.475 0 2.035l-6.011 3.466-25.973-16.557v-6.832zm20.9 9.714l-5.376-3.098c-.32-.185-.336-.474-.036-.649.3-.173.806-.165 1.126.02l5.376 3.098c.32.185.338.474.036.649-.3.175-.806.165-1.126-.02zm-9.23-5.31c-.3-.172-.3-.454 0-.627.3-.172.788-.172 1.09 0 .3.173.3.455 0 .627-.302.173-.79.173-1.09 0zm-2.178-1.258c-.3-.173-.3-.454 0-.627.3-.172.788-.172 1.091 0 .3.173.3.454 0 .627-.303.175-.791.175-1.091 0zm17.432 10.046c-.3-.172-.3-.454 0-.626.3-.173.788-.173 1.09 0 .3.172.3.454 0 .626-.3.173-.79.173-1.09 0zm-2.182-1.258c-.3-.172-.3-.454 0-.627.3-.172.788-.172 1.091 0 .3.173.3.455 0 .627-.3.175-.788.175-1.091 0z" fill="#1A2E35"/><path d="M118.49 101.401c.971-.561 2.56-.561 3.531 0l30.327 17.475c.193.111.345.236.46.37a1.821 1.821 0 01-.44.343l-55.474 31.969c-.976.563-2.557.563-3.53 0l-30.33-17.475a1.748 1.748 0 01-.458-.366c.112-.124.257-.243.437-.347l55.477-31.969z" fill="#FAFAFA"/><path d="M117.61 105.034a.252.252 0 01-.056-.13l-.091-.728c-.013-.096.05-.165.15-.162l1.26.053a.3.3 0 01.259.213c.033.112-.03.201-.142.196l-1.09-.046.068.558c.013.109-.068.18-.183.157a.293.293 0 01-.175-.111zm25.716 13.971c-.178.104-.49.089-.696-.028-.206-.119-.229-.299-.051-.401.178-.104.49-.088.696.028.209.12.229.3.051.401zm1.576.908c-.178.104-.49.089-.696-.027-.206-.12-.229-.3-.051-.401.178-.104.491-.089.696.028.206.116.229.296.051.4zm1.573.906c-.178.104-.491.089-.697-.028-.206-.119-.229-.299-.051-.401.178-.104.491-.088.697.028.206.119.228.3.051.401z" fill="#455A64"/><path d="M140.506 121.339l-23.845-13.743c-.494-.284-1.243-.315-1.67-.068l-1.563.91c-.244-.177-.671-.606-.463-1.344-.813.865-.821 1.727-.785 2.073l-4.187 2.44c-.427.246-.373.678.12.962l23.846 13.743c.495.284 1.243.317 1.67.068l6.997-4.077c.427-.248.374-.68-.12-.964zm-47.228 24.982l-23.846-13.743c-.493-.284-1.243-.314-1.67-.068l-1.311.763c-.427.247-.374.678.119.962l23.846 13.743c.493.284 1.243.317 1.67.069l1.311-.764c.43-.246.374-.675-.12-.962zm4.182 2.413l-1.09-.634c-.496-.284-1.244-.315-1.67-.069l-1.312.764c-.427.246-.374.677.12.962l1.09.634c.493.284 1.243.317 1.67.068l1.311-.763c.43-.246.376-.678-.12-.962z" fill="#E0E0E0"/><path d="M139.997 83.306l-.796-2.48c-.429-2.005 7.767 2.717 8.194 4.723l-2.64 7.096a1.15 1.15 0 01-.443.518c-.579.355-2.714 1.558-2.9 1.672-.584.358-1.443.134-1.687-.627l-3.421-11.71c-.214-.993 1.675-.343 3.693.808z" fill="#B53133"/><path d="M129.568 57.183l31.156 17.942c.582.335 1.052 1.149 1.052 1.821v15.692c0 .67-.475 1.481-1.06 1.811l-1.927 1.089c-.584.33-1.53.324-2.112-.01l-31.158-17.94c-.582-.335-1.052-1.15-1.052-1.822V60.075c0-.67.475-1.482 1.06-1.812l1.926-1.088c.587-.332 1.533-.327 2.115.008z" fill="#912829"/><path d="M157.15 95.515a.815.815 0 01-.394-.125l-12.792-7.365-2.252 6.234a.96.96 0 01-.902.583.977.977 0 01-.946-.687l-2.981-10.21-11.288-6.496c-.539-.31-.976-1.069-.976-1.69V60.067c0-.375.16-.599.43-.599.117 0 .254.044.394.125l31.158 17.94c.539.309.976 1.067.976 1.689v15.692c.005.377-.158.6-.427.6z" fill="#FAFAFA"/><path d="M125.055 59.623c.091 0 .2.036.317.104l31.159 17.94c.488.281.902.994.902 1.557v15.692c0 .168-.036.447-.28.447a.655.655 0 01-.317-.105l-12.635-7.276-.315-.18-.122.34-2.186 6.053a.816.816 0 01-.762.495.827.827 0 01-.799-.573l-2.966-10.153-.033-.117-.106-.061-11.235-6.467c-.488-.282-.899-.994-.899-1.558V60.07c-.003-.165.033-.447.277-.447zm0-.302c-.346 0-.582.274-.582.751v15.692c0 .67.47 1.487 1.052 1.822l11.234 6.466 2.966 10.154c.168.522.628.791 1.091.791.422 0 .843-.223 1.044-.685l2.191-6.063 12.635 7.276a.97.97 0 00.47.144c.346 0 .582-.273.582-.75V79.226c0-.67-.473-1.487-1.052-1.822l-31.159-17.939a.964.964 0 00-.472-.145z" fill="#E0E0E0"/><path d="M124.484 59.88c.084-.53.516-.719 1.042-.42l31.154 17.943c.292.17.554.456.744.786l4.026-2.318c-.19-.315-.442-.59-.724-.749L129.568 57.18c-.58-.335-1.523-.34-2.112-.01l-1.924 1.086c-.532.304-.974.997-1.048 1.623z" fill="#B53133"/><path d="M127.423 68.196a.46.46 0 01-.033-.206c.005-.063.028-.106.063-.129l1.309-.83a.913.913 0 01.1-.048c.033-.015.071-.01.111.013l.471.271a.311.311 0 01.114.14.457.457 0 01.048.203v5.982c0 .069-.015.117-.048.147-.033.03-.071.033-.114.008l-.488-.282a.307.307 0 01-.115-.14.457.457 0 01-.048-.202v-4.574l-.857.535c-.035.023-.076.018-.117-.018a.415.415 0 01-.111-.162l-.285-.708zm5.271 3.798a.514.514 0 00.231-.32c.034-.134.051-.266.051-.396 0-.253-.051-.497-.15-.73a1.158 1.158 0 00-.5-.553c-.221-.127-.384-.137-.486-.03-.101.106-.175.278-.221.512-.013.073-.036.119-.071.14-.036.02-.071.017-.109-.003l-.476-.274a.321.321 0 01-.117-.137.413.413 0 01-.045-.206c.012-.271.058-.507.139-.708.082-.2.189-.355.323-.461a.779.779 0 01.473-.168c.18-.002.376.053.585.175.254.145.472.335.658.569.185.233.338.484.457.753.12.272.211.543.27.822.058.277.086.535.086.776 0 .155-.005.297-.018.43-.012.131-.04.253-.083.367a1.289 1.289 0 01-.532.616l-1.115.924 1.674.967a.307.307 0 01.115.14.457.457 0 01.048.202v.657c0 .069-.015.117-.048.147-.033.03-.071.033-.115.008l-2.813-1.621a.32.32 0 01-.115-.14.465.465 0 01-.048-.203v-.566c0-.104.021-.185.061-.238a.398.398 0 01.102-.104l1.789-1.347zm5.129.104a.295.295 0 01.115.14.465.465 0 01.048.202v.657a.272.272 0 01-.046.165.709.709 0 01-.086.102l-.88.918a3.032 3.032 0 01.867 1.089c.104.218.186.451.242.7.056.249.083.505.083.771 0 .322-.04.584-.124.787a.858.858 0 01-.343.436.802.802 0 01-.519.099 1.668 1.668 0 01-.648-.234 3.063 3.063 0 01-.732-.575 3.624 3.624 0 01-.836-1.421 2.998 2.998 0 01-.127-.675c-.005-.076.01-.127.046-.155.033-.028.073-.028.117-.002l.475.274a.25.25 0 01.099.117c.025.055.053.126.081.218a1.562 1.562 0 00.257.532c.066.092.15.18.249.27.099.088.224.174.369.258.244.142.442.18.594.114.15-.063.227-.236.227-.512 0-.277-.077-.52-.227-.728a1.867 1.867 0 00-.594-.523l-.501-.29a.312.312 0 01-.114-.139.467.467 0 01-.049-.203v-.657a.28.28 0 01.046-.165c.031-.04.058-.076.086-.101l.844-.875-1.665-.96a.312.312 0 01-.114-.139.457.457 0 01-.048-.203v-.657c0-.069.015-.117.048-.147.033-.03.071-.033.114-.008l2.646 1.52zm1.609 5.186a.312.312 0 01-.114-.14.465.465 0 01-.048-.203v-.611c0-.069.015-.117.048-.147.033-.03.071-.033.114-.008l1.838 1.058a.311.311 0 01.114.14.465.465 0 01.048.202v.612c0 .068-.015.117-.048.147-.033.03-.071.033-.114.008l-1.838-1.058zm5.209 5.223a.313.313 0 01-.115-.14.457.457 0 01-.048-.202v-1.122l-1.868-1.075a.296.296 0 01-.114-.14.459.459 0 01-.049-.203v-.657a.45.45 0 01.038-.203c.026-.05.059-.101.094-.154l1.846-2.474c.081-.11.162-.137.246-.089l.458.264a.327.327 0 01.114.14.457.457 0 01.048.202v3.705l.519.299a.311.311 0 01.114.14.459.459 0 01.049.202v.657c0 .069-.016.117-.049.148-.033.03-.068.033-.114.007l-.519-.3v1.122c0 .069-.015.117-.048.147-.033.03-.071.033-.114.008l-.488-.282zm-.163-2.623v-1.981l-1.029 1.387 1.029.594zm2.734-2.126c0-.069.015-.117.048-.147.033-.03.072-.033.115-.008l2.267 1.307a.312.312 0 01.114.14.467.467 0 01.049.202v.657c0 .069-.016.117-.049.148-.033.03-.071.033-.114.007l-1.693-.977-.066 1.147a.698.698 0 01.323.066c.107.048.193.094.262.132.223.13.434.297.627.5.194.203.359.436.501.7a3.918 3.918 0 01.45 1.85c0 .395-.041.71-.125.943-.081.234-.195.401-.338.5a.692.692 0 01-.503.11 1.772 1.772 0 01-.615-.23 3.044 3.044 0 01-.714-.56 3.372 3.372 0 01-.496-.687 3.43 3.43 0 01-.406-1.507c-.005-.076.01-.127.045-.155.033-.028.074-.028.117-.003l.488.282a.304.304 0 01.11.122.608.608 0 01.066.2 1.655 1.655 0 00.294.73c.069.092.145.173.229.24.084.065.173.126.265.18.228.131.414.142.554.032.139-.109.211-.332.211-.664 0-.28-.072-.55-.211-.817a1.504 1.504 0 00-.554-.606 1.023 1.023 0 00-.288-.125.439.439 0 00-.172-.002c-.044.012-.084.02-.12.028-.036.007-.081-.005-.137-.038l-.554-.32a.313.313 0 01-.115-.14.457.457 0 01-.048-.203l.183-3.034zm3.798 6.226c.005-.355.046-.634.127-.835.081-.2.173-.385.277-.553l1.144-1.822a.459.459 0 01.063-.083c.026-.028.066-.026.125.007l.541.313a.312.312 0 01.114.139.453.453 0 01.049.203.18.18 0 01-.01.069.089.089 0 01-.021.032l-.747 1.218c.236.142.455.328.653.553a3.807 3.807 0 01.844 1.662c.079.322.117.652.117.984 0 .34-.041.627-.119.86-.082.236-.194.412-.339.528a.78.78 0 01-.518.17c-.201-.005-.422-.076-.663-.216a2.683 2.683 0 01-.664-.547 3.62 3.62 0 01-.518-.767 4.251 4.251 0 01-.338-.915 4.346 4.346 0 01-.117-1zm2.458 1.416c0-.315-.072-.62-.214-.916a1.507 1.507 0 00-.605-.67c-.262-.15-.462-.16-.605-.03-.142.131-.213.352-.213.67 0 .314.071.623.213.923.143.302.343.527.605.677.262.15.463.157.605.02.142-.132.214-.357.214-.674z" fill="#455A64"/><path d="M141.381 151.586l11.335 6.533c.951.548 2.395.606 3.218.132l16.475-9.494c.824-.474.72-1.307-.231-1.855l-11.336-6.532c-.95-.548-2.394-.607-3.218-.132l-16.475 9.493c-.823.475-.719 1.307.232 1.855zm11.259 5.939l-10.782-6.216a1.2 1.2 0 01-.429-.393l11.981.241-.77 6.368zm6.311-17.181l.595 9.775c.025.419-.524.736-1.253.723l-16.961-.342c.036-.167.155-.325.366-.447l16.475-9.493c.216-.127.488-.198.778-.216zm1.413.302l10.782 6.213-11.046.444-.419-6.906c.246.051.483.132.683.249zm-7.032 17.265l.815-6.736 4.227.086c.554.01 1.04-.104 1.38-.302.343-.198.542-.477.521-.796l-.147-2.436 11.689-.469c.529.37.562.88.041 1.182l-16.475 9.493c-.524.3-1.408.282-2.051-.022z" fill="#D268CC"/><path d="M141.381 151.586l11.335 6.533c.951.548 2.395.606 3.218.132l16.475-9.494c.824-.474.72-1.307-.231-1.855l-11.336-6.532c-.95-.548-2.394-.607-3.218-.132l-16.475 9.493c-.823.475-.719 1.307.232 1.855zm11.259 5.939l-10.782-6.216a1.2 1.2 0 01-.429-.393l11.981.241-.77 6.368zm6.311-17.181l.595 9.775c.025.419-.524.736-1.253.723l-16.961-.342c.036-.167.155-.325.366-.447l16.475-9.493c.216-.127.488-.198.778-.216zm1.413.302l10.782 6.213-11.046.444-.419-6.906c.246.051.483.132.683.249zm-7.032 17.265l.815-6.736 4.227.086c.554.01 1.04-.104 1.38-.302.343-.198.542-.477.521-.796l-.147-2.436 11.689-.469c.529.37.562.88.041 1.182l-16.475 9.493c-.524.3-1.408.282-2.051-.022z" fill="#912829"/><path d="M130.085 165.103l11.335 6.533c.951.548 2.392.606 3.218.134l16.473-9.496c.826-.474.722-1.304-.232-1.852l-2.343-1.352-.48.274 1.797 1.035-11.046.442-.178-2.989-.758-.436.379 6.238c.03.421-.521.738-1.253.721l-16.958-.345c.033-.165.155-.325.366-.444l14.088-8.116-.551-.317-14.089 8.116c-.821.477-.719 1.306.232 1.854zm11.948 6.325l.816-6.736 4.229.084c.549.013 1.035-.102 1.378-.302.343-.195.541-.474.523-.794l-.147-2.433 11.689-.47c.529.368.562.881.041 1.183l-16.478 9.493c-.521.302-1.405.279-2.051-.025zm-11.47-6.599a1.215 1.215 0 01-.43-.393l11.979.243-.77 6.363-10.779-6.213zm-61.508 10.722l-3.192-1.855.158-1.17-1.08-.606-2.535-.231-1.758-1.022-.095-2.251-.937-.545-2.735.606-3.551-2.062c-1.22.253-2.496.38-3.802.38-3.045 0-5.92-.697-8.098-1.963-2.359-1.37-3.652-3.253-3.645-5.303.008-2.05 1.314-3.922 3.683-5.277 2.15-1.23 4.984-1.908 7.976-1.908 3.045 0 5.922.698 8.103 1.964 2.06 1.198 3.337 2.836 3.594 4.615.157 1.109-.09 2.227-.702 3.25l19.073 11.084-4.057 2.316-6.4-.022zm-24.174-17.673a.938.938 0 00.29.236c.392.228.961.357 1.56.357.588 0 1.147-.127 1.533-.347a.932.932 0 00.293-.234.938.938 0 00-.29-.236c-.391-.228-.96-.357-1.56-.357-.59 0-1.147.126-1.533.347-.18.102-.262.188-.292.234z" fill="#E0E0E0"/><path d="M38.923 158.136l-.005 1.33c-.01 1.563 1.014 3.128 3.078 4.328 3.108 1.806 7.68 2.261 11.516 1.36l3.551 2.062 2.735-.606 1.86 1.081.094 2.25 1.004.584 2.524.231 1.81 1.017-.005 1.269 2.272 1.319 5.79.02 2.08-1.187.004-1.342-18.483-9.395c.857-.901 1.289-1.9 1.294-2.9l.005-1.344c-.275-1.299-1.355-1.972-3.08-2.974-4.118-2.392-10.808-2.418-14.94-.053-1.856 1.06-2.91 1.553-3.104 2.95zm5.678-1.532c1.172-.67 3.066-.662 4.232.015 1.167.678 1.162 1.771-.008 2.438-1.171.67-3.065.663-4.231-.015-1.17-.677-1.165-1.771.007-2.438z" fill="#EBEBEB"/><path opacity=".2" d="M38.923 158.136l-.005 1.33c-.01 1.563 1.014 3.128 3.078 4.328 3.108 1.806 7.68 2.261 11.516 1.36l3.551 2.062 2.735-.606 1.86 1.081.094 2.25 1.004.584 2.524.231 1.81 1.017-.005 1.269 2.272 1.319 5.79.02 2.08-1.187.004-1.342-18.483-9.395c.857-.901 1.289-1.9 1.294-2.9l.005-1.344c-.275-1.299-1.355-1.972-3.08-2.974-4.118-2.392-10.808-2.418-14.94-.053-1.856 1.06-2.91 1.553-3.104 2.95zm5.678-1.532c1.172-.67 3.066-.662 4.232.015 1.167.678 1.162 1.771-.008 2.438-1.171.67-3.065.663-4.231-.015-1.17-.677-1.165-1.771.007-2.438z" fill="#000"/><path d="M42.003 162.452c3.108 1.806 7.681 2.26 11.516 1.36l3.551 2.062 2.735-.606 1.86 1.081.094 2.25 1.004.584 2.524.231 1.965 1.103-.158 1.182 2.273 1.32 5.79.02 2.079-1.187-18.478-10.737c2.188-2.301 1.601-5.254-1.782-7.218-4.117-2.392-10.807-2.418-14.94-.053-4.138 2.359-4.15 6.215-.033 8.608zm2.603-7.19c1.172-.67 3.065-.662 4.232.015 1.166.678 1.161 1.771-.008 2.438-1.172.67-3.065.662-4.232-.015-1.169-.677-1.164-1.771.008-2.438z" fill="#D268CC"/><path d="M42.003 162.452c3.108 1.806 7.681 2.26 11.516 1.36l3.551 2.062 2.735-.606 1.86 1.081.094 2.25 1.004.584 2.524.231 1.965 1.103-.158 1.182 2.273 1.32 5.79.02 2.079-1.187-18.478-10.737c2.188-2.301 1.601-5.254-1.782-7.218-4.117-2.392-10.807-2.418-14.94-.053-4.138 2.359-4.15 6.215-.033 8.608zm2.603-7.19c1.172-.67 3.065-.662 4.232.015 1.166.678 1.161 1.771-.008 2.438-1.172.67-3.065.662-4.232-.015-1.169-.677-1.164-1.771.008-2.438z" fill="#912829"/><path d="M60.017 158.601l-10.419-1.642c.28-.578.028-1.225-.76-1.684-1.166-.678-3.06-.685-4.231-.016-.394.226-.654.5-.783.789l-3.802-.598c.5-.581 1.169-1.127 2.015-1.611.12-.069.25-.13.374-.193l17.14 2.699c.4.733.555 1.5.466 2.256zm-20.504 1.557c-.773-1.281-.783-2.679-.03-3.96l4.325.683c.122.299.384.586.788.822 1.167.677 3.06.685 4.232.015.02-.013.038-.026.059-.036l10.947 1.723c-.209.591-.562 1.169-1.078 1.712l4.895 2.844-24.138-3.803z" opacity=".2" fill="#fff"/><path d="M42.614 161.404c-1.575-.916-2.48-2.106-2.475-3.265.005-1.157.915-2.342 2.498-3.245 1.817-1.038 4.258-1.606 6.868-1.596 2.61.01 5.045.594 6.857 1.647 1.576.916 2.478 2.106 2.476 3.262-.005 1.157-.915 2.342-2.499 3.248-1.817 1.038-4.257 1.606-6.867 1.596-2.613-.01-5.048-.594-6.858-1.647zm.214-6.18c-1.464.837-2.303 1.9-2.308 2.917-.003 1.018.828 2.088 2.287 2.936 1.754 1.017 4.123 1.583 6.667 1.593 2.547.01 4.918-.54 6.68-1.545 1.464-.837 2.302-1.9 2.308-2.92.002-1.017-.829-2.088-2.285-2.935-1.754-1.018-4.123-1.586-6.667-1.594-2.55-.007-4.92.541-6.682 1.548z" fill="#F8F8F8"/><path opacity=".1" d="M45.665 163.84l-.005 1.342c2.522.571 5.345.56 7.854-.028l.005-1.342c-2.509.588-5.332.596-7.854.028zm11.403 2.034l-.005 1.343 2.737-.607.005-1.342-2.737.606zm4.597.475l-.005 1.342.094 2.25.005-1.342-.094-2.25zm1.1 2.834l-.005 1.342 2.524.231.002-1.342-2.521-.231zm6.601 3.836l-.005 1.342 5.79.021.005-1.342-5.79-.021z" fill="#000"/><path opacity=".15" d="M77.235 171.852l-.005 1.342-2.08 1.187.005-1.342.91-.52-.002.578.503-.286.003-.584.666-.375z" fill="#000"/><path d="M76.568 172.227l-.503.292-.002.578.503-.286.002-.584z" fill="#D268CC"/><path opacity=".3" d="M76.568 172.227l-.503.292-.002.578.503-.286.002-.584z" fill="#fff"/><path d="M76.568 172.227l-.003.584-18.948-11.014.503-.291 18.448 10.721z" fill="#F8F8F8"/><path opacity=".15" d="M58.12 161.506l-.002.583-.5-.292.502-.291z" fill="#000"/><path d="M12.596 158.484l2.147-1.238s1.279-5.302.77-10.075c-.716-6.708-5.139-9.232-6.821-8.653-1.683.578-2.168 2.529.615 6.525 1.64 2.357 3.657 7.266 3.289 13.441z" fill="#D268CC"/><path d="M12.596 158.484l2.147-1.238s1.279-5.302.77-10.075c-.716-6.708-5.139-9.232-6.821-8.653-1.683.578-2.168 2.529.615 6.525 1.64 2.357 3.657 7.266 3.289 13.441z" fill="#B53133"/><path d="M13.485 155.878l-.02-.002a.149.149 0 01-.12-.173c1.177-6.187-.989-13.139-3.67-16.031a.149.149 0 11.218-.203c2.73 2.945 4.939 10.011 3.744 16.29a.148.148 0 01-.152.119z" fill="#fff"/><path d="M7.19 161.599c-.32.163-1.174-.565-1.413-.743a2.972 2.972 0 01-.933-1.185c-.236-.54-.274-1.106-.162-1.684.058-.3.157-.589.256-.878l.293-.85c.096-.279.193-.568.17-.865-.046-.594-.549-1.035-1.01-1.416-.507-.421-1.031-.969-.99-1.679.03-.548.34-1.043.701-1.457.361-.413.786-.773 1.116-1.212.239-.315.43-.69.414-1.086-.01-.246-.099-.48-.206-.703-.228-.474-.538-.916-.686-1.421-.147-.504-.091-1.124.315-1.458.333-.277.811-.292 1.24-.244.4.046.78.246 1.119.457 1.098.685 1.675 2.052 2.852 2.595.452.211.958.277 1.433.426.476.153.956.421 1.157.878.396.901-.476 1.941-.214 2.887.232.838 1.02 1.195 1.431 1.961.18.335.206.713.155 1.091a5.151 5.151 0 01-.549 1.802c-.284.576-1.085 1.664-1.085 1.664s-5.353 3.095-5.404 3.12z" fill="#D268CC"/><path d="M7.19 161.599c-.32.163-1.174-.565-1.413-.743a2.972 2.972 0 01-.933-1.185c-.236-.54-.274-1.106-.162-1.684.058-.3.157-.589.256-.878l.293-.85c.096-.279.193-.568.17-.865-.046-.594-.549-1.035-1.01-1.416-.507-.421-1.031-.969-.99-1.679.03-.548.34-1.043.701-1.457.361-.413.786-.773 1.116-1.212.239-.315.43-.69.414-1.086-.01-.246-.099-.48-.206-.703-.228-.474-.538-.916-.686-1.421-.147-.504-.091-1.124.315-1.458.333-.277.811-.292 1.24-.244.4.046.78.246 1.119.457 1.098.685 1.675 2.052 2.852 2.595.452.211.958.277 1.433.426.476.153.956.421 1.157.878.396.901-.476 1.941-.214 2.887.232.838 1.02 1.195 1.431 1.961.18.335.206.713.155 1.091a5.151 5.151 0 01-.549 1.802c-.284.576-1.085 1.664-1.085 1.664s-5.353 3.095-5.404 3.12z" fill="#912829"/><path d="M10.3 159.981h-.005a.142.142 0 01-.13-.152c.514-5.564-1.806-11.853-3.631-13.738a.14.14 0 01.002-.198.14.14 0 01.199.002c1.86 1.923 4.229 8.317 3.708 13.962a.132.132 0 01-.142.124z" fill="#fff"/><path d="M9.748 153.121a.118.118 0 01-.04-.008c-1.767-.644-3.999-.855-4.022-.857a.14.14 0 01-.127-.153.138.138 0 01.153-.127c.023.003 2.29.216 4.092.873a.138.138 0 01.084.18.146.146 0 01-.14.092z" fill="#fff"/></svg>
