<svg width="257" height="223" viewBox="0 0 257 223" fill="none" xmlns="http://www.w3.org/2000/svg"><path d="M37.17 203.869c49.055 25.093 128.588 25.095 177.641 0 49.054-25.095 49.054-65.779 0-90.872-49.055-25.095-128.588-25.095-177.643 0-49.053 25.093-49.053 65.777.002 90.872Z" fill="#F5F5F5"/><path d="M197.6 163.78c2.689 1.554 7.971 1.019 11.801-1.193l22.071-12.825c3.83-2.212 4.751-5.267 2.055-6.824-2.693-1.556-7.982-1.023-11.81 1.191l-22.054 12.832c-3.827 2.213-4.752 5.266-2.063 6.819ZM64.724 175.607l-22.45-12.968 22.45-12.968v25.936ZM128.176 183.368l-36.184-20.917 36.193-20.875-.009 41.792Z" fill="#EBEBEB"/><path d="M34.355 145.285c.062-5.253-3.606-16.183-8.972-23.069-5.367-6.887-13.874-11.978-19.985-9.97-5.69 1.873-5.166 9.32 1.652 14.332 6.818 5.012 17.08 11.331 20.001 19.889L33.272 157l1.083-11.715Z" fill="#27DEBF"/><path d="M34.355 145.285c.062-5.253-3.606-16.183-8.972-23.069-5.367-6.887-13.874-11.978-19.985-9.97-5.69 1.873-5.166 9.32 1.652 14.332 6.818 5.012 17.08 11.331 20.001 19.889L33.272 157l1.083-11.715Z" fill="#B53133"/><path d="M34.657 152.48a.384.384 0 0 1-.343-.313c-3.302-17.978-17.628-32.728-26.268-36.054a.384.384 0 0 1 .276-.717c8.804 3.39 23.396 18.384 26.746 36.633a.383.383 0 0 1-.411.451Z" fill="#fff"/><path d="M31.845 163.927c-.808-2.964-4.355-7.881-10.139-11.976-6.397-4.53-14.535-6.677-16.376-10.165-2.21-4.192 1.345-8.084 7.96-7.182 6.616.901 18.158 10.088 19.858 23.729l-1.303 5.594Z" fill="#912829"/><path d="M33.164 160.844a.386.386 0 0 1-.328-.257c-5.313-15.429-16.963-20.963-22.381-21.733a.384.384 0 0 1 .107-.76c5.993.852 17.578 6.494 23.001 22.245a.385.385 0 0 1-.237.488.47.47 0 0 1-.162.017Z" fill="#fff"/><path d="M230.314 130.332s.738-11.076 7.26-19.3c6.525-8.222 6.124-11.61 1.624-13.268-4.498-1.66-14.947 8.25-12.623 21.52 2.329 13.27 3.739 11.048 3.739 11.048Z" fill="#27DEBF"/><path d="M230.314 130.332s.738-11.076 7.26-19.3c6.525-8.222 6.124-11.61 1.624-13.268-4.498-1.66-14.947 8.25-12.623 21.52 2.329 13.27 3.739 11.048 3.739 11.048Z" fill="#B53133"/><path d="M228.322 124.004a.257.257 0 0 1-.257-.241c-.761-12.198 7.849-22.206 11.07-24.472a.257.257 0 1 1 .296.42c-3.159 2.221-11.601 12.041-10.853 24.019a.255.255 0 0 1-.239.272c-.007.002-.013.002-.017.002Z" fill="#fff"/><path d="M228.541 139.479s3.931 1.364 8.983 2.164c5.052.801 7.282-1.618 7.282-1.618s-1.991-4.742-4.858-6.071c0 0 4.864.993 8.769 3.599 0 0 3.086.047 4.313-4.664 0 0-1.829-2.835-7.961-4.367 0 0 3.73-.939 9.108.434.403.159 2.121-5.931 2.641-8.742.52-2.809-.608-2.781-2.799-3.366-2.188-.584-9.442-2.213-10.811-1.009-1.372 1.203-2.068 5.324-2.068 5.324s-.903-2.431-.205-5.221c0 0-1.971-.77-5.028.119-2.502.729-2.622 2.431-2.51 4.356.082 1.406.422 2.906 1.082 4.886 0 0-1.949-2.5-2.009-7.922 0 0-5.119 2.544-5.993 7.627-.472 2.748-1.142 10.819 2.064 14.471Z" fill="#912829"/><path d="M229.504 138.489c.106 0 .207-.06.256-.162 4.078-8.474 19.234-18.323 24.664-19.377a.286.286 0 0 0 .224-.335.286.286 0 0 0-.334-.224c-5.518 1.074-20.925 11.08-25.067 19.69a.284.284 0 0 0 .257.408Z" fill="#fff"/><path d="M32.377 168.044c-.74 0-1.2-.607-1.2-1.584V73.331L145.42 7.338v92.982c0 1.485-1.046 3.297-2.331 4.039l-109.71 63.374c-.353.205-.692.311-1.002.311Z" fill="#FAFAFA"/><path d="M145.295 7.556v92.764c0 1.444-1.017 3.206-2.266 3.929l-109.71 63.374c-.332.192-.658.293-.942.293-.67 0-1.072-.543-1.072-1.456V73.402l113.99-65.846Zm.253-.438L31.051 73.258v93.202c0 1.083.539 1.709 1.324 1.709.321 0 .685-.106 1.07-.328l109.709-63.376c1.322-.764 2.394-2.622 2.394-4.147v-93.2Z" fill="#E0E0E0"/><path d="M31.05 73.258V88.82l114.496-66.14.002-15.563-114.497 66.14Z" fill="#B53133"/><path d="M40.031 74.088v2.231c0 .455.324.643.718.414L75.95 56.4v-3.89L40.747 72.844c-.392.228-.716.787-.716 1.244Z" fill="#FAFAFA"/><path d="M79.724 50.331c.397-.229.718-.043.718.414v2.231c0 .457-.32 1.016-.718 1.245l-3.77 2.179v-3.89l3.77-2.179Z" fill="#455A64"/><path d="M31.05 68.242c0-1.528 1.072-3.383 2.394-4.147L143.152.721c1.322-.763 2.393-.144 2.393 1.383V7.12L31.051 73.258v-5.016Z" fill="#61666A"/><path d="M132.821 9.293c-.619.358-1.124 1.23-1.124 1.946s.503 1.007 1.124.65c.621-.359 1.123-1.23 1.123-1.947 0-.718-.502-1.007-1.123-.65ZM136.375 7.235c-.618.358-1.123 1.23-1.123 1.946s.502 1.007 1.123.649c.621-.358 1.124-1.23 1.124-1.946s-.503-1.007-1.124-.65ZM139.934 5.179c-.621.358-1.123 1.23-1.123 1.946s.502 1.007 1.123.649c.621-.358 1.123-1.23 1.123-1.946-.002-.718-.504-1.007-1.123-.65Z" fill="#B53133"/><g opacity=".1" fill="#000"><path d="M109.626 32.815c-1.354.783-2.454 2.686-2.454 4.252 0 1.567 1.097 2.2 2.454 1.418 1.354-.783 2.454-2.686 2.454-4.252 0-1.567-1.1-2.201-2.454-1.418ZM98.401 39.3c-1.354.783-2.454 2.686-2.454 4.253 0 1.566 1.098 2.2 2.454 1.417 1.354-.783 2.454-2.686 2.454-4.252 0-1.567-1.098-2.2-2.454-1.418ZM120.852 26.33c-1.354.783-2.454 2.686-2.454 4.252 0 1.566 1.098 2.2 2.454 1.418 1.354-.784 2.454-2.686 2.454-4.253 0-1.566-1.1-2.2-2.454-1.417ZM132.075 19.834c-1.354.783-2.454 2.686-2.454 4.252 0 1.567 1.098 2.2 2.454 1.418 1.354-.784 2.454-2.686 2.454-4.253 0-1.566-1.098-2.2-2.454-1.417Z"/></g><path d="M42.425 90.032 69.067 74.64c1.322-.764 2.394-.145 2.394 1.383v25.595c0 1.528-1.072 3.383-2.394 4.147l-26.642 15.391c-1.322.763-2.394.144-2.394-1.383V94.178c0-1.525 1.072-3.383 2.394-4.146ZM80.59 67.985l55.828-32.251c1.322-.764 2.393-.145 2.393 1.383v25.595c0 1.528-1.071 3.383-2.393 4.147L80.593 99.11c-1.322.764-2.394.145-2.394-1.383V72.132c0-1.526 1.072-3.383 2.392-4.147ZM42.425 128.938l42.357-24.469c1.322-.764 2.394-.222 2.394 1.21 0 1.433-1.072 3.213-2.394 3.976l-42.357 24.47c-1.322.763-2.394.222-2.394-1.211 0-1.432 1.072-3.212 2.394-3.976ZM42.425 138.015l42.357-24.47c1.322-.764 2.394-.222 2.394 1.211 0 1.432-1.072 3.212-2.394 3.976l-42.357 24.469c-1.322.764-2.394.222-2.394-1.21 0-1.433 1.072-3.213 2.394-3.976ZM42.425 147.091l42.357-24.47c1.322-.763 2.394-.222 2.394 1.211 0 1.432-1.072 3.212-2.394 3.976l-42.357 24.471c-1.322.764-2.394.223-2.394-1.21 0-1.435 1.072-3.215 2.394-3.978Z" fill="#E0E0E0"/><path d="M62.482 116.313c0-.917.643-2.03 1.437-2.487l73.456-42.434c.794-.457 2.079-.457 2.873 0l1.619.934c.793.457 1.436 1.573 1.436 2.488v56.336c0 .912-.647 2.032-1.436 2.487l-73.46 42.437c-.788.455-2.082.455-2.871 0l-1.617-.935c-.79-.455-1.437-1.574-1.437-2.487v-56.339Z" fill="#B53133"/><path opacity=".4" d="m62.9 114.898 4.076 2.352 75.902-43.852c-.259-.449-.619-.843-1.011-1.074l-1.624-.932c-.787-.462-2.079-.462-2.866 0l-73.459 42.432c-.399.23-.759.625-1.018 1.074Z" fill="#fff"/><path opacity=".1" d="M62.48 116.311v56.336c0 .917.645 2.033 1.44 2.488l1.618.938c.123.069.252.13.395.177.183.061.38.108.59.136.374.048.768.035 1.135-.041.094-.019.19-.047.278-.075.06-.02.116-.041.17-.067-.265.095-.496.082-.686-.013-.271-.143-.442-.468-.442-.945v-56.336c0-.592.3-1.04.749-1.224l-.749-.436-4.075-2.351c-.26.449-.422.958-.422 1.413Z" fill="#000"/><path opacity=".2" d="m66.977 117.25 34.019 12.715a5.523 5.523 0 0 0 6.561-2.161l5.462-8.373 30.131-46.188-29.042 46.503 29.191 11.43c-.006.461-.177.979-.448 1.434l-28.823-12.735-6.348 10.166a5.525 5.525 0 0 1-6.921 2.127l-4.52-1.996-28.818 46.018c-.272-.143-.442-.468-.442-.945v-.939l29.12-44.196-29.122-12.86Z" fill="#000"/><path d="M127.586 52.573v129.343c0 1.527 1.072 2.146 2.393 1.383l58.075-33.548c1.321-.764 2.393-2.621 2.393-4.147V16.261c0-1.527-1.072-2.146-2.393-1.383l-58.075 33.548c-1.321.764-2.393 2.621-2.393 4.147Z" fill="#FAFAFA" stroke="#E0E0E0" stroke-width="1.17" stroke-miterlimit="10"/><path d="M130.951 54.982c0-.358.278-.809.623-1.007l6.616-3.82c.343-.2.623-.07.623.288s-.278.81-.623 1.008l-6.616 3.82c-.345.199-.623.07-.623-.289ZM130.951 57.558c0-.358.278-.809.623-1.007l6.616-3.82c.343-.2.623-.07.623.288s-.278.81-.623 1.008l-6.616 3.82c-.345.199-.623.07-.623-.289ZM130.951 60.134c0-.358.278-.809.623-1.007l6.616-3.821c.343-.198.623-.069.623.29 0 .357-.278.808-.623 1.007l-6.616 3.82c-.345.199-.623.07-.623-.289ZM185.955 26.968v-1.033c0-.063-.045-.09-.101-.065l-.796.358a.092.092 0 0 1-.131-.06 1.78 1.78 0 0 0-.177-.395.224.224 0 0 1-.013-.192l.53-1.07a.118.118 0 0 0-.047-.155l-.576-.332c-.054-.03-.125-.015-.157.036l-.662.995a.22.22 0 0 1-.173.086c-.136-.004-.28.01-.431.043-.06.013-.114-.023-.119-.084l-.086-.87c-.006-.06-.054-.086-.108-.055l-.894.515a.233.233 0 0 0-.106.166l-.091.995a.337.337 0 0 1-.092.186c-.175.16-.341.336-.496.526a.172.172 0 0 1-.175.05l-.574-.201a.141.141 0 0 0-.161.06l-.658 1.14a.145.145 0 0 0 .028.17l.462.397a.171.171 0 0 1 .045.177c-.086.23-.155.461-.207.692a.33.33 0 0 1-.114.173l-.818.576a.244.244 0 0 0-.09.177v1.033c0 .063.045.09.101.065l.796-.358a.092.092 0 0 1 .131.06c.046.147.106.278.177.395a.224.224 0 0 1 .013.192l-.53 1.07a.118.118 0 0 0 .047.155l.576.333c.054.03.125.015.157-.037l.662-.995a.22.22 0 0 1 .173-.086c.136.004.28-.01.431-.043.06-.013.114.024.119.084l.086.87c.006.06.054.086.108.056l.894-.516a.233.233 0 0 0 .106-.166l.091-.995a.337.337 0 0 1 .092-.185c.175-.16.341-.337.496-.527.039-.047.119-.07.175-.05l.574.201a.141.141 0 0 0 .161-.06l.658-1.14a.145.145 0 0 0-.028-.17l-.462-.397a.171.171 0 0 1-.045-.177c.086-.23.155-.461.207-.692a.33.33 0 0 1 .114-.173l.818-.576a.244.244 0 0 0 .09-.177Zm-3.495 3.247c-.835.482-1.509.091-1.509-.871 0-.965.677-2.136 1.509-2.617.834-.481 1.509-.09 1.509.871.002.965-.675 2.136-1.509 2.617Z" fill="#61666A"/><path d="M159.017 52.46c6.785-3.92 12.286-.742 12.286 7.098s-5.501 17.372-12.286 21.292c-6.786 3.92-12.287.742-12.287-7.098s5.501-17.372 12.287-21.292Z" fill="#fff" stroke="#37474F" stroke-miterlimit="10"/><path d="M158.93 58.63c2.202-1.272 3.987-.241 3.987 2.302 0 2.544-1.785 5.638-3.987 6.909-2.201 1.27-3.987.241-3.987-2.302 0-2.546 1.786-5.638 3.987-6.908ZM166.787 72.192c0-4.179-2.933-5.872-6.549-3.782l-2.262 1.305c-3.616 2.089-6.548 7.172-6.548 11.348v1.14c.653.217 1.36.323 2.111.325 1.649.004 3.506-.54 5.479-1.678 2.947-1.703 5.651-4.466 7.769-7.69v-.968Z" fill="#B53133"/><path d="m147.927 92.515 22.179-12.813c.662-.382 1.197-.11 1.197.606s-.535 1.607-1.197 1.99L147.927 95.11c-.662.382-1.197.11-1.197-.606 0-.719.535-1.607 1.197-1.99Z" fill="#912829"/><path d="m145.548 101.677 26.94-15.578c.66-.382 1.197-.11 1.197.606s-.535 1.607-1.197 1.99l-26.94 15.578c-.66.382-1.196.11-1.196-.607 0-.716.534-1.607 1.196-1.989Z" fill="#61666A"/><path d="m173.206 98.657 7.543-4.358c.397-.229.718-.125.718.233s-.321.835-.718 1.064l-7.543 4.358c-.396.228-.718.125-.718-.233 0-.359.322-.833.718-1.064Z" fill="#37474F"/><path d="m135.519 117.838 11.077-6.398c.659-.382 1.196-.074 1.196.69v7.609c0 .764-.534 1.692-1.196 2.073l-11.077 6.399c-.66.382-1.197.074-1.197-.69v-7.609c0-.764.535-1.692 1.197-2.074Z" fill="#912829"/><path d="m137.284 118.902 7.543-4.358c.397-.229.718-.125.718.233s-.321.835-.718 1.064l-7.543 4.358c-.396.228-.718.125-.718-.233s.322-.835.718-1.064ZM136.566 122.74v2.231c0 .457.322.643.718.414l7.543-4.358c.397-.229.718-.785.718-1.245v-2.23c0-.458-.321-.643-.718-.415l-7.545 4.358c-.394.229-.716.786-.716 1.245Z" fill="#fff"/><path d="m153.478 107.463 11.077-6.398c.662-.382 1.196-.072 1.196.69v7.609c0 .764-.534 1.692-1.196 2.073l-11.077 6.399c-.662.382-1.197.074-1.197-.69v-7.609c0-.764.537-1.692 1.197-2.074Z" fill="#912829"/><path d="m155.243 108.527 7.543-4.358c.397-.229.718-.125.718.233s-.321.835-.718 1.064l-7.543 4.358c-.396.228-.718.125-.718-.233s.324-.835.718-1.064ZM154.525 112.365v2.231c0 .457.322.643.718.414l7.543-4.358c.397-.229.718-.785.718-1.245v-2.23c0-.458-.321-.643-.718-.415l-7.545 4.358c-.392.229-.716.788-.716 1.245Z" fill="#fff"/><path d="m171.437 97.088 11.077-6.398c.659-.382 1.196-.074 1.196.69v7.61c0 .763-.534 1.691-1.196 2.072l-11.077 6.399c-.66.382-1.197.072-1.197-.69v-7.61c0-.763.537-1.69 1.197-2.073Z" fill="#912829"/><path d="m173.204 98.152 7.543-4.358c.397-.228.718-.125.718.233s-.321.835-.718 1.064l-7.543 4.358c-.396.228-.718.125-.718-.233s.322-.835.718-1.064ZM172.486 101.99v2.231c0 .457.322.643.718.414l7.543-4.358c.397-.228.718-.785.718-1.245v-2.23c0-.458-.321-.643-.718-.415l-7.545 4.358c-.394.229-.716.786-.716 1.245Z" fill="#fff"/><path d="m136.716 135.303 44.604-25.766c1.322-.764 2.393-.222 2.393 1.21 0 1.433-1.071 3.212-2.393 3.976l-44.604 25.766c-1.322.764-2.394.222-2.394-1.21 0-1.433 1.072-3.213 2.394-3.976ZM136.716 145.678l44.604-25.766c1.322-.764 2.393-.222 2.393 1.21 0 1.433-1.071 3.212-2.393 3.976l-44.604 25.766c-1.322.764-2.394.222-2.394-1.21 0-1.433 1.072-3.213 2.394-3.976Z" fill="#E0E0E0"/><path d="m151.234 150.26 15.566-8.992c.66-.382 1.197-.073 1.197.69v5.016c0 .764-.535 1.692-1.197 2.074l-15.566 8.992c-.66.381-1.197.073-1.197-.691v-5.016c0-.763.537-1.693 1.197-2.073Z" fill="#912829"/><path d="M137.69 136.064c-.621.358-1.124 1.23-1.124 1.946s.503 1.008 1.124.65c.619-.359 1.123-1.23 1.123-1.946-.002-.717-.504-1.008-1.123-.65ZM141.245 134.008c-.619.358-1.124 1.23-1.124 1.946s.503 1.008 1.124.65c.621-.359 1.123-1.23 1.123-1.946 0-.719-.505-1.008-1.123-.65ZM144.801 131.95c-.621.358-1.123 1.23-1.123 1.946s.502 1.008 1.123.649c.621-.358 1.124-1.229 1.124-1.946 0-.716-.503-1.007-1.124-.649ZM148.356 129.892c-.621.358-1.124 1.23-1.124 1.946s.503 1.007 1.124.649c.621-.358 1.123-1.229 1.123-1.946 0-.716-.502-1.007-1.123-.649ZM151.914 127.836c-.621.358-1.123 1.23-1.123 1.946s.502 1.007 1.123.649c.619-.358 1.124-1.229 1.124-1.946-.002-.716-.505-1.007-1.124-.649ZM155.471 125.778c-.619.358-1.123 1.229-1.123 1.946 0 .716.502 1.007 1.123.649.621-.358 1.123-1.23 1.123-1.946-.002-.716-.504-1.007-1.123-.649ZM159.026 123.722c-.619.358-1.124 1.229-1.124 1.946 0 .716.503 1.007 1.124.649.621-.358 1.123-1.23 1.123-1.946 0-.718-.504-1.007-1.123-.649ZM137.69 146.45c-.621.358-1.124 1.23-1.124 1.946s.503 1.008 1.124.649c.619-.358 1.123-1.229 1.123-1.946 0-.716-.504-1.007-1.123-.649ZM141.245 144.394c-.619.358-1.124 1.23-1.124 1.946s.503 1.008 1.124.649c.621-.358 1.123-1.229 1.123-1.946 0-.718-.505-1.007-1.123-.649ZM144.801 142.336c-.621.358-1.123 1.23-1.123 1.946s.502 1.007 1.123.649c.621-.358 1.124-1.23 1.124-1.946s-.503-1.007-1.124-.649ZM148.356 140.28c-.621.358-1.124 1.23-1.124 1.946s.503 1.007 1.124.649c.621-.358 1.123-1.23 1.123-1.946s-.502-1.007-1.123-.649ZM151.914 138.222c-.621.358-1.123 1.229-1.123 1.946 0 .716.502 1.007 1.123.649.619-.358 1.124-1.23 1.124-1.946-.002-.716-.505-1.007-1.124-.649ZM155.471 136.166c-.619.358-1.123 1.229-1.123 1.946 0 .716.502 1.007 1.123.649.621-.358 1.123-1.23 1.123-1.946-.002-.718-.504-1.007-1.123-.649ZM159.026 134.107c-.619.359-1.124 1.23-1.124 1.946 0 .717.503 1.008 1.124.65.621-.358 1.123-1.23 1.123-1.946s-.504-1.008-1.123-.65Z" fill="#FAFAFA"/><path d="M163.966 9.93c.337 2.457-1.013 5.386-3.012 6.538-1.988 1.15-3.868.084-4.211-2.366-.321-2.447 1.016-5.37 3.004-6.516 1.996-1.156 3.887-.097 4.219 2.343Zm-3.228 4.957c1.299-.749 2.159-2.62 1.954-4.22-.226-1.575-1.434-2.246-2.732-1.514-1.274.753-2.148 2.625-1.932 4.209.218 1.596 1.436 2.263 2.71 1.525Z" fill="#912829"/><path d="M208.904 157.487c-1.939 0-3.778-.479-5.443-1.439-3.982-2.302-6.266-7.115-6.266-13.212 0-10.718 6.81-23.047 15.502-28.068 4.679-2.703 9.328-2.996 13.088-.824 3.983 2.302 6.266 7.115 6.266 13.212 0 10.718-6.809 23.048-15.501 28.068-2.609 1.504-5.205 2.263-7.646 2.263Zm11.417-37.262c-1.395 0-2.868.701-3.773 1.223-6.312 3.646-11.646 13.44-11.646 21.386 0 3.217.901 5.657 2.41 6.531 1.719.992 4.108-.091 5.378-.824 6.311-3.646 11.646-13.441 11.646-21.387 0-3.217-.901-5.657-2.411-6.53-.491-.285-1.041-.399-1.604-.399Z" fill="#61666A"/><path d="M225.718 128.869c0-6.019-3.791-8.245-3.791-8.245 1.51.871 2.411 3.313 2.411 6.53 0 7.946-5.332 17.74-11.646 21.387-1.27.733-3.659 1.816-5.378.824 0 0 3.2 1.987 7.619-.425 6.401-3.493 10.785-12.123 10.785-20.071ZM219.638 53.617a3.989 3.989 0 0 0-3.987-3.99 3.988 3.988 0 0 0-3.987 3.99v63.44c0 .589.388 1.178 1.169 1.629 1.557.9 4.082.9 5.638 0 .779-.448 1.169-1.04 1.169-1.629v-63.43c-.002-.002-.002-.006-.002-.01Z" fill="#455A64"/><path d="M216.454 67.79c0-1.468-1.031-3.255-2.303-3.988-.647-.373-1.229-.4-1.647-.145l-.003-.004-9.836 5.67-.238.142c-.034.017-.069.035-.097.056a3.25 3.25 0 0 0-1.434 2.699c0 1.236.686 2.313 1.695 2.87.464.25.992.39 1.559.39.561 0 1.093-.142 1.553-.39.062-.035.125-.074.187-.108l9.9-5.705-.002-.002c.411-.241.666-.755.666-1.484ZM216.453 83.676c0-1.47-1.031-3.256-2.303-3.99-.647-.372-1.229-.398-1.647-.144l-.002-.004-11.53 6.623-.237.143c-.034.017-.069.034-.097.056a3.25 3.25 0 0 0-1.434 2.699c0 1.236.686 2.312 1.695 2.869.464.25.992.39 1.559.39.561 0 1.093-.142 1.552-.39.063-.034.125-.073.188-.108l11.592-6.658-.002-.002c.412-.241.666-.755.666-1.484Z" fill="#61666A"/></svg>
