<svg width="37" height="40" viewBox="0 0 37 40" fill="none" xmlns="http://www.w3.org/2000/svg"><path d="M25.867 5.761c-4.972-6.095-14-7.026-20.123-2.075a14.128 14.128 0 0 0-5.21 9.588A14.106 14.106 0 0 0 3.66 23.72a14.228 14.228 0 0 0 9.63 5.187c.502.051 1.002.077 1.5.077 2.096 0 4.14-.456 6.016-1.33l9.71 11.9c.187.23.46.348.737.348.211 0 .423-.068.599-.21l3.86-3.122a.94.94 0 0 0 .139-1.33l-9.694-11.88a14.116 14.116 0 0 0 2.837-7.152 14.106 14.106 0 0 0-3.127-10.448zm1.237 10.252a12.251 12.251 0 0 1-4.518 8.314 12.355 12.355 0 0 1-9.1 2.7 12.335 12.335 0 0 1-8.352-4.498 12.232 12.232 0 0 1-2.71-9.06 12.25 12.25 0 0 1 4.518-8.315 12.377 12.377 0 0 1 7.81-2.759c3.611 0 7.194 1.558 9.642 4.559a12.227 12.227 0 0 1 2.71 9.06zm4.287 21.615-8.898-10.906c.443-.284.874-.592 1.29-.928.388-.313.755-.644 1.105-.99l8.89 10.895-2.387 1.93z" fill="url(#a)" class="search-path-outside"/><path d="M15.842 4.37a10.439 10.439 0 0 0-7.68 2.278 10.347 10.347 0 0 0-3.815 7.018c-.289 2.77.525 5.486 2.288 7.648 2.067 2.534 5.09 3.847 8.138 3.847 2.321 0 4.655-.761 6.593-2.328 4.482-3.626 5.166-10.204 1.526-14.666a10.417 10.417 0 0 0-7.05-3.797zm4.327 16.996c-3.67 2.967-9.08 2.41-12.06-1.244a8.457 8.457 0 0 1-1.874-6.26 8.473 8.473 0 0 1 3.123-5.746 8.533 8.533 0 0 1 6.288-1.866 8.53 8.53 0 0 1 5.771 3.11c2.982 3.652 2.422 9.038-1.248 12.006z" fill="url(#b)" class="search-path-inside"/><defs><linearGradient id="a" x1=".457" y1="20.204" x2="36.063" y2="20.204" gradientUnits="userSpaceOnUse"><stop stop-color="#B53133"/><stop offset="1" stop-color="#912829"/></linearGradient><linearGradient id="b" x1="4.291" y1="14.738" x2="25.232" y2="14.738" gradientUnits="userSpaceOnUse"><stop stop-color="#B53133"/><stop offset="1" stop-color="#912829"/></linearGradient></defs></svg>
