<svg width="76" height="48" fill="none" xmlns="http://www.w3.org/2000/svg"><path d="M18.454 32.364c2.916 0 5.48 1.547 6.935 3.872h24.733a8.258 8.258 0 0 1 3.956-3.306V.16H.502v36.076h11.016c1.45-2.325 4.014-3.871 6.936-3.871zM.502 39.366c0 .329.137.658.416.913.28.25.641.375 1.007.375h8.333c0-1.125.22-2.2.623-3.177H.502v1.89zM26.648 40.654h22.214c0-1.125.22-2.2.623-3.177h-23.46a8.32 8.32 0 0 1 .623 3.177zM72.117 13.951c-2.266-2.292-5.224-4.265-8.058-4.69-2.83-.427-8.36-.454-8.36-.454V32.48a7.756 7.756 0 0 1 1.36-.115c4.523 0 8.195 3.714 8.195 8.29h6.868c.87 0 1.74-.334 2.398-1.006a3.44 3.44 0 0 0 .999-2.426V22.255c0-3.006-1.136-6.012-3.402-8.304zm1.017 11.147c0 .357-.151.704-.445.949-.293.24-.66.32-1.002.25l-12.137-2.45a1.173 1.173 0 0 1-.696-.422 1.213 1.213 0 0 1-.275-.778V12.16s4.062.018 6.14.333c2.078.315 4.253 1.764 5.915 3.446a8.647 8.647 0 0 1 2.5 6.099v3.06z" fill="#912829"/><path d="M54.078 3.247H.502v.923h53.576v-.923z" fill="#fff"/><path d="M24.29 36.706a8.412 8.412 0 0 0-.34-.467 7.001 7.001 0 0 0-5.515-2.684 7.018 7.018 0 0 0-5.519 2.684c-.12.15-.23.308-.341.467a6.615 6.615 0 0 0-.448.784 7.093 7.093 0 0 0-.752 3.202c0 3.944 3.161 7.141 7.06 7.141 3.9 0 7.056-3.197 7.056-7.141 0-1.153-.267-2.24-.752-3.202a6.546 6.546 0 0 0-.448-.784zm-5.855 7.682c-2.016 0-3.655-1.656-3.655-3.696 0-1.368.738-2.567 1.837-3.202a3.556 3.556 0 0 1 1.818-.495c.66 0 1.283.178 1.818.495a3.694 3.694 0 0 1 1.837 3.202c0 2.04-1.639 3.697-3.655 3.697zM63.021 36.714a8.41 8.41 0 0 0-.341-.466 7.001 7.001 0 0 0-5.514-2.684 7.018 7.018 0 0 0-5.52 2.684 6.629 6.629 0 0 0-.789 1.25 7.093 7.093 0 0 0-.752 3.203c0 3.944 3.162 7.141 7.061 7.141 3.9 0 7.056-3.197 7.056-7.141 0-1.153-.268-2.24-.753-3.203a6.4 6.4 0 0 0-.448-.784zm-5.855 7.683c-2.017 0-3.655-1.657-3.655-3.696 0-1.368.738-2.568 1.836-3.203a3.557 3.557 0 0 1 1.819-.494c.66 0 1.282.177 1.818.494a3.694 3.694 0 0 1 1.836 3.203c0 2.04-1.638 3.696-3.654 3.696z" fill="#912829"/></svg>