<svg width="12" height="12" viewBox="0 0 12 12" fill="none" xmlns="http://www.w3.org/2000/svg">
<path d="M1.25359 2.54563C1.20906 2.59615 1.1673 2.65034 1.12871 2.70635C0.776417 3.02739 0.497949 3.73322 0.661626 4.60345C1.36423 8.37034 4.44737 11.2405 8.15891 11.5829C8.23906 11.5905 8.31843 11.5942 8.3972 11.5942C8.82351 11.5942 9.22588 11.486 9.5463 11.2835C9.70088 11.1912 9.83902 11.0767 9.95599 10.9431L10.2746 10.5803C10.8961 9.87265 10.8427 8.77673 10.1555 8.13669L9.61755 7.63619C9.30762 7.34774 8.90743 7.18885 8.49061 7.18885C8.0166 7.18885 7.56199 7.39643 7.24354 7.75882L6.9249 8.12121C6.80041 8.26278 6.70085 8.42208 6.62782 8.59624C5.3574 8.04645 4.31497 7.06439 3.67035 5.81019C3.9037 5.71261 4.11389 5.56147 4.28449 5.36734L4.60314 5.00515C4.90436 4.66232 5.05795 4.21906 5.03519 3.75767C5.01282 3.29628 4.81708 2.87135 4.48399 2.56111L3.94625 2.06102C3.63651 1.77258 3.23613 1.61389 2.81912 1.61389C2.34431 1.61389 1.8897 1.82126 1.57184 2.18324L1.25359 2.54563ZM1.89267 2.48126C2.12878 2.21278 2.46662 2.05858 2.81931 2.05858C3.12905 2.05858 3.42632 2.17652 3.6565 2.39082L4.19424 2.89091C4.44164 3.1215 4.5871 3.43724 4.60353 3.77987C4.62055 4.12291 4.50655 4.4521 4.28271 4.70693L3.96406 5.06911C3.81127 5.24328 3.61573 5.3706 3.39881 5.43782L3.30203 5.46776C3.24107 5.4865 3.1912 5.53193 3.16586 5.59222C3.14073 5.65232 3.14231 5.72097 3.17081 5.77963L3.21574 5.87293C3.92111 7.33124 5.12009 8.46363 6.5916 9.0615L6.67532 9.09552C6.73034 9.11773 6.7919 9.11569 6.84593 9.09002C6.89936 9.06415 6.94053 9.01689 6.95933 8.95904L6.98764 8.87206C7.04285 8.70359 7.12954 8.55143 7.24532 8.41963L7.56397 8.05724C7.80048 7.78795 8.13832 7.63395 8.49061 7.63395C8.80016 7.63395 9.09763 7.75189 9.328 7.96619L9.86574 8.46689C10.3762 8.94213 10.4159 9.75654 9.95421 10.2823L9.63537 10.6453C9.54828 10.7445 9.44556 10.8299 9.32503 10.9016C9.01945 11.0949 8.61946 11.1798 8.1977 11.1401C4.67676 10.8152 1.75254 8.09289 1.08596 4.51952C0.945042 3.7703 1.21005 3.2201 1.42261 3.0331C1.42954 3.02698 1.43607 3.02026 1.44221 3.01354L1.45685 2.99663C1.46319 2.9895 1.46913 2.98176 1.47447 2.97382C1.50495 2.9286 1.53859 2.8848 1.57422 2.84406L1.89267 2.48126Z" fill="white"/>
<path d="M11.3865 5.68833C11.3865 2.77557 9.08438 0.405884 6.25477 0.405884C6.00698 0.405884 5.8053 0.613661 5.8053 0.868902C5.8053 1.12374 6.00698 1.33131 6.25477 1.33131C8.589 1.33131 10.4878 3.28585 10.4878 5.68833C10.4878 5.94316 10.6893 6.15094 10.9373 6.15094C11.1851 6.15074 11.3865 5.94316 11.3865 5.68833ZM10.9373 5.92829C10.8084 5.92829 10.7037 5.82053 10.7037 5.68812C10.7037 3.16301 8.70794 1.10887 6.25457 1.10887C6.12573 1.10887 6.02103 1.00111 6.02103 0.868699C6.02103 0.736088 6.12592 0.628125 6.25457 0.628125C8.96524 0.628125 11.1704 2.89799 11.1704 5.68812C11.1706 5.82074 11.0659 5.92829 10.9373 5.92829Z" fill="white"/>
<path d="M6.19952 2.12598C5.95192 2.12598 5.75024 2.33335 5.75024 2.58838C5.75024 2.84342 5.95172 3.05079 6.19952 3.05079C7.64253 3.05079 8.81657 4.25916 8.81657 5.74457C8.81657 5.99961 9.01805 6.20718 9.26604 6.20718C9.51383 6.20718 9.7155 5.99961 9.7155 5.74457C9.7157 3.74929 8.13811 2.12598 6.19952 2.12598ZM9.26604 5.98514C9.13739 5.98514 9.03249 5.87738 9.03249 5.74498C9.03249 4.13694 7.76147 2.82896 6.19932 2.82896C6.07067 2.82896 5.96597 2.7212 5.96597 2.58879C5.96597 2.45618 6.07067 2.34862 6.19932 2.34862C8.01896 2.34862 9.49938 3.87212 9.49938 5.74498C9.49958 5.87718 9.39488 5.98514 9.26604 5.98514Z" fill="white"/>
</svg>
