<svg width="19" height="19" viewBox="0 0 19 19" fill="none" xmlns="http://www.w3.org/2000/svg">
<path d="M10.3757 0.58668L12.51 4.91142C12.6584 5.21221 12.9454 5.42063 13.2774 5.46878L18.0501 6.16234C18.8862 6.28392 19.2197 7.31102 18.615 7.90036L15.1615 11.2667C14.9215 11.5008 14.8117 11.8383 14.8686 12.1687L15.6837 16.9221C15.8266 17.7546 14.9526 18.3893 14.205 17.9965L9.93632 15.7525C9.63948 15.5965 9.28461 15.5965 8.98777 15.7525L4.71908 17.9965C3.97145 18.3897 3.0975 17.7546 3.2404 16.9221L4.05553 12.1687C4.11237 11.8383 4.00264 11.5008 3.76264 11.2667L0.309083 7.90036C-0.295654 7.31063 0.0378984 6.28352 0.873951 6.16234L5.64671 5.46878C5.97869 5.42063 6.26566 5.21221 6.41408 4.91142L8.54842 0.58668C8.92185 -0.17082 10.0018 -0.17082 10.3757 0.58668Z" fill="#FFAE01"/>
</svg>
