<svg width="19" height="21" viewBox="0 0 19 21" fill="none" xmlns="http://www.w3.org/2000/svg"><path d="M0 15.722v4.557c0 .397.318.721.708.721h17.583c.391 0 .709-.324.709-.72v-4.558a.716.716 0 00-.709-.722h-1.73a.716.716 0 00-.709.722v2.07H3.148v-2.07A.716.716 0 002.44 15H.708a.716.716 0 00-.708.722zm.856.15h1.436v2.355c0 .24.191.436.428.436h13.56a.432.432 0 00.429-.436v-2.355h1.435v4.257H.856v-4.257z" fill="#912829"/><path d="M6 14.758v1.484a.76.76 0 00.762.758h5.476a.76.76 0 00.762-.758v-1.484a.761.761 0 00-.762-.758H6.762a.76.76 0 00-.762.758zm.863.102h5.273v1.28H6.863v-1.28zM5.923 12.259c0 .409.324.741.72.741h5.617c.398 0 .72-.332.72-.741V9.524h2.92c.466 0 .87-.23 1.03-.585a.793.793 0 00-.124-.845l-6.4-7.707C10.2.141 9.87 0 9.5 0s-.7.141-.905.387l-3.2 3.854-3.2 3.853a.792.792 0 00-.125.845c.16.356.564.585 1.03.585h2.823v2.735zM3.1 8.629a.466.466 0 01-.178-.033l3.135-3.775 3.2-3.853c.025-.03.117-.073.243-.073s.217.043.243.073l6.335 7.629a.466.466 0 01-.178.032h-3.355c-.24 0-.436.2-.436.447v3.03H6.794v-3.03a.442.442 0 00-.435-.447H3.1z" fill="#912829"/></svg>
