<svg width="32" height="37" viewBox="0 0 32 37" fill="none" xmlns="http://www.w3.org/2000/svg"><path d="M29.535 20.636c-1.929-1.761-4.797-2.512-8.528-2.238 2.43-1.763 4.028-4.732 4.028-8.09 0-5.398-4.128-9.79-9.2-9.79-5.074 0-9.202 4.392-9.202 9.79 0 3.192 1.445 6.031 3.672 7.819-2.694-.283-8.368-.072-10.09 6.289a.8.8 0 0 0-.027.206V35.74c0 .41.312.743.698.743h30.228c.386 0 .698-.333.698-.743V25.108c-.006-.103-.158-2.538-2.277-4.472zM7.949 10.306c0-4.626 3.537-8.39 7.885-8.39 4.349 0 7.887 3.764 7.887 8.39 0 4.614-3.518 8.369-7.849 8.39h-.075c-4.332-.021-7.848-3.776-7.848-8.39zm7.748 11.373h.674l.998 2.192-1.365 2.823-1.018-2.13.71-2.885zm-.83-1.491c0-.275.211-.5.47-.5h1.326c.259 0 .47.224.47.5s-.211.5-.47.5h-1.326c-.259 0-.47-.224-.47-.5zm2.455 1.307a1.5 1.5 0 0 0 .692-1.679 8.702 8.702 0 0 0 1.6-.587l-1.712 3.54-.58-1.274zm-2.556.052-.415 1.687-1.812-3.79c.459.188.934.34 1.425.448a1.552 1.552 0 0 0-.029.296 1.5 1.5 0 0 0 .83 1.359zm15.65 13.448H1.584V24.728c1.75-6.209 8.046-5.297 9.527-4.99l4.266 8.926c.12.25.359.406.62.406H16a.695.695 0 0 0 .622-.403l4.239-8.768c3.454-.296 6.056.324 7.739 1.841 1.613 1.457 1.8 3.242 1.816 3.437v9.818z" fill="url(#a)"/><defs><linearGradient id="a" x1=".187" y1="18.5" x2="31.813" y2="18.5" gradientUnits="userSpaceOnUse"><stop stop-color="#B53133"/><stop offset="1" stop-color="#912829"/></linearGradient></defs></svg>
